<?xml version="1.0" standalone="no"?>
<svg width="800" height="800" xmlns="http://www.w3.org/2000/svg" id="stage-svg" xmlns:xlink="http://www.w3.org/1999/xlink" preserveAspectRatio="none" viewBox="0 0 385 385"><g transform=""><g transform=""><defs><path fill="#FFD3A8" d="M191.5 95.8q0-39.7-28.05-67.75-16.2-16.2-36.3-23.05-14.7-5-31.4-5t-31.4 5q-20.1 6.85-36.3 23.05Q0 56.1 0 95.8q0 32.25 18.5 56.85l.05.05q.6.75 1.2 1.55l1 1.2L28 163.5q0 .05.05.05l.7.7q3.5 3.4 7.15 6.4v.05l-.05-.05q-5.81 7.718-10.6 17.75-.078.183-.2.35l-.3.7q-.06.17-.15.35-.117.253-.25.5l-2.6 6.15q-5.345 13.608-8.3 30.1-.05.2-.05.4-.15 2.45.15 4.85Q15.7 245.9 31 249.35q.2.05.45.1l.05-.05q.15.05.25.05.2.6.4 1.15.4.95 1.1 1.75 0 .05.05.1v19.45q-3.9.7-7.8 2.5-.6.267-1.2.55-.94.67 0 .8h143.25q1 0 0-.6-.775-.405-1.55-.75-3.9-1.8-7.8-2.5v-19.45q.05-.05.05-.1.7-.8 1.1-1.75.2-.55.4-1.15.1 0 .25-.05l.05.05q.25-.05.45-.1 15.3-3.45 17.45-17.55.3-2.4.15-4.85 0-.2-.05-.4-3.7-20.65-11.15-36.75-4.8-10.45-11.15-18.95h-.05q0-.1-.1-.2 3.65-3 7.15-6.4l.7-.7q.05 0 .05-.05l7.25-8.05 1-1.2q.6-.8 1.2-1.55l.05-.05q18.5-24.6 18.5-56.85z" id="SkiSki001__Symbol_10_0_Layer0_0_FILL"/><path fill="#F7BE86" d="M-36.05 227.75h-.2l-3.9.15-1.3.1q-8.5.6-13.15 1.65-4.7 1-5.35 1.3-.15.05-.25.1 8-1.3 16.1-1.8.3-.05.65-.05l2-.1q.2-.05.35-.05h.3q15.4-.65 30.05 2l4.15.7q1.15.2 2.3.45 1.75.35 3.45.75l.3.1q.1 0 .2.05.15 0 .3.05-.4-.15-.8-.25-1.7-.6-3.45-1.05-.55-.15-1.05-.3-.15-.05-.25-.05-10.8-3-22-3.6-.4-.05-.8-.05-.55-.05-1.15-.05l-6.5-.05m3.4-52.2q3.05 1.2 6.25 0 1.6-1.65.35-3.6-.1-.15-.15-.25-3.05-1-6.9 0-.5.7-.6 1.4-.2 1.1.8 2.25.1.1.25.2M3.2 203.7q-1.25-1.15-2.25 0-.05.25 0 .55.25 1.6.15 3.25l.1.05q.7.3 1.05-.35l.1-.2q.15-.45.3-.85.25-.8.4-1.55.05-.15.05-.3l.1-.6m55.4 25.95q-4.65-1.05-13.15-1.65l-1.3-.1-3.9-.15h-.2l-6.5.05q-.6 0-1.15.05-.4 0-.8.05-11.2.6-22 3.6-.1 0-.25.05-.5.15-1.05.3-1.75.45-3.45 1.05-.4.1-.8.25.15-.05.3-.05.1-.05.2-.05l.3-.1q1.7-.4 3.45-.75 1.15-.25 2.3-.45l4.15-.7q14.65-2.65 30.05-2h.3q.15 0 .35.05l2 .1q.35 0 .65.05 8.1.5 16.1 1.8-.1-.05-.25-.1-.65-.3-5.35-1.3M29.55 173.1q-.2 1.1.8 2.25.1.1.25.2 3.05 1.2 6.25 0 1.6-1.65.35-3.6-.1-.15-.15-.25-3.05-1-6.9 0-.5.7-.6 1.4z" id="SkiSki001__hll_0_Layer0_0_FILL"/><path fill="#DE9957" d="M-54 165.45q-.05.05-.05.1l-4.3 21.85q-.45 2.1-.85 4.05l-.1.6q-.2.8-.35 1.6-1.5 7.35-2.3 12.15-.75 4.4.45-.6.4-2.5 1.45-6.25.1-.6.25-1.25.7-3.15 1.3-5.65.65-3.05 1.15-5.1h.05l-.05-.05v-.05q.2-.9.35-1.55.2-.95.4-1.55v-.05q0-.15.05-.25.15-.75.2-.85l3.25-16.8.05-.05q0-.25-.1-.4-.1-.2-.3-.2-.2-.05-.3 0-.05 0-.05.05-.05 0-.1.05t-.1.2m81.8 53.1q5.828-.808 11.3-1.95-.15 0-.3.05-.95.05-1.9.15-.75.05-1.5.15-13.1 1.2-26.3 1.45-4.5.1-9 .1-17-.1-34.1-1.8-.65-.1-1.2-.15 5.808 1.176 11.85 2 11.28 1.525 23.45 1.85h.55v.1l1.4 12.2v-.4l.05.4 1.4-12.2v-.1h.05q.15 0 .35.05l5.2-.2q9.762-.455 18.7-1.7m30.1-53.2l-.05-.05q-.15-.05-.35 0-.2 0-.3.2-.1.15-.05.4l3.25 16.85q.1.2 1.05 4.3v.05q.45 2 1.1 4.95.55 2.4 1.2 5.4l.1.4q.25 1.2.5 2.25 1 3.35 1.35 5.75 1.05 4.3.3.1-.9-5.3-2.65-13.9-.4-2.15-.9-4.5L58.1 165.7v-.1q-.1-.2-.2-.25m2.25-34.1q-1.35 1.05-2.8 2.1l-1.55 1.15q-20.35 14.1-45.8 16l-1.1.05q-3.35.2-6.8.2h-.2q-3.45 0-6.8-.2l-1.1-.05q-25.45-1.9-45.8-16l-1.55-1.15q-1.45-1.05-2.8-2.1l-1.15-.9q10.019 8.81 21.45 14.1 17.928 7.84 37.75 7.85h.2q19.823-.01 37.75-7.85 11.45-5.3 21.45-14.05l-1.15.85z" id="SkiSki001__hdd_0_Layer0_0_FILL"/><filter id="SkiSki001__Filter_1" x="-20%" y="-20%" width="140%" height="140%" color-interpolation-filters="sRGB"><feColorMatrix in="SourceGraphic" values="1 0 0 0 0 0 1 0 0 0 0 0 1 0 0 0 0 0 0.75 0" result="result1"/></filter></defs><use xmlns:xlink="http://www.w3.org/1999/xlink" xlink:href="#SkiSki001__Symbol_10_0_Layer0_0_FILL" transform="translate(96.75 58)" id="SkiSki001__col1n"/><use xmlns:xlink="http://www.w3.org/1999/xlink" xlink:href="#SkiSki001__hll_0_Layer0_0_FILL" transform="matrix(1.00052 0 0 1 190.5 98.75)" id="SkiSki001__col1d"/><use filter="url(#SkiSki001__Filter_1)" xmlns:xlink="http://www.w3.org/1999/xlink" xlink:href="#SkiSki001__hdd_0_Layer0_0_FILL" transform="matrix(1.00052 0 0 1 190.5 98.75)" id="SkiSki001__col1s"/></g></g><g transform=""><g transform=""><defs><path fill="#FFFFFF" d="M60.9 5.4l2.35.1Q63.7 5.25 65 5q1.6-.3.45-1.6Q44.6-1.5 26.5.65l-1.1.1q-4.2.45-8.35 1.3-.6.1-5.4 1.05-4.8.95-8.75 2.85L0 7.2q9.3-2.1 16.65-3 4.55-.55 9.15-.85Q43.3 2.3 60.9 5.4m62.15-2.05q12.2.7 25.45 3.9-1.25-.9-2-1.25-4.15-1.7-13-3.65-2.2-.45-4.45-.8l-4.2-.65q-.45-.05-.85-.1-.95-.05-1.95-.1-18.65-1.95-37.8 2.7-4.15 1.5-1.5 1.85.95.1 1.3.1 1.4.45 4.05.1h.4q17.3-3.05 34.55-2.1z" id="LegSho004__Symbol_6_0_Layer0_0_FILL"/><path fill="#000000" d="M147 10.45l1.5-5.65H89.85Q86.6 1.35 82.2.4q-3.45-.8-7.65 0-.15 0-.3.05-.15-.05-.3-.05-4.2-.8-7.65 0-4.4.95-7.65 4.4H0l1.5 5.65h59.35q2.05-3.95 7.5-4.35l.7 4.35h4.35l.85-4.25.85 4.25h4.35l.7-4.35q5.45.4 7.5 4.35H147z" id="LegSho004__Symbol_7_0_Layer0_0_FILL"/></defs><use xmlns:xlink="http://www.w3.org/1999/xlink" xlink:href="#LegSho004__Symbol_6_0_Layer0_0_FILL" transform="translate(118 326.15)" id="LegSho004__col1n"/><use xmlns:xlink="http://www.w3.org/1999/xlink" xlink:href="#LegSho004__Symbol_7_0_Layer0_0_FILL" transform="translate(118.25 328.5)" id="LegSho004__col2n"/></g></g><g transform=""><g transform=""><defs><path fill="#FFF" d="M132.45 228.6q-.312.496-.65.95-1.14 1.615-2.25 3.25-.32.498-.65 1-3.891 5.983-7.15 12.6l-1.35 2.95q-1.634 3.683-3.1 7.6-.417 1.19-.85 2.4-.147.424-.3.85-.695 2.07-1.35 4.2-.29.945-.6 1.9l20.95 2.9.1.05q-.05.15-.05.35-.062.343-.15.7l-3.25 15.6.05.05-.95 3.9v.05l-2 8.1h127.15l-1.95-8-.1-.05q.086.023.1 0l.05.05-3.95-18.35.05.1-.55-2.25h.05l20.95-3.4q-.404-1.399-.85-2.8-.31-.982-.65-1.95-.25-.804-.55-1.6-.039-.175-.1-.35-.427-1.233-.9-2.45-.864-2.418-1.85-4.75-.378-.97-.8-1.95l-.6-1.3q-3.687-8.002-8.3-15.1l-.7-1q-.956-1.469-2-2.9l-.9-1.35-.75.6q-60.374 48.863-117.75.6l-1.55-1.2m53.6 67.4v-.05l.1.1-.1-.05z" id="ShiDre007__Layer21_0_FILL"/><path fill="#C2C2C2" d="M192.6 275.75l-.4-.5-.4-.5v23.1h1.5V276.8q-.25-.45-.5-.8-.1-.15-.2-.25m-2.95-14.8q-3.48 1.726-7.1 3.75l-6.4 4-6.4-7.9v-.05q-11.527-14.081-7.6-8.1 3.933 6.036 3.55 5.7-.344-.345-.5-.45l-.1-.1 10.6 13.25.05.05.1-.05 7.65-4.8q-.095-.206 4.8-3.65 4.885-3.382 1.35-1.65m8.6 2.85v.05l11.4 7.2.1.05.05-.05 11.2-14q.245-.824 3.55-6.15 3.305-5.276-6.7 7.25l-8.5 10.55-9.4-5.9-6.5-3q4.75 3.65 4.8 4m51.45 5.6l-.7-5.25 20.2-3.25q-.276-.834-.6-1.7l-21.05 3.6.65 4.85q.763 1.808 1.5 1.75m-133.6-9.45q-.265.785-.55 1.55l20.55 2.8-.85 4.9q.637.066 1.35-1.6l1-4.65-21.5-3z" id="ShiDre007__Layer21_1_FILL"/><path fill="#000000" d="M148.6 22.4q3.45-.25 4.2-2.45L139.55 2q-.25-.45-.6-1.1-.05-1.05-1-.9-.7.05-.9.5-1.5-.45-5.5 0-1.9.2-13.8 2.15-4.4.55-7.7 1.1-3 .55-4.55 1.05-.7-.05-1.65.1-3.35.35-4.3.6-.95.2-1.35.55-.35-.5-.75-.6h-3.6q-2.05-.75-5.15-.4-.95.1-1.6.3h-4.15v.05q-2.85.35-4.7.55H72.3q-1.8-.45-3.5 0l-1 .4q-.4-.75-2.25-.75-1.35 0-6.75.6-.25-.1-.5-.25-2.2-1-4.05-1.05-3.25.35-4.35.5-.4.05-.7.15-.4-.5-1.35-.65-3.05-.2-6.1-.5l-.35.05H38.35q-.2-.2-.5-.4-.4-.3-2.1-1h-2.9q-.2-.1-1.3-.4H28q-5.45-.45-7-.55-.15-.2-.4-.4-1.05-.75-3.1-.6-2.9-.4-3.6-.4-.5.05-.75.3-.3-.4-.7-.6-.95-.45-1.15.45L11.25.8.35 18.55q-1.3 2.8 1.95 2.95h.6q1-.05 2.4-.3-1.05 1.95-.85 3.35.85 6.75 30.15 1.75.3-.05.65-.1 3.25-.55 6.85-1.25l-.3.85q0 .45.25.8.8 1.25 4.65.15.65-.2 1.4-.45.55-.25 1.25-.5.3-.1.6-.15 1.3-.45 3.2-.3 3.15.15 7.8 1.7 1.4.45 2.9 1.05 3.2 1.25 7.5 1.5.2 0 .45.05 4.3.2 9.65-.55h.05q4.75-.7 7.2-1.45 2.4-.8 5.45-1.85 3.05-1.1 5.9-.5 2.8.55 3.5.7 1.8.35 3.3.6l1.2.2q6.15.9 6.1-.45 0-.3-.25-.65l-.35-.7q3.05.55 5.85 1l.5.1q17.15 2.55 23.5 1.3 4.65-.95 4.65-3.05-.05-.9-.85-1.95.45.05.85.05.25-.05.55-.05M91.9 7.1h.3q-.6.05-1.15.1.45-.1.85-.1M54.55 7q-.45 0-.85-.05.5-.05.95-.05-.05.05-.05.1h-.05M35.5 5.1l.1.05q-.19-.048-.3-.05h.2z" id="ShiDre007__Symbol_92_0_Layer0_0_FILL"/><path fill="#252525" d="M16.3 2.3h-.05q.35-.55 1.65-.5.1 0 .2.05-.15-.2-.4-.4-1.05-.75-3.1-.6-2.9-.4-3.6-.4-.5.05-.75.3.1.15.2.4-.1-.05-.15-.05.1.05.2.15.55.45.75 1.2.4 1.4-.55 3.75-.9 2.2-2.95 5.3-2.8 4.1-7.75 9.75 1-.05 2.4-.3l9.2-12.2-.05-.05 4.75-6.4m30 3q-.4-.5-1.35-.65-3.05-.2-6.1-.5l-.35.05H35.45q-.45 0-.7.4-.15.3-.2.55-.3-.05-.65-.1.35.1.65.25.35.1.7.3.45.25.8.6.95.9 1.3 2.5l.1.4q0 .15.05.35h.05v.45h-.05v.1q.05 1.2-.15 2.75-.05.05-.05.15l.05.05v.15q-.05.35-.05.65l-.1-.2q-.15.55-.3 1.15.1-.05.2-.05-.1.25-.15.45h-.05q-.05 0-.1.05-.05.15-.1.35-.05.05-.05.15-.15.5-.3 1.05-1.35 3.95-4 9.25 3.25-.55 6.85-1.25l7.35-18.3v-.3q0-.5-.25-.8m18.65 1.2q0-.2-.05-.4-.4-.75-2.25-.75-1.35 0-6.75.6-.25 0-.45.05h-2.8q-.5-.05-.8.4-.1.15-.1.25-.05.05-.05.1h-.05l-6.45 19.3q.55-.25 1.25-.5.3-.1.6-.15 1.3-.45 3.2-.3.1-3.85.8-6.85 2-8.5 9.05-9.8l5.1-1.1h-.85q0-.05.05-.05.55-.25.55-.8m30.35-.7q-.35-.5-.75-.6h-3.6q-2.05-.75-5.15-.4-.95.1-1.6.3-1.55.45-1.55 1.25 0 .55.55.8.6 0 1.25-.05l4.05 1q6.1 1.2 9.7 9.8 1.4 3.35 2.45 7.85 1.8.35 3.3.6l1.2.2-9.3-20.15q-.15 0-.25.05-.05-.2-.15-.35-.1-.15-.15-.3m-7.15 1.15q.45-.1.85-.1h.3q-.6.05-1.15.1m55.8 14.8l.3.4h.05q.45.05.85.05.25-.05.55-.05-1.35-1.6-2.55-3.1-3.45-4.2-5.6-7.5-.05-.1-.15-.2-1.95-2.95-2.8-5.15-.1-.2-.15-.4-.9-2.3-.6-3.75.1-.45.3-.8.15-.3.35-.5.05 0 .4-.1-.25-.25-.75-.4-1.5-.45-5.5 0-1.9.2-13.8 2.15-4.4.55-7.7 1.1-3 .55-4.55 1.05-1.75.6-1.75 1.15 0 .15.05.25h-.15l9.9 18.8q3.05.55 5.85 1-3.45-5.4-4.8-9.5-2.25-6.8 1.25-10.05 1.4-1.3 3.7-2 .55-.2 1.15-.35 3.85-.6 7.7-1.25l18.45 19.15z" id="ShiDre007__Symbol_55_0_Layer0_0_FILL"/><path fill="#FF8E8E" d="M121.6 1.6q0-.1.05-.2-.35-.45-.95-1.35l-6.25 4.65q-20.35 14.1-45.8 16l-5.85.2H60.65l-7.9-.25q-.2-.05-.3-.05l-1.15-.05q-.25-.05-.45-.05-.55-.05-1.05-.1-8.85-.95-17-3.35l-.6-.2q-.2-.05-.35-.1-.25-.05-.45-.1l-.6-.2q-12.7-4.1-23.85-11.8L.75 0H.7l.05.05H.7l-.7 1q.05.1.1.25.05.25.15.6.1.35.2.75.3 1.05 2.2 3.1.6.65 1.45 1.45 1.05 1.05 2.4 2.15 2.9 2.4 7.2 5.25 2.5 1.65 5.5 3.45 1.15.75 2.3 1.4l1.4.75-.25.1q-.3.15-1.25.85t-2 1.9q-2.05 2.3-2.3 5.8-.1 1.15 0 2.4v1.7q0 .55.2 1.7.3 1.15.25 1.4 0 .2 1.15 3.15.05.05.25.3.1.2.2.35 1.35 3.05 1.7 4.6.1.55.1.9 0 .85-.2 2.7l-.1.5q-.55 1.45-1.55 2.4-.5.45-1.05.75.45.1 1.05.3 1.25.25 2.1.35h.35q.4.05.95.05.6 0 1.3-.1 2.65-.05 4.7-1.35.95-.6 1.8-1.5 1.65-2.4 2.1-5 .1-.65.1-1.35-.15-1.8-.35-3-.15-.75-.3-1.3-.4-1.5-.65-2.25-.3-1.25-.3-2.15.05-1.85.4-3.05v-.05q.05-.35.4-.9.1-.25.3-.55.45-.8.9-.65.05 0 .1.05h.1q.05 0 .15.05v-.1l.05.05.1.1q.15.1.2.25 1.15 1.15 2.5 1.85.85.45 1.85.75.05 0 .1.05 3.65.65 6.5-.35h.05q1.1.1 1.8.55h.1l.05.05q.05 0 .05.05.15 0 .25.1.25.05.5.2.4.15.75.4.85.55 1.5 1.35l.1.1q.05.1.15.2l.2.3q.4.5.7.95.1.15.25.35.3.4.5.8l.2.4q0 .1.05.2 0 .05.05.1.05.1.1.25.15.35.35.75.1.35.25.75.05.1.1.25l.05.2q.75 1.45 1.6 2.1.05.05.15.1.05 0 .15.05.4.25 1 .55.35.15.65.3.55.3 1 .5.25.15.45.2.15.1.25.15l.35.3q.85.9 1.5 1.75h.05l.4.5.4.5q.1.1.2.25.25.35.5.8.2.3.35.6.15.25.25.5.45.75.95 1.7.55 1.05 1.2 2.4v.25l.15-.15q.3-.5.9-1.7.4-.9.65-1.65.2-.7.3-1.3l.15-5.6q.6-4.1.3-7.55-.05-.25-.05-.45v-.05l-.1-.7 5.9-1.1 1.5-.4q1.15-.25 2.25-.5.5-.1 1-.25.45-.1.85-.2.1-.05.15-.05.6-.2 1.15-.35l.5-.15q1.6-.45 3.1-.9 1.7-.5 3.3-1.05 1.15-.35 2.2-.75.45-.15.95-.35 9.45-4.5 15.8-8.65 5.7-3.75 8.9-7.25 1.35-1.45 1.15-2.85V9.7l.65-.45 4.4-4.3q.75-.9 1.15-1.8.05-.25.15-.45.15-.55.2-1.1z" id="ShiDre007__Symbol_31_0_Layer0_0_FILL"/><path fill="#FF5D5D" d="M27.95 16.95q.4-.15.9-.25.3-.1.65-.1-.3-.1-.55-.2L8.05 6.6l-3-2L3.5 3.45Q2.05 2.4.7 1.35L0 .85Q1.1 3.2 4.7 6.3q0 .05.05.05Q7.5 8.3 10.7 10.1q5.95 3.45 13.4 6.55.45.15.65.25-2.85 1-5.05 2.45l1.4.75q2.6-1.9 6.65-3.1.1 0 .2-.05m2.4-.1l-.1-.05h-.05q-.1-.05-.15-.05h-.1q-.2.1-.35.2l-.4.3q-.15.1-.4.3-.05.05-.1.15-.85.6-1 .7-.65.3-1.4 1-.4.35-.85.8-2.3 2.3-2.35 3.7 0 .65.6.65.25 0 2-.55.9.15 1.1.25.3.1.45.35.15.45.15.95 0 .4-.35 1.25-.05.05-.05.15l-.2.2q-.7.7-.8.85-.15.25-.25.45l-.2.3q-.5.85-.65 1.3-.2.55-.3 1.15-.1.35-.1.75-.05 2.05 1.55 2.55.15-.05.35-.1.4-.05.55-.25.3-.4.4-.5.25-.3.5-.75.3-.8.3-.85.05-.45.1-.85 0-.5.05-.9.05-.3.25-.55.3-.6 1.15-.8h.15q.1-.05.3-.05l.9.05h.25q-.1-.1-.15-.2-.1-.15-.2-.25l-.65-.85q0-.05-.05-.05v-.05q-.2-.25-.25-.55-1.1-2.05-1.2-4.45v-.15-.4q0-1 .25-1.95.25-1.4.95-2.65 0-.05.05-.1.05-.1.15-.2.05-.15.15-.25M49.1 21.2q.1.6.1 1.3-.05.9-.2 1.7-.15.9-.45 1.65-.15.45-.4.85-.5 1.1-1.3 2.05-.25.3-.55.6-.1.15-.25.25-.25.2-.5.45l-.4.3-.1.1q-.15.1-.25.2-.25.15-.45.35-.25.15-.55.3-.25.15-.5.25t-.5.25q1.1.1 1.8.55h.1l-.6-.3q1.4.4 1.45.45l1.25.3q1.2.3 2.2.85.95.5 1.25.75.25.2.9.3h.25q.25 0 .5-.05.3-.15.45-.4.2-.35.2-.9 0-.7-.65-1.1-.95-.65-1.5-1.45-.8-1.15-.9-1.3-.25-.35-.3-.75-.1-.3-.1-.6 0-.4.6-1.4.55-1.15 1.1-1.15 1 .05 2.3.9.75.5 1.4.7h.4q1.45.15.45-.95.1-.05-.55-.6-.7-.6-1-.95-.3-.35-.5-.6l-2.55-3.5-.45-.05q-.6-.05-1.25-.1v.1q.05.3.05.65m66.75-18.9q-.75.6-1.55 1.15l-4.65 3.2q-18.8 11.9-41.7 13.9h-.3q-.15 0-.3.05l-1.55.05q-3.1.2-6.3.2h-1.2q-2.1 0-4.2-.1l.2.1h.05q.1.05.3.1.15.1.4.2.55.35.9.6l.25.15-.15-.15q.2.15.5.3l.4.2q2.15 1.45 3.75 3.4.35.4.75.9.4.55.75 1.1.3.55.55 1.1l.1.2q.2.35.35.75.35.85.65 1.8.2.65.35 1.3.05.2.1.45.15.6.25 1.2l2.3-.4q.1-2.75-.8-5.15 1.75-.05 3.45-.15 6.6-.4 12.3-2.2 2.6-.85 6.8-2.4.45-.2.95-.35.4-.2.85-.35.1-.1.25-.2l1.5-.75q6.8-2.55 12.85-5.8 3.7-2 7.1-4.2 1.35-1.45 1.15-2.85-.4.35-7.05 3.95h-.05q-.3.2-.55.4-.3.2-.6.45-3.15 2.2-6.75 3.85-1.65.7-3.35 1.35l-.5.2-.6.3q-.3.15-.6.35-.05 0-.1.05-1.3.55-2.45 1.05-6.75 2.8-9.5 3.35-.1 0-.2.05-3.05.6-3.85.8-.35.05-.9.15h-.15q-.4.05-.85.1-.4.05-.85.1l-9.05 1.1q-1.35-2.4-3.8-4.4 4.5.1 8.65-.35 2.05-.3 4.05-.65.2-.05.45-.1t.55-.1q.45-.1.85-.15h.15q2.4-.5 4.75-1.05 7.45-1.75 14.1-4.35 1.65-.65 3.3-1.35.4-.2.8-.35 1.7-.8 3.45-1.65 2.25-1.15 4.4-2.4l1.8-1.1q2.6-1.65 5.05-3.45l5.95-4.3q0-.1.05-.2-.35-.45-.9-1.3l-1.85 1.35q-.6.5-1.25.95z" id="ShiDre007__Symbol_20_0_Layer0_0_FILL"/><path d="M132.35 290.1q-.15 0-.25-.05l-.85-.1-.3-.1q-.016.033-.05.05l-2.2 9q.194.048.35.05h-.35l1.95.55q1.05.2 1.55.3h-.1q2.25.45 4.55.9 8.8 1.65 17.6 2.75 3.108.371 6.25.75.209.11.4.2l.6.35q3.462 2.152 3.15 2.8-.6 1.115-1.85.8-1.45-.35-2.6-.6-1.212-.265-1.95-.05-.189.054-.45.15.003.013-.05 0-.573.21-1.45.6-1.067.546-1.35 1.3-2.861-1.144-6.15-.85h-1.85q-1.59-.048-3.2-.55.274-.158.5-.8.207-.617.2-1.1.004-1.064-.8-1.65-.514-.351-1.35-.4h-.1q-.639-.006-1.1.55-.457.536-.45 1.05-.022 1.296 1.7 2.2-1.074.174-3.2.5-2.814.393-3.3 2.55-.303-1.277-1.75-1.65-1.85-.5-1.85.85-.3.05-.6.25-.2.15-.45.35-.55.4-1.4.65-.5.15-.5.6v.15q0 .05.05.15.15.1.2.15.05 0 .4.2.3.15 1.3.1-.55 1-.55 1.15v.1q.05.05.05.2l.05.05q.15.2.15.35 0 .1-.05.3-.05.3-.2 1 0 .05.1.3t.15.45l.1.1q.4.3.4.7 0 .4-.7 1.05-.8.7-1.5.75-.15.15-.25.2.1.25.65.7.75.6 1.3.6 1.3 0 1.75-2.85.55-.05 1.05-.25.05.1.15.25.15.25.15.35 0 .05-.4.85-.45.85-.45 1.2t.3.8q.45.7 1.4.7.5 0 .75-.5.2-.35.2-.65l-.15-1.35q.1-.8.1-1.35-.05-.4-.15-.55 1.2-.2 2.45-.55v.5q-.1.15-.25.5-.05.1-.05.25v.05q-.2.3-.2.55-.35.45-.5.65-.45.8-.45 1.35 0 .35.35.65.5.3 1.25.3t.9-.55q.1-.25.1-.9l-.1-1q.65.25.8.8.1.35.4.9.45.75.9.75.6 0 1-.8.3-.6.3-1.05 0-.3-1.1-1.1-.85-.65-1.05-.8.25-.25.4-.75.25-.65.25-1.3 0-.3-.1-.45-.1-.3-.25-.5.1-.15.15-.2.25-.15.45-.25.4.45.85.45 1.6 0 1.6-1.5 0-.3-.15-.55-.35-.5-1.35-.7-.9-.2-1.25.2-.25.313-.25.8 0 .05.25.6-.2.1-.4.25-.25.2-.55.45-.5-.3-1.35-.45-.85-.25-1.35-.2-.2-.05-.25-.05-.15-.5-.45-.75-.25-.25-.25-.3-.15-.45-.25-.9-.07-.14-.15-.25.083-.015.1-.05.09-.047.1-.15.293-2.174 3-2.55 2.886-.444 3.85-.55h.05q.024.012.05 0v.05q1.912.655 3.8.7h1.85q3.222-.302 6 .8l.05.05v.15l.1 1.4q.01.523.45 1.1.504.65 1.1.7.385.045.6 0 .096.01.15 0 .765-.102.85-.65.151-.482-.35-1.35.016-.027 0-.05-.012-.056-.05-.1l-.05-.05q-.786-.748-2.35-1.4.24-.627 1.15-1.1.83-.34 1.4-.55.044.01.05 0v-.05q.261-.06.45-.1.662-.185 1.75.05 1.15.25 2.6.6 1.55.385 2.3-1 .542-.95-3.3-3.35-.109-.048-.25-.15l2.35.25q.5.05 1.05.1 1 .1 2.05.2 2.55.2 5.1.35 6.75.45 13.55.6h.5l13.8-.05q2.45-.1 4.95-.2 5.65-.25 11.4-.7l2.3-.2q1.3-.1 2.6-.25 1.8-.15 3.55-.35 6.75-.75 13.5-1.75 3.85-.6 7.7-1.25l6.3-1.2q1.75-.3 2.7-.65.06-.021 1.4-.4L254.1 290l-1.45.15q-3.4.45-5.9.95l-1.85.3q-.4.05-.75.15-4.1.65-8.2 1.25-15.703 2.263-32.7 2.95l-17.2.25q-.6-.05-1.2-.05-24.55-.55-48.7-5.05-1.6-.35-3.2-.65-.3-.05-.6-.15m9.95 14.7q.673.057 1.1.35.646.464.65 1.3-.007.417-.2.95-.182.556-.3.6-.087-.004-.15.05-.02.024-.05.05-.105-.004-.3.05-1.976-.89-2-2.15.007-.386.35-.8.339-.394.8-.4h.1m15.15 6.95q.047.088.05.15.286.544.2.85-.055.266-.45.3-.032.045-.1.05-.22.044-.6 0-.454-.05-.85-.55-.348-.458-.35-.85v-.05l-.1-1.35q1.396.609 2.1 1.3.037.083.1.15z" id="ShiDre007__Layer12_0_FILL"/><g id="ShiDre007__Layer12_1_FILL"><path fill="#BFBFBF" d="M197 303.4v-5.3l1.75-2.15-2.95 2.05v5.45l2.95 2.25-1.75-2.3m-10.15-7.45l.1.1 1.65 2.05v5.3l-1.75 2.3 2.95-2.25V298l-2.95-2.05z"/><path fill="#999" d="M186.85 295.15v.8l2.95 2.05v5.45l-2.95 2.25v.75h11.9v-.75l-2.95-2.25V298l2.95-2.05v-.8h-11.9z"/></g></defs><use xmlns:xlink="http://www.w3.org/1999/xlink" xlink:href="#ShiDre007__Layer21_0_FILL"/><use xmlns:xlink="http://www.w3.org/1999/xlink" xlink:href="#ShiDre007__Layer21_1_FILL"/><use xmlns:xlink="http://www.w3.org/1999/xlink" xlink:href="#ShiDre007__Symbol_92_0_Layer0_0_FILL" transform="translate(117.45 298.15)" id="ShiDre007__col1n"/><use xmlns:xlink="http://www.w3.org/1999/xlink" xlink:href="#ShiDre007__Symbol_55_0_Layer0_0_FILL" transform="translate(120.35 298.4)" id="ShiDre007__col1d"/><use xmlns:xlink="http://www.w3.org/1999/xlink" xlink:href="#ShiDre007__Symbol_31_0_Layer0_0_FILL" transform="translate(131.8 228.55)" id="ShiDre007__col2n"/><use xmlns:xlink="http://www.w3.org/1999/xlink" xlink:href="#ShiDre007__Symbol_20_0_Layer0_0_FILL" transform="translate(133.6 228.65)" id="ShiDre007__col2d"/><use xmlns:xlink="http://www.w3.org/1999/xlink" xlink:href="#ShiDre007__Layer12_0_FILL"/><use xmlns:xlink="http://www.w3.org/1999/xlink" xlink:href="#ShiDre007__Layer12_1_FILL"/></g></g><g transform=""><g transform=""><defs><path fill="#FFD3A8" d="M34.65 11q0-3.2-2.25-5.45-1.65-1.65-3.8-2.1-.3-.05-.55-.1-.25-.05-.5-.05-.15-.05-.35 0-.15-.05-.35 0h-.4q-.7.05-1.25.15-.15.05-.35.1Q20.7-.05 15.1 0 9.35-.05 5.2 3.65q-.05.05-.1.15-.2.1-.35.25-.05 0-.05.05l-.05.05-.2.2q-.25.25-.45.5-.05 0-.05.05l-.05.05-.3.3Q0 9.4 0 15q0 6.2 4.45 10.6Q8.85 30 15.1 30q2.9 0 5.4-.95.1-.05.2-.05.05-.05.15-.1h.05q.05-.05.15-.1.4-.15.75-.35l.8-.4q.1-.05.15-.1l.1-.05q1.5-.95 2.9-2.3 3.25-3.25 4.1-7.45.05-.05.1-.05l.3-.1q1.15-.55 2.15-1.55 2.25-2.25 2.25-5.45m135.6-6.85V4.1l-.05-.05q-.2-.15-.35-.25-.05-.1-.1-.15-4.2-3.7-9.9-3.65-5.65-.05-9.7 3.55-.2-.05-.35-.1-.4-.1-.8-.1l-.8-.05q-.2-.05-.35 0-.25-.05-.4 0-.25 0-.45.05h-.05q-.25.05-.45.1-2.2.45-3.85 2.1-2.3 2.25-2.3 5.45t2.3 5.45q.95 1 2.15 1.55l.3.1q.85 4.25 4.1 7.5 1.35 1.35 2.9 2.3.05 0 .1.05t.15.1q.35.2.75.4.35.2.75.35l.2.1h.05q.05.05.15.1.1 0 .2.05 2.5.95 5.4.95 6.25 0 10.65-4.4t4.45-10.6q-.05-5.6-3.65-9.75-.15-.15-.25-.3l-.1-.1q-.25-.25-.45-.5-.15-.1-.25-.2z" id="BodHan001__Symbol_2_0_Layer0_0_FILL"/><path fill="#F7BE86" d="M15.5 7.75q0-3.2-2.25-5.45Q11.6.65 9.45.2 9.15.15 8.9.1 8.65.05 8.4.05q-.15-.05-.35 0Q7.9 0 7.7.05h-.4Q6.6.1 6.05.2 5.9.25 5.7.3q-1.95.45-3.45 2Q0 4.55 0 7.75t2.25 5.45q1.7 1.7 3.95 2.1l1.5.15h.1l.75-.05q1.15-.1 2.15-.5.05-.05.1-.05l.3-.1q1.15-.55 2.15-1.55 2.25-2.25 2.25-5.45M12.45 3q1.95 1.95 1.95 4.75 0 2.75-1.95 4.7-.85.9-1.85 1.4-1 .45-2.05.55l-.75.05h-.1l-1.3-.15q-1.9-.4-3.35-1.85-2-1.95-1.95-4.7Q1.05 4.95 3.05 3q1.45-1.45 3.3-1.8.5-.1 1-.15H7.8q.4 0 .85.1 2.15.25 3.8 1.85m124.3 4.75q-.05-3.2-2.3-5.45-1.5-1.55-3.4-2H131q-.2-.05-.35-.1-.4-.1-.8-.1l-.8-.05q-.2-.05-.35 0-.25-.05-.4 0-.25 0-.45.05h-.05q-.25.05-.45.1-2.2.45-3.85 2.1-2.3 2.25-2.3 5.45t2.3 5.45q.95 1 2.15 1.55l.3.1q1 .4 2.25.55l.75.05h.1l1.5-.15q2.2-.4 3.9-2.1 2.25-2.25 2.3-5.45M133.7 3q1.95 1.95 1.95 4.75 0 2.75-1.95 4.7-1.45 1.45-3.35 1.85l-1.3.15h-.1l-.75-.05q-1.1-.1-2-.55-1.05-.5-1.95-1.4-1.95-1.95-1.9-4.7-.05-2.8 1.9-4.75 1.65-1.6 3.8-1.85h.05q.4-.1.85-.1H129.4q.5.05 1 .15 1.85.35 3.3 1.8z" id="BodHan001__Symbol_1_0_Layer0_0_FILL"/></defs><use xmlns:xlink="http://www.w3.org/1999/xlink" xlink:href="#BodHan001__Symbol_2_0_Layer0_0_FILL" transform="translate(105.05 280.6)" id="BodHan001__col1n"/><use xmlns:xlink="http://www.w3.org/1999/xlink" xlink:href="#BodHan001__Symbol_1_0_Layer0_0_FILL" transform="translate(124.2 283.85)" id="BodHan001__col1d"/></g></g><g transform=""><g transform=""><defs><path fill="#FFFFFF" d="M40.65 2.5L42 2.15 29.9 0H10.6L0 2.1l.65.4h-.1q2.15.85 4.85 1.65 1.9.45 3.75.95 3.25.8 6.4 1.1 2.2.25 4.2.25H21.45q2 0 4.2-.25 3.15-.3 6.4-1.1 1.85-.5 3.75-.95 2.7-.8 4.85-1.65z" id="FacMou032__Symbol_117_0_Layer0_0_FILL"/><path fill="#FF5D5D" d="M47.1 5.3q-2.5.3-5.9-1.35-3.45-1.75-6.7-3.2-3.15-1.6-6.55.2-1.35.75-2.5 1.2-1.9.9-3.8 0-1.15-.45-2.5-1.2-3.4-1.8-6.55-.2-3.25 1.45-6.7 3.2Q2.5 5.6 0 5.3q3.7 4.4 5.35 7.05 3.35 5.5 7.05 8.2 1.3 1 2.7 1.65.75.3 1.65.65 1 .3 1.95.55 4.85 1.45 9.75 0 .95-.25 1.9-.55.9-.35 1.65-.65 1.4-.65 2.7-1.65 3.7-2.7 7.05-8.2Q43.4 9.7 47.1 5.3m-5.55 1.15q1.4.2 2.05.3l-8.6 4.4H9.75L3.5 6.75q.65-.1 2.05-.3 2.2-.35 5.85-.65 3.7-.5 4.45-.5.9-.2 4.35.7l3.3.65h.1L26.9 6q3.45-.9 4.35-.7.75 0 4.45.5 3.65.3 5.85.65z" id="FacMou032__Symbol_57_0_Layer0_0_FILL"/><path fill="#830000" d="M212.55 216.35q-2.15.85-4.85 1.65-1.9.45-3.75.95-3.25.8-6.4 1.1-2.2.25-4.2.25H191.65q-2 0-4.2-.25-3.15-.3-6.4-1.1-1.85-.5-3.75-.95-2.7-.8-4.85-1.65 1.05 1.45 2.2 2.75 3.55 3.65 8.75 5.8 1.75.65 3.5 1.1 2.35.5 4.75.7H193.35q2.4-.2 4.75-.7 1.75-.45 3.5-1.1 5.2-2.15 8.75-5.8 1.15-1.3 2.2-2.75z" id="FacMou032__Layer5_0_FILL"/></defs><use xmlns:xlink="http://www.w3.org/1999/xlink" xlink:href="#FacMou032__Symbol_117_0_Layer0_0_FILL" transform="translate(171.9 213.85)" id="FacMou032__col2n"/><use xmlns:xlink="http://www.w3.org/1999/xlink" xlink:href="#FacMou032__Symbol_57_0_Layer0_0_FILL" transform="translate(168.95 209.6)" id="FacMou032__col1n"/><use xmlns:xlink="http://www.w3.org/1999/xlink" xlink:href="#FacMou032__Layer5_0_FILL"/></g></g><g transform=""><g transform=""><defs><path fill="#725849" d="M17.6 43.6q7.3 0 12.45-6.4 5.15-6.35 5.15-15.4T30.05 6.35Q24.9 0 17.6 0 10.3 0 5.15 6.35 0 12.75 0 21.8q0 9.05 5.15 15.4 5.15 6.4 12.45 6.4M97 21.8q0-9.05-5.15-15.45Q86.7 0 79.4 0q-7.3 0-12.45 6.35-5.15 6.4-5.15 15.45 0 9.05 5.15 15.4 5.15 6.4 12.45 6.4 7.3 0 12.45-6.4 1.35-1.65 2.3-3.45 2.75-5 2.85-11.4v-.55z" id="FacEye035__Symbol_78_0_Layer0_0_FILL"/><path fill="#876C5C" d="M20.15 4.1q-.65.5-.55.5l-.6.2q-3.9 2.35-8.75 1.95L9.7 6.7q-4-.4-7.2-3.6Q1.35 1.85.25.25L0 0v.15Q0 .2.05.3v.45q.7 5.8 4.4 8l.05-.05q.2.65 1.3 1.1.3.15.65.25.05 0 .15.05.95.25 1.95.35.85.05 1.9.05 1.9 0 3-.6h.05q-.05.05-.05.1 3.95-1.05 6.15-4.7l.05-.05q.15-.25.25-.5l.3-.6q.05-.1.05-.15l-.1.1M79.8 5.3l.05-.05q.15-.25.25-.5.2-.4.35-.85-.05.05-.05.1l-.05.05q-.05 0-.05.05-.6.5-.5.5l-.6.2q-3.9 2.35-8.8 1.95l-.55-.05q-4-.4-7.15-3.6-1.2-1.25-2.25-2.85L60.2 0v.15q0 .05.05.15v.45q.65 5.8 4.4 8 0-.05.05-.05.1.15.25.35.65.7 1.95.75-.1.1-.3.2.05.05.2.1.9.25 1.95.35v-.1q.15.05.35.05 2 0 3.65-.4.55-.15.95-.3-.05.15-.05.3 3.95-1.05 6.15-4.7z" id="FacEye035__Symbol_52_0_Layer0_0_FILL"/><path fill="#3E8AFD" d="M156.5 146q-.4.2-.75.5-.05 0-.05.05.4-.328.8-.55m18.45 5.65q-.05-.1-.1-.15 0 .05.05.15h.05m41.9-5.75l-.2.1q-.4.2-.75.5-.05 0-.05.05.493-.404 1-.65z" id="FacEye035__Layer5_0_FILL"/><path fill="#FFF" d="M179.95 146.7q-.907-.588-1.85-1.1-.31-.352-.65-.7-6.7-6.9-16.25-6.9t-16.3 6.9q-3.957 4.082-5.6 9.15v.05q-.04.04-.1.05-.04.09-.1.15l-.2.1q-1 3.25-1.25 8.6.1-.3 0 1.15-.15 1.85-.05 3.85.25 4 1.55 8.5.25.75.6 1.4 2.654 5.252 4.1 6.9 1.488 1.644 8.75 4.05 7.265 2.408 21.65-1.35.95-.8 2.1-2.1 1.4-1.45 2.95-3.9 1.2-1.95 2.45-4.5 2.35-4.75 3.05-9 .734-4.55.05-8.7.015-.059 0-.15-.6-3.65-1.8-6.8-.35-.9-.7-1.75-.45-.95-.95-1.9-.45-.8-.95-1.6l-.5-.4m-17.8-4.4q6.8 0 11.65 5.95 4.8 5.95 4.8 14.4 0 8.4-4.8 14.4-4.85 5.95-11.65 5.95-6.85 0-11.7-5.95-4.8-6-4.8-14.4 0-8.45 4.8-14.4 4.85-5.95 11.7-5.95m-5.2 30.75q-.05 0-.05.05l-.05.05q-.05.15-.05.35 0 .1.05.15 0 .1.05.2 0 .05.05.1.25.35.8.5.5.15 1-.05.05-.05.15-.1.35-.15.45-.5.15-.3.1-.55-.1-.15-.15-.3-.3-.4-.8-.55-.5-.15-.95.05-.5.2-.6.6m7.5-.85q-.1-.05-.25-.1-1-.2-1.85.15-1.05.4-1.3 1.25-.25.5-.1 1 .1.1.1.25.05.1.15.25.5.8 1.5 1.1 1 .2 1.9-.2.95-.4 1.25-1.2.05-.05.05-.15.05-.15.05-.25.05-.3-.05-.65l-.2-.5q-.5-.7-1.25-.95m-.05-24.2q-.95-1.55-2.3-2.25-.8-.45-1.75-.6-.25-.05-.55-.05-1.55-.1-3 .75-.113.037-.25.1l-.05.05q-.4.222-.8.55l-.75.8q-.35.4-.65.85-.15.2-.25.45-.4.75-.65 1.6-.15.5-.25 1.05-.5 3 1 5.4.05.1.15.25v.15q.65.9 1.45 1.45 1 .7 2.35.95.6.1 1.25.05 1.8-.1 3.4-1.45 2.15-1.8 2.6-4.8.1-.5.1-.9.1-2-.65-3.7l-.4-.7m40.7-1.3q-.3.2-.55.4-.5.8-.9 1.6-2.5 4.65-3.5 10.45-.65 4.2.05 8.85.75 4.25 3.1 9 2.85 5.75 5.4 8.4 1.15 1.3 2.1 2.1 14.29 4.94 28.55-1.1 3.25-3.1 5.95-8.5.3-.65.55-1.4 1.35-4.5 1.6-8.5.2-4.35-.6-8.2-.25-1.2-.6-2.35l-.85-3.65q-.15-.1-.25-.25-.3-.3-.6-.7-.12-.166-.25-.35-1.503-4.368-5.55-7.85-6.45-5.5-15.6-5.5-9.1 0-15.6 5.5-.862.742-1.6 1.5l-.85.55m27.45-1.35q.977.777 1.9 1.7.8.8 1.5 1.65 2.402 3.002 3.7 6.65 1.1 3.299 1.1 7.1 0 8.4-5.2 14.3-5.2 5.95-12.6 5.95-7.35 0-12.55-5.95-5.2-5.9-5.2-14.3t5.2-14.35q5.2-5.9 12.55-5.9 5.4 0 9.6 3.15M217.1 173.1l-.05.05q-.05.15-.05.35 0 .1.05.15 0 .1.05.2 0 .05.05.1.25.35.75.5.5.15 1.05-.05.05-.05.15-.1.35-.15.45-.5.15-.3.1-.55-.1-.15-.15-.3-.3-.4-.8-.55-.55-.15-1 .05-.45.2-.55.6-.05 0-.05.05m7.5-.9q-.1-.05-.25-.1-.95-.2-1.85.15-1 .4-1.25 1.25-.25.5-.1 1 .1.1.1.25.05.1.15.25.45.8 1.45 1.1 1.05.2 1.9-.2 1-.4 1.3-1.2.05-.05.05-.15.05-.15.05-.25.05-.3-.05-.65l-.2-.5q-.5-.7-1.3-.95m-4.1-27.05q-.25-.05-.55-.05-1.55-.1-2.95.75-.062.026-.15.05-.507.246-1 .65-.1.1-.15.2l-.65.7q-.3.35-.55.75-.15.2-.25.45-.6 1-.85 2.2-.05.2-.1.45-.45 3 1 5.4.1.1.2.25v.15q.65.9 1.4 1.45 1.05.7 2.35.95.65.1 1.3.05 1.8-.1 3.4-1.45 2.1-1.8 2.6-4.8.1-.5.1-.9.1-2-.7-3.7l-.4-.7q-.9-1.55-2.3-2.25-.75-.45-1.75-.6z" id="FacEye035__Layer5_1_FILL"/><path d="M210.85 188.55q3.3 1.3 4.45 1.6 7.75 2.05 17.8 0 8.15-1.3 6.5-3.9l-.45.35-.05.05-.05.05v-.05h.05q0-.1.15-.15 0-.05.1-.1-14.65 3.7-28.55 1.1-3.25-.2.05 1.05m-41.1 1.6q1.15-.3 4.6-1.7 3.45-1.4-.1-.95-13.9 2.6-28.6-1.1.1.05.1.1.15.05.2.15h.05v.05l-.05-.05-.1-.05-.4-.35q-1.65 2.6 6.45 3.9 10.1 2.05 17.85 0m1.75-46.25q-1.6-1-3.35-1.55-.35-.1-.65-.2.6.05 1.2.15 2.85.5 5.65 1.6 2.9 1.05 5.6 2.8l.5.4q1.1.7 2.2 1.6.65.5 1.3 1.1-.25-.55-.45-1.1-.65-1.35-1.45-2.55-.85-1.2-1.9-2.25-.25-.3-.55-.55-3.85-3.7-9.75-5.3-4.4-1.45-8.75-.9-2 .25-3.95.9-3.6 1.05-6 2.25-2.35 1.2-4.3 2.25l-.2.1q-.35.15-.75.3-.7.3-1.5.6-3.45 1.2-8.9 2.65 2.8 1.85 4.55.95-.95.85-1.85 1.55v.05q-4.2 2.4-7.15 3 3.25 1.05 4.8 0-.95 2.6-5.35 4.2 5.8.2 8.4-1.55l.2-.1.2-.2q.2-.15.35-.3l.25-.25q.3-.35.6-.75 1.65-2.3 4.35-4.1 2.45-2.2 5.75-3.9h.05q.15-.05.3-.15.85-.3 1.65-.6l.2-.1 1.7-.5q-3.45 1.8-6.05 5.4-.15.15-.25.3-3.2 4.5-3.9 10 0 .1-.05.25-.2 1.35-.35 2.8-.15 1.75-.1 3.45.05 1.2.2 2.35.6 3.6 2.45 6.75.7 1.1 1.5 2.15 2.35 2.95 5.35 4.6 8.65 4.65 17.7 0 2.8-1.6 5.05-4.45 1.75-2.2 2.8-4.65 1-2.1 1.5-4.4.3-1.45.45-3 .05-.75.05-1.45.05-1.75-.05-3.4-.55-6.2-4.05-11.15l-.2-.3q-1.85-2.5-4-4.1-.55-.4-1.05-.7m-9.4 1.85q1.35.7 2.3 2.25l.4.7q.75 1.7.65 3.7 0 .4-.1.9-.45 3-2.6 4.8-1.6 1.35-3.4 1.45-.65.05-1.25-.05-1.35-.25-2.35-.95-.8-.55-1.45-1.45.2 4.25 3.15 7.35 3.2 3.3 7.6 3.3 4.45 0 7.6-3.3 3.15-3.3 3.15-7.9v-.1q0-1.8-.45-3.35-.15-.75-.4-1.5-.05-.1-.05-.15.45.7.85 1.5.8 1.65 1.3 3.5.65 2.55.65 5.4 0 7.1-4.1 12.25-2.2 3.1-5.35 4.5-1.9.9-4.15 1.1-5.95.55-10.8-3.8-3.7-3.3-5.05-7.95-.45-1.6-.6-3.4-.9-7.5 2.7-13.2 1-1.55 2.15-2.7.4-.4.85-.75 1.1-.95 2.35-1.55.55-.3 1.15-.55l-.3.15q.137-.063.25-.1 1.45-.85 3-.75.3 0 .55.05.95.15 1.75.6m12.75 5.75q.05.05.1.15h-.05q-.05-.1-.05-.15m29.7-4.4q.25-.2.55-.4 2.7-1.75 5.6-2.8 3.3-1.35 6.8-1.75-5.3 1.5-8.95 6.55-.15.15-.25.3-4.45 6.3-4.1 14.55 0 .7.05 1.45.15 1.55.4 3 1.4 6.2 6.35 10.65 5.95 5.45 13.55 4.85 7.65-.45 12.5-6.6 3.2-4 4-8.9.15-1.15.2-2.35.05-1.7-.1-3.45-.15-1.55-.4-3.05-1.2-5.95-4.8-10.45-.7-.85-1.5-1.65-1.25-1.25-2.55-2.25-1.6-1.15-3.3-1.9 1.8.45 3.65 1.05.85.35 1.85.7.15.1.3.15h.05q3.3 1.7 5.75 3.9 2.65 1.8 4.35 4.15.3.4.6.7.1.15.25.25l.3.3q2.6 2.05 8.8 1.85-4.4-1.6-5.3-4.15 1.55 1.05 4.8-.05-3-.6-7.1-3.05-.95-.7-1.9-1.55 1.75.9 4.55-.95-7.45-2-11.15-3.55l-.2-.1q-1.95-1.05-4.3-2.25-2.4-1.2-6-2.25-6.35-2.1-12.7 0-8 2.15-12.2 8.1-.8 1.2-1.4 2.55l-.5 1.1q.65-.6 1.3-1.1 1.05-.9 2.15-1.6m15.95-1.95q1 .15 1.75.6 1.4.7 2.3 2.25l.4.7q.8 1.7.7 3.7 0 .4-.1.9-.5 3-2.6 4.8-1.6 1.35-3.4 1.45-.65.05-1.3-.05-1.3-.25-2.35-.95-.75-.55-1.4-1.45.2 4.25 3.1 7.35 3.2 3.3 7.65 3.3t7.55-3.3q3.2-3.3 3.2-7.9 0-1.85-.5-3.45-.15-.75-.4-1.5-.05-.1-.05-.15 2.8 4.55 2.8 10.4 0 7.1-4.05 12.25-2.25 3.1-5.4 4.5-1.9.9-4.15 1.1-5.95.55-10.8-3.8-3.7-3.3-5-7.95-.45-1.6-.65-3.4-.9-7.5 2.75-13.2.15-.25.35-.5.85-1.25 1.8-2.2 1.45-1.45 3.15-2.3.55-.3 1.2-.55l-.2.1q.088-.024.15-.05 1.4-.85 2.95-.75.3 0 .55.05z" id="FacEye035__Layer5_2_FILL"/></defs><use xmlns:xlink="http://www.w3.org/1999/xlink" xlink:href="#FacEye035__Symbol_78_0_Layer0_0_FILL" transform="translate(144.2 139.4)" id="FacEye035__col1n"/><use xmlns:xlink="http://www.w3.org/1999/xlink" xlink:href="#FacEye035__Symbol_52_0_Layer0_0_FILL" transform="translate(152.5 164.3)" id="FacEye035__col1l"/><use xmlns:xlink="http://www.w3.org/1999/xlink" xlink:href="#FacEye035__Layer5_0_FILL"/><use xmlns:xlink="http://www.w3.org/1999/xlink" xlink:href="#FacEye035__Layer5_1_FILL"/><use xmlns:xlink="http://www.w3.org/1999/xlink" xlink:href="#FacEye035__Layer5_2_FILL"/></g></g><g transform=""><g transform=""><defs><path fill="#463329" d="M13.25 173.65q-.2.1-.35.15.05.3.15.55l.2-.7m16.9-82.25q1.5-.55 10.2-5.7T55.6 72.2q-2.25 1.7-7.1 5.6-4.9 3.85-12.6 6.9-7.75 3.05-8.4 3.3-12.2 5.15-15.3 6.7-2.6 1.25-4.9 2.6-2.4 1.4-4.5 2.9l-.9.8q-.05.1-.05.2H1.7q-.55 1.45-.8 2.1-.35.85-.8 2.2l-.1.3v.05q.15-.05.35-.15 1.4-.7 2.4-1.25v-.05q.35-.2.65-.35 11.65-6.65 20.4-10.1 2.4-1 3.85-1.55 1-.45 2.5-1m15-54.65q0-2.55.65-6.2v-.15q-3.7 7-3.7 14.65 0 5.5 1.75 11.2.05.25.15.5v.05l.05.05q.45-.25.95-.45 5.95-2.95 13.25-5.95.6-.25 1.25-.5 4.3-1.75 8.55-3.3 8.05-1.75 12.65-.55 4.55 1.15 8.1 3.2-5.95-5.2-11.75-5.75-5.85-.55-7.2-2.4-1.35-1.85-.9-4.5.45-2.7 1.8-6 1.25-3.3 1.95-4.2-5.1 3.15-9.25 7.25-4.2 4.05-4.85 11.85-2.7-5.05-.55-11.05 0-.05 1.15-3.4 1.1-3.35 3.15-5.3-6.35 3.95-9.15 7.55-5.3 6.5-4.55 11.7-1.75-1.5-2.65-3.6-.9-2.1-.85-4.7M92.15 0Q85.1 0 82.4.55q-2.75.5-3.6.8-.4.1-.8.1-1.85 2.65-1.85 6.05 0 4.2 1 5v.65Q77.7 4.05 92.1.05q0-.048.05-.05m58.95 19h.05q-3-2-5.05-2.65-.2-.05-.35-.1h-.1q-.55-.15-1.1-.2-2.15-.4-5.8-.6-3.25-.15-7.45 1.3-.7.2-1.4.5-.05 0-.1.05-2.1.6-4 1.6-.65-1.25-1.1-2.05-.15-.35-.3-.6-.135-.337-.25-.65l.1.3q-1-1.85-1.7-2.9l-.2-.3q-.25-.4-.5-.75-2.5-3.5-5.85-5.05-2.85-1.4-6.35-1.4-6.1 0-12.5 2.95-6.35 2.9-8.4 7.85 4.1-4.7 9.25-6.15 5.3-1.5 8.6-.75 3.25.7 5.05 2.2 1.75 1.45 5.7 7.3-3.85-1.45-8.05-.95-4.25.5-11.15 4.9 5.45-2.65 8.5-2.5 12.8.45 17.6 5.4 4.75 4.85 5.95 6.8.5.85.95 1.75 1.7 3.6 1.7 7.3v.2q0 .6-.05 1.2l-.1.4q-.05.35-.15.75l.05.05q-1.7 8.55-12.5 9.95h-1.75q-7.15 0-11-4.05-3.9-4.05-5.4-6.8-1.25-2.25-1.35-3.05-.15 3.9 3.1 8.35.4 1 2.85 3.05t6.15 3.75q3.65 1.7 14 2.15.85.1 4.3.45 4.75.4 4.9.45h2.15q1.05.05 1.85.3h.1q.15-.6.35-1.2.45-1.9.7-3.7.35-2.35.35-4.45.15-3.75-.55-7.55-.05-.4-.15-.85-.05-.25-.1-.45.35-.4.75-.75 0-.05.05-.05l1.45-1.1q2.6-1.6 7.25-2.85-.6-.45-1.15-.65-4.15-2.1-7.25-2.15-3.05-.1-4 .25h-.05q.5-1.95 1.75-3.45.7-.85 1.65-1.55 1.55-1.1 4.85-2.75l.2-.1 1.35-.55q-3.1-1.15-6.3-1-2.55.1-4.2.75-.35.05-.65.1 1.1-1.35 3.9-2.7l.3-.1q.15-.1.4-.2l.25-.1.2-.1q.35-.2.75-.35 4.65-1.95 9-2.15m13.4 86.85q2.45 3.8 3.95 6.7.95 1.4 1.75 2.95 2.5 4.65 8.85 15.9.25.45.45.9l2.7 5.2q.8 1.55 1.1 1.9l.1-.15-.1-.3q-.35-1.15-1.6-4.35-3.25-8.1-7.7-18.4-4.5-10.4-11.1-18.15-7.4-8.75-16.45-12.5-.65-.25-1.25-.5-4.85-2.55-9.6-4.35-4-1.45-6.65-1.95 5 2.35 8.5 4.2 1.45.85 2.8 1.75 8.45 4.8 14.45 9.25 3.9 2.85 9.8 11.9z" id="HaiSpe059__Symbol_122_0_Layer0_0_FILL"/><g id="HaiSpe059__Symbol_191_0_Layer0_0_FILL" fill="#725849"><path d="M41.25 173.8q.05.3.15.55l.2-.7q-.2.1-.35.15M169.5 23.85q-2.55.1-4.2.75-.35.05-.65.1 1.1-1.35 3.9-2.7l.3-.1q.15-.1.4-.2l.25-.1.2-.1q.35-.2.75-.35 4.65-1.95 9-2.15h.05q-3-2-5.05-2.65-.2-.05-.35-.1h-.1q-.55-.15-1.1-.2-2.15-.4-5.8-.6-3.25-.15-7.45 1.3-.7.2-1.4.5-.05 0-.1.05-2.1.6-4 1.6-.65-1.25-1.1-2.05-.15-.35-.3-.6-.2-.5-.35-.95-.7-1.65-1.5-3.05-4.65-8.5-13.55-10.8-8.45-1.6-16.9-1.4 0-.048.05-.05-7.05 0-9.75.55-2.75.5-3.6.8-.4.1-.8.1-.55.1-1.15.25-2.55.9-4.65 2.3-2.7 1.85-5.6 8.1-.4.85-.8 1.55-.05.35-1.05 1.05-1.05.7-3.9 1.05-8.35 2.25-14.95 14.6l-.05.05q-.047.047-.05.15v-.15q-3.7 7-3.7 14.65 0 5.5 1.75 11.2.05.25.15.5v.05q-1 .5-2.05.95-1.05.45-2.85 1.25l.3-.2Q39.9 73.8 34.3 89.55q-2.6 7.25-3.6 10-.35.95-.65 1.65-.55 1.45-.8 2.1-.35.85-.8 2.2l-.1.3v.05l-.05.05q-2.6 1.6-4.25 2.8-12.65 7.8-18.3 21.6l-.15.35Q3 136.25 2.1 143q-.35 2.35-.45 4.9-.05.75-.05 1.5.25 10.1 5.7 15.85 3.4 3.6 3.95 4.4 1.6 2.4 1.8 5.8v.8q0 10.35-8 10.35-3.15 0-5.05-.85l1.7 3.05q.25.3.55.6 4.7 3.3 9.35 2.25 8.55-1.85 9.9-10 .05-.75.05-1.55 0-2.5-.6-4.65-1.25-4.3-4.9-7.45-.6-.5-1.05-.95-9.45-7.5-3.65-23.15.55-1.8 1.35-3.5.4-.85.85-1.7 1-1.75 2.3-3.4 0-.1.1-.15v-.05q1.2-2.1 3.35-4 7.1-7.45 17.75-9.7l.8-.15q18.9-1.5 30.95-3.5 30.45-3.35 45.7-33.6l-.7.95q1.25-1.8 2.3-3.45 1.45 2.4 2.15 3.4 4.65 6.25 17.25 15 15.35 10.8 25.25 12.75 6 1.2 11.35 2.6 4.45 1.9 9.25 3.9 5 2.1 9.55 6.8 8.35 8.6 15.05 25.9 6.3 13.6 15.8 17.1 5 2.15 10.5 2.15h.55q9.65-.15 13.85-4.65 2.55-2.75 2.55-6.25 0-5.1-8.65-8.35l-.1.1q1.2.75 2 2 .75 1.15 1.25 2.2 1 2.05 1 3.75 0 1.5-1.6 3.25-2.15 2.3-5.8 2.3-2.35 0-4.5-.35-4.05-.75-7.45-2.8-2.75-1.65-5.05-4.2l-.15-.15q-5.7-7-6.55-21.05-.4-14.55-6.9-33.3-12.25-40.6-38.35-45 .15-.6.35-1.2.45-1.9.7-3.7.35-2.35.35-4.45.15-3.75-.55-7.55-.05-.4-.15-.85-.05-.25-.1-.45.35-.4.75-.75 0-.05.05-.05l1.45-1.1q2.6-1.6 7.25-2.85-.6-.45-1.15-.65-4.15-2.1-7.25-2.15-3.05-.1-4 .25H166q.5-1.95 1.75-3.45.7-.85 1.65-1.55 1.55-1.1 4.85-2.75l.2-.1 1.35-.55q-3.1-1.15-6.3-1z"/><path d="M240.55 152q-.2-.05-.35-.05.15.05.25.15l.1-.1z"/></g></defs><use xmlns:xlink="http://www.w3.org/1999/xlink" xlink:href="#HaiSpe059__Symbol_191_0_Layer0_0_FILL" transform="translate(75.15 11.55)" id="HaiSpe059__col1n"/><use xmlns:xlink="http://www.w3.org/1999/xlink" xlink:href="#HaiSpe059__Symbol_122_0_Layer0_0_FILL" transform="translate(103.5 11.55)" id="HaiSpe059__col1d"/></g></g><g transform=""><g transform=""><defs><path fill="#000000" d="M0 11.6Q18.2-5.35 39.5 6.55V5.3Q19.5-7.1 0 9.5v2.1m96.75 0V9.5q-19.5-16.6-39.5-4.2v1.25q21.3-11.9 39.5 5.05z" id="FacBro010__Symbol_10_0_Layer0_0_FILL"/></defs><use xmlns:xlink="http://www.w3.org/1999/xlink" xlink:href="#FacBro010__Symbol_10_0_Layer0_0_FILL" transform="translate(144.15 121.9)" id="FacBro010__col1n"/></g></g><g transform=""><g transform=""><defs><path fill="#AF6F00" d="M82.4 297.65l2.2 2.45-.05.05q.05 0 .15.05.35.05.75.2.65.25 1.25.6-1.7-1.3-2.6-2.8h.1l.2-.9.05-.05.1-.55-2.15.95m12.9 4.1q1.05-.3 5.3-1.25-7.5.15-12.65 1.3.25.15.45.35.6.5 1.5 1.35l.05.05q2.85-1.15 5.35-1.8m10.45 5.7q1.15.3 2.35.3 2.2 0 3.8-1.25l-6.15.95m24.4-9.15l-2.95.2q-.6.95-1.05 1.6-.95 1.4-2.2 2.45l.4-.1q1.6-.35 3.5-2 .05-.1.15-.15.85-.75 2.15-2m15.5-6.35h2q3.2.05 4.3-.15h.05q.05-.05.2-.05.4-.2.8-.6.1-.15.2-.25l-2.4-1.35q-.8.85-1.6 1.45-.95-.1-1.65-.35l-.25.25q-.75.6-1.65 1.05M145 283q.45-.75 1.05-1.55l-1.45.45-.95 3.05q.55-.75 1.2-1.75.05-.1.15-.2m-21-3l-1 1.2 2 1.15.6-.9q.6-.9 1.25-1.85l-2.85.4m-26.6 11.3l-2.55 1 4-.2-1.4-.8h-.05z" id="ObjFoo053__Layer9_0_MEMBER_0_FILL"/><path fill="#FFE112" d="M157.85 289.9q.4-.35.5-.6.05-.15.05-.6 0-1.6-2.35-2.4-1.38-.46-2-.35l-.25-.15q-.036.048-.1.1-.524.733-.9 1.25-.65.9-1.3 1.65l2.4.95q.037-.074.05-.15l.15.05q.3.1 1.65.25h2.1m-1.7-2h.15l.05.05-.2-.05m1.4-12.55l-.15-.35q-1.8-.7-4.95-.85-2.7.25-5.85 1.4-.047 0-.1.05h.05l-.8 2.7q6.5-2.15 11.8-2.95m-29.25 21.3v-.35h-3q-2.3.15-6.5.9-9.25 1.7-9.65 1.75-6.95 1.15-8.55 1.55-4.25.95-5.3 1.25-2.5.65-5.35 1.8.05.048.1.1-.65.25-.65 1 0 .8.95 1.35.6.4 2.25.9h2.1q.25-.05 4.4-.5 1.9-.222 2.6-.7.062-.114.2-.15.043-.022.05-.05-.018-.025-.05-.05l.1-.05 12.55-2.05q1.6-1.8 3.35-1.8.95 0 2.35.5l.7.2q.06-.032.1-.1.275-.11.5-.25 2.955-1.627 4.95-3.35.8-.75 1.5-1.5l.3-.4m-6.3-22.2q.098.098 0 .35-.094.305-.95 1.25-.856.945.45 1 1.352.102 1.3.35l1.4-2.45q-1.3-.3-1.8-.4-.35-.1-.4-.1m-3.7 14q.356.854.4 1.25 9.75-5.35 20.1-8.1l-.95-2.55-.05.05-2.15.6h-.05l-2.2.6.8-.2q-.45.15-.85.25-1.75.5-3.4 1.1h-.05q4.7-7.65 9.8-13.95l-.05-.05q.05 0 .05-.05.1-.1.25-.2 0-.1.1-.15-.1-.3-.15-.55-.1-.05-.15-.05-.2-.05-.4-.05-.85 0-2.75 1.2-.35.2-.65.45-1.45.95-2.25 1.95-.464.572-.9 1.15-1.859.756-6.4 3.2l-.85.95h.05l-.95 1.5 4.55-.55q-.45.6-.95 1.35-.5.65-1 1.4l-.4.6q-.65.95-1.25 1.85l-.6.9q-.6.8-1.2 1.65-2.15 1.05-4.2 2.3-1.606 1.296-1.3 2.15m-4.45-4.7l-.45.55q-1.9.052-1.65.85.3.848.05 1.45-.25.65-1.1 2-.536 2.727 2.7 1.5h.05l6.95-9.35q-.5.35-.95.6-.3.1-.55.2l-.05.05q-.852.255-.25-1.15.605-1.415-1.5.35-2.107 1.82-3.25 2.95m6.2-11.05l-.3-.15q-.573 2.003 2.1 1.7l.1-.05 7.5-5.8q-2.627-1.183-5.95.6l-4.45 3.15q.35.15.75.4.1.05.25.15m-19.9 11.55q-.218-1.448-2.3-.9-2.044.6-2.1.6l-8.25 3.8h-.05v.05q-.3.1-.55.25-.45.2-.85.45-.1 0-.2.05-.4.15-1.9.8-.1 0-.15.05-.2.05-.4.15-.75.25-1.3.6-.3.1-.55.25-1.35.6-1.5.7-.1.105-.1 1 0 1.05.3 2.15.05.25.15.55.4 1.25.7 1.25.05 0 .4-.05.25-.1 3.6-1.7l-.65 2.95-.05.05-.2.9q24.8-2 49.3-3.05 1.35-.9 3.45-1.7l-.05-1.95q1.85-.35 4.4-.85 2.3-.45 4.15-1.4.75-.4 1.45-.85 2.05-1.45 2.5-2.85v-.25q-.9.1-1.9.2l3.65-5.6v-.05q.05-.05.1-.05 0-.05-.05-.05l-.2-.1q-.048-.048-.15-.05-.35-.1-.9-.1-.35 0-.65.05-.7 0-1.25.1h-.5q-.2.05-.4.25l-.7.9q-.15.25-.3.45l-.1.2q-.6.8-1.05 1.55-.1.1-.15.2-.65 1-1.2 1.75-.3.35-.55.7-.15.1-.25.25-.1.05-.15.15h-.1l-.7.1-.6.05 6.05-18.55v-.05q-1.2.9-2.25 1.75-2.05 1.75-2.65 3.25-.1.2-.15.45-.15.25-.2.5-.55 1.25-.8 2.05-.25-.25-.5-.45-1.1-.9-1.85-1.45-.2.35-.45.7-.75 1.1-1.4 2.05 1.3.45 3.1 2.3v.05q-.05.05-.05.1l-.2.5v.1l-1.05 2.25-.05.05-.25 3.75q-6.25 2-12.05 4.8l-8.45.55q-4.629 1.187-7.3 1.95-1.293-.119-3-.15h-.1q-5.098-.095-5.7-.8l-13.5.9q2.35-.85 3.95-1.65 1.1-.55 2.5-1.15 2-.95 4.65-1.95-.156-.35.3-1.35.468-1.002.25-2.45m-8.55-3.7q-.05-.35-.05-.55.05-.15.25-.3l-1.8-1.55-1.35.45q-1.7.65-4.2 1.95.05.3.85 1.4.75 1 1.05 1.2L72.4 283l-1.5 3.05q9.35.8 17 .2 2.96-2.282 1.35-3.25-.1.1-.25.15-.35.05-.8 0h-1.75q.05-.1.1-.1l2.5-1.05q.35-.2 1.1-.4 1.55-.65 1.45-1.05m6.45-2.6q.368-.343.4-1.3l-3.15-2.85h-.15l-1.8-1.35-4.1.25-.1.15 6.45 4.55q2.082.943 2.45.55m9.55-10.85l-.75-.2q-3.25-.2-5.35 3.4-1 .85-2.3 5.65l-.25.55q.05-.05.15-.05.345-.148.55 0 .214.144.85.45.632.309 2.6-2.3 2.4-5.9 4.5-7.5z" id="ObjFoo053__Layer9_0_MEMBER_1_FILL"/><path fill="#C40000" d="M32.3 1.65h.05q-.4-.25-.75-.4Q29.25 0 26.45 0h-.15q-1.6 0-3 .2h-.1q-.05 0-.1.05-.4.05-.7.1-1.1.2-2 .5-.2.05-.4.15-.1 0-.15.05-.4.15-.8.35-1.15.55-2.3 1.4-.1.05-.2.15-.35.25-.7.55l-.2.2q-.95.65-2.6 1.35-.35.1-.65.2-.4.15-.75.3-.1 0-.15.05-.1 0-.15.05h-.05l-.3.1q-.85.25-1.4.35-.75.15-1.45.4-1.8.6-3.25 1.8-.3.25-.55.5-.2.15-.35.3-.2.2-.35.4-.5.55-.95 1.2-.4.5-.7 1.1l-.2.3Q1 13.55.45 15.35q-.2.55-.35 1.15-.05.15-.1.35h.05l8.25-3.8q.05 0 .1.05 1.4.65 2.6 2.2.4.55.8 1.25.2.25.35.6.2.3.35.65.85 1.85 2.05 3.2.6.7 1.3 1.25Q18.5 24.4 22 24.4q4.05 0 6.75-2.25 1.1-1 1.9-2.15.35-.6.6-1.2.25-.5.4-1.05.3-1.55.5-2.35.1-.55.2-.8.35-.65.65-1.35l-3.5 4.45-3.5 1.5h-.05q-2.25-.35-2.7-1.5l1.45-2.3q.15-.25.35-.5.65-1.1.9-1.5.1-.2.2-.3.1-.15.25-.25.35-.3 1.05-.65.9-.5 2.4-1 .7-.25 1.55-.5l.05-.05q.25-.1.55-.2.45-.25.95-.6l.5-.5.5-.5q.55-.6.9-1.15.4-.65.5-1.2.05-.25.05-.5 0-.85-.35-1.6-.15-.35-.35-.6-.05-.15-.15-.25-.05-.1-.15-.15v-.05q-.6-.7-2.1-1.7z" id="ObjFoo053__Symbol_108_0_Layer0_0_FILL"/><path fill="#830000" d="M5.6 7.95q-1.2 0-1.9.85-.75 1.2-1.35 1.75-.3.3-1.5.95-.35.2-.75.6-.05.15-.1.35h.05l8.25-3.8q-.95-.3-1.55-.55-.3-.15-1.15-.15M32.15 11q.1-.55.2-.8.35-.65.65-1.35l-3.5 4.45-1.7.7q-.3 1.55-2.1 2.55-2 1.05-5.15 1.05-2.5 0-4.3-1.35l-2.6-2.5q-.85-.8-1.85-1.6.2.25.35.6.2.3.35.65.85 1.85 2.05 3.2.6.7 1.3 1.25Q18.5 20 22 20q4.05 0 6.75-2.25 1.1-1 1.9-2.15.35-.6.6-1.2.25-.5.4-1.05.3-1.55.5-2.35m3.2-8.9q.05-.25.05-.5 0-.85-.35-1.6v.4q0 2.85-3.1 4.4-.4.2-2 .5-2.7.6-3.25.7-1.8.35-3 1.4-1.2.95-1.2 2.1 0 1.5 1.55 1.5h.65q.15-.25.35-.5.65-1.1.9-1.5.1-.2.2-.3.1-.15.25-.25.35-.3 1.05-.65.9-.5 2.4-1 .7-.25 1.55-.5l.05-.05q.25-.1.55-.2.45-.25.95-.6l.5-.5.5-.5q.55-.6.9-1.15.4-.65.5-1.2z" id="ObjFoo053__Symbol_109_0_Layer0_0_FILL"/><path fill="#FFFF62" d="M21.55 6.75q.05-.1.15-.2.6-.85 1.25-1.65.8-1 2.25-1.95-.55-.6-1.35-1.15-1.6-1.1-3.4-1.55Q19.35 0 18.2 0q-1.85 0-2.95.9-1.25 1-3.8 1.2-2.1.05-3.35.05-2.3.1-4.05.5-1.4.3-2.8 1.7v.05Q.2 5.35 0 6q1.4-.2 3-.2h.15q2.8 0 5.15 1.25l4.45-3.15q3.15-1.35 5.95-.6l.2-.05 1.6 1.4-4.85 4.6 4.5-.4q.35-.5.85-1.3.25-.4.55-.8z" id="ObjFoo053__Symbol_110_0_Layer0_0_FILL"/><path fill="#FFEE00" d="M9.3 5.45L6.8 4.7q-.45-.15-1.75-.35Q1.7 3.8 1.7 4.1h.2l-.65.05Q.2 5.1 0 5.75q1.4-.2 3-.2h.15q2.8 0 5.15 1.25L10 5.65l-.7-.2M21.55 6.5q.05-.1.15-.2.6-.85 1.25-1.65.8-1 2.25-1.95-.55-.6-1.35-1.15-1.6-1.1-3.4-1.55.5.3.9.7 1.3 1.2 1.3 2.15 0 2.5-3.25 3.25l-.75.1-3 2.8 4.5-.4q.35-.5.85-1.3.25-.4.55-.8z" id="ObjFoo053__Symbol_111_0_Layer0_0_FILL"/><path fill="#EEE" d="M112.5 306l-.6.5q-1.6 1.25-3.8 1.25-1.2 0-2.35-.3-.4-.1-.8-.25-.25-.1-.45-.15-1.35-.6-2.6-1.6-.05 0-.1-.05-2.95-2.35-4.15-2.35-.45 0-.95.15-1.216.864 4.65 6.5l.1-.3q.25.3.65.95.4.6.85.95.25.2.55.45.85.7 1.4 1.2.2.1 1.25.1.1-.15 1.25-.05l.8-.45q.4-.6 1-1.4.3-.5.65-1 4.863-3.892 2.65-4.15m43.55-23.6v.15l-2.25 3.25 4.2 2.25q.244.048-.15.35-.382.305 0 .5t1.7-.15l1.5-.4q.3-.2.5-.65.1-.4.1-1 0-1.05-1.1-2.15-1.1-1.05-1.1-1.75.2-1.15.2-1.45 0-1.15-3.7-2.95l-.05-.05h-.05v.05l-4.45 1.4 2 1.15q2.15 1.25 2.65 1.45m-22.55 12.75q-.75.5-1.3 1-1.15 1.2-2.05 2.15-1.3 1.25-2.15 2-.1.05-.15.15-1.9 1.65-3.5 2-.201.105-.95.4-.747.335-3.1.95t-1.6 1.5q.751.945.2 1.8l2.6-.7q.95-.35 2.45-.75 1.6-.5 3.9-1.15 1.7-.5 6.3-2.05 4.1-1.3 5.4-1.55 1.95-.4 4-1.8.85-.6 2.25-1.65.455-.45 2.2-1.1 1.733-.65 4-4.45l-.05-.1q-1.1.2-4.3.15h-2q-2.2.05-3.35.1-2.2.1-5.3 1.35h-.05v.05q-2.1.8-3.45 1.7m-51.95-4.75q.25-.15.55-.25-3.178-2.42-8.7-.15l-.05-.05q-.05.05-.1.05l-.3.2q-.4.25-.75.5l-1.1.8-1 .95h.7q0-.05.05-.05t.1.05v-.05q1.516 2.015 3.25 3.6.01.07 0 .15l-.1.4q0 .55.7.75 1.3.4 2.35 1.2l.4.4q.25.35.6 1 .15.3.4.5.05.05.15.1.301.198 1.3.25.996.056 1.45-.1.115-.04.15-.1l.4.4q.587.516 1 .35l.7.95q.813 1.082 1.2 2.55.394 1.456 1.2 1.95.5.3 1.2.45.547.106 2.4.05 1.86-.069 2.5-1.5-1.3-1.3-2.25-2.2l-.05-.05q-.9-.85-1.5-1.35-.2-.2-.45-.35-.65-.5-1.25-.8-.6-.35-1.25-.6-.4-.15-.75-.2-.1-.05-.15-.05l-.15.05q-.04.002-.1 0 .06-.023.1-.05l.05-.05.1.05.05-.05-2.2-2.45-2.05.85-.2-.3-.1.05q-.2-.2-.35-.4-1.25-1.75-.75-4.05l.95-2.55.15-.15q.15-.1 1.5-.7z" id="ObjFoo053__Layer1_0_FILL"/><path fill="#CDCDCD" d="M103.5 311.75q-.3-.25-.55-.45-.45-.35-.85-.95-.4-.65-.65-.95l-1.3-1.65q-2.7-3.6-3.45-4.55-1.5.4-3.75 2-.4.3-.75.55-2.45 1.55-3.7 1.55-.65 0-1.2-.1 3.65 1.4 7.55 3.2 3.3 1.35 7.2 1.35h1.45m20.5-9.1l-.05-.1h-.45q-1.4 0-2.55-.3l-.7-.2q-1.4-.5-2.35-.5-1.75 0-3.35 1.8-.5.55-1 1.3-.05.1-.1.15-.4.6-.85 1.1l-.1.1-2.65 4.15q-.35.5-.65 1 7.65-1 9.45-3.65.15-.2.25-.4.55-.85 1.1-1.35.65-.7 2.1-1.8.85-.7 1.9-1.3m-44.55-1.95q-.45 0-.75-.2l-.05.05q1.95 1.4 5.15 2.75l.5.2.35.2q-.15-1.3-.25-3.5v-.05q-.7-.15-1.4-.15-.65 0-1.4.2-.35.05-.7.15l-.3.1q-.95.25-1.15.25m-9.35-8.25l-.45.45.25.25q.3.35.95.8l3.35 2.2q.1-.8.1-1.3V294q-.1-.35-.7-1l-.1-.05q-.3-.2-1.4-.4-.85-.15-1.15-.15v.05h-.85m90.95-4.1q-.2.05-.4.05-.75 0-1.8-.15-.15-.05-.35-.1l-.5-.1q-.95-.15-1.4-.15-1.1 0-1.3.05-.4.15-1 .95-.2.45-.4.85-.35.65-.7 1.15-.1.1-.2.25-.4.4-.8.6-.1.05-.2.15-4.05 3.8-5.15 4.65-.6.45-1.05.9.65-.15 1.35-.25 2.55-.6 6.45-2.7 1-.55 3-2.2 1.65-1.4 2.3-2.05.25-.25 1.55-1.3.35-.3.6-.6z" id="ObjFoo053__Layer1_0_MEMBER_0_FILL"/><g id="ObjFoo053__Layer9_0_FILL"><path fill="#9A9A9A" d="M78.65 300.55l.05-.05q-.1-.05-.15-.1l.1.15m45.35 2.1q.15-.1.35-.2l-.4.1.05.1z"/><path fill="#D9D9D9" d="M73.6 293l-.05-.05h-.05l.1.05z"/><path fill="#CCC" d="M70.1 292.45h-.15l-.05.05q-.05 0-.05.05-.15.1-.3.25l.1.1.45-.45m14.3 7.75l.15-.05h-.15v.05z"/><path fill="#900" d="M119.8 272.55h-.05l.3.15q-.15-.1-.25-.15z"/><path fill="#F7A10B" d="M89.35 282.95q.207-.135.55-.55.34-.37.25-.8-.75.2-1.1.4-1.586-.566-2.5 1.05-.05 0-.1.1.353.996 1.4.25-1.093.888 0 .3 1.294-.607 1.5-.75m-3.5-1.25q-.575-1.108-1.4-1.15-.4.7-.95 2.55.228 3.433 2.85.05.125-.342-.5-1.45m22.4-14.35q-1.43-.524-3 .4-1.522.924-2.15 6.85l.15-.15v.1q-.05.5-.05.55-.3.9-1.95 1.8-1.85.85-3.3 1.55-.212.102-.4.2l-.15-.05q-1.237-.835-1.95-1.15l.15-.05q-1.167-3.451-6.45-4.55-1.45 1.5-1.55 3.2l4.2 3.65.15-.15v.1q0 .85.05 1.7-.1.7-1.05 2-.995 1.267-3.15 3.15.055-.128.1-.25-5.177-1.588-17-.2.1 1.45 1.2 2.8.15.2 1.05.95l.2.15.05.05h.15q.14.454 1.55 4.55.4 1.55 1.4 2.65 1.35 1.55 3.25 1.55.388 0 .8-.15.59.558 1.85 1.45l1.35 1.35q.85.8 1.85.8 1.82 0 2.05-.6.16.092.3.2.25.15.45.35.6.5 1.5 1.35l.05.05q2.85-1.15 5.35-1.8 1.05-.3 5.3-1.25.218-.054.5-.15.183 2.092.9 5.05l-.1.05q.032.025.05.05-.006.03-.05.05-.138.036-.2.15-.05.11-.05.25 0 .35 1.25 1.05 1.55.9 1.65 1 .4.3 1.8.8 1.85.65 3.3.65 1.95 0 3.75-1.05 2.05-1.25 2.05-3.05v-.5q-.05-.1-.3-.5.85-.2 3.65-.3 2.6-.2 3.15-1.2h.8q-.45.55-.45.8 0 .6.95.7h1.65q1.75-.45 3.85-1.4 2.2-1 3.2-1.9 1.85-1.6 2.35-2.15.402-.46.55-1.1l1.55-.95q1.25-.8 3.95-2.05 2.2-1.3 3.5-1.95 1.078-.515 1.75-.9h2.05q3.2.05 4.3-.15h.05q.05-.05.2-.05.4-.2.8-.6.1-.15.2-.25.35-.5.7-1.15-.685-1.5-1.2-2.5.052-.033.1-.1.376-.517.9-1.25.064-.052.1-.1l.15.1q3.7-.175 3.7-2.5 0-.85-.25-1.5-.05-.1-.75-1.45-.35-.7-.5-1.5-.093-.309-.3-.55v-.05l.05-.05 2.55-.65-.05-.05-.85-2.25q-7.874-.19-11.8 2.95l.8-2.7h-.05l.05-.05 1.7-5-.05-.05q.25-1.55-.85-2.85l-.3.9q-.134-.016-.35.15-.65.5-1.15 1.75-1.1 2.4-1.2 2.9l-.75 2.9q-.1.25-.1 1.5-.21 1.055-1.7 1.2-.232.05-.55.05.116-.003.35-.05.08-.016.1-.05h-.5l-.7.05-.15-.05h-.25.05q0-.05.05-.1v-.05q-1.218-2.698-2-3.95.16-.194.3-.4.25-.35.45-.7l.3-.4q.1-.2.2-.35 1.25-2.1 1.25-3.1 0-.75-.3-1.6-.25-.65-.35-1.2-.1.05-.1.15-.15.1-.25.2 0 .05-.05.05l.05.05q-.064.079-.15.15-.068-.367-.45-.1-.45.35-.6.7-.2.4-1 1.4-1.8 2-2.45 2.85-.75.9-3.2 3.5-.384.415-.7.75h-.95q-.094.047-1.45.1l.45-.6-4.55.55.95-1.5h-.05l.85-.95 4.85-4.6-1.6-1.4-.2.05q-6.194 1.303-7.5 5.8l-.05.05h-.15q-.6 0-.85.2-.1.1-.25.35-1.75.2-2.15.9h-.75l-.5-.1q-.55.2-.8.15h-4.75q-1.25.05-2.5-.7-1.15-.75-1.3-1.4-.55-1.2-.45-1.65v-.1q1.4-3.65.8-4.55m-21.55 20.8q.114-.062.2-.1l-.05.1q-.05-.006-.15 0m19.85-15.9v.05h-.05l.05-.05m26.85 8.05l.8-.25v.05l-.8.2m4.45-1.25l-.05.05.05-.05m1 2.75l.05-.05-.05.05m-5.35 13.35l-.05.05.05.05h-.05q-.014-.02-.05-.05.027.003.05-.05.027.016.05 0m-.55.35v.1l-.05-.05q.029-.009.05-.05m4.05-2.1h-.05.05m14.25-13.6l.05-.05v.05h-.05M143.6 292l-.1.05-.05-.05q.087.002.15 0m-19.25 10.45q-.2.1-.35.2l-.05-.1.4-.1m-10.3 1.5v.1L114 304q.029-.022.05-.05m.5-.55q-.066.05-.15.05.09-.033.15-.1v.05m-2.05 2.6v-.1h.1l-.1.1m-27.95-5.85l-.15.05v-.05h.15z"/><path fill="#AF6F00" d="M112.5 305.9v.1l.1-.1h-.1z"/></g></defs><use xmlns:xlink="http://www.w3.org/1999/xlink" xlink:href="#ObjFoo053__Layer9_0_FILL"/><use xmlns:xlink="http://www.w3.org/1999/xlink" xlink:href="#ObjFoo053__Layer9_0_MEMBER_0_FILL"/><use xmlns:xlink="http://www.w3.org/1999/xlink" xlink:href="#ObjFoo053__Layer9_0_MEMBER_1_FILL"/><use xmlns:xlink="http://www.w3.org/1999/xlink" xlink:href="#ObjFoo053__Symbol_108_0_Layer0_0_FILL" transform="translate(87.45 270.9)" id="ObjFoo053__col1n"/><use xmlns:xlink="http://www.w3.org/1999/xlink" xlink:href="#ObjFoo053__Symbol_109_0_Layer0_0_FILL" transform="translate(87.45 275.3)" id="ObjFoo053__col1d"/><use xmlns:xlink="http://www.w3.org/1999/xlink" xlink:href="#ObjFoo053__Symbol_110_0_Layer0_0_FILL" transform="translate(110.75 265.1)" id="ObjFoo053__col2n"/><use xmlns:xlink="http://www.w3.org/1999/xlink" xlink:href="#ObjFoo053__Symbol_111_0_Layer0_0_FILL" transform="translate(110.75 265.35)" id="ObjFoo053__col2d"/><use xmlns:xlink="http://www.w3.org/1999/xlink" xlink:href="#ObjFoo053__Layer1_0_FILL"/><use xmlns:xlink="http://www.w3.org/1999/xlink" xlink:href="#ObjFoo053__Layer1_0_MEMBER_0_FILL"/></g></g></svg>