<?xml version="1.0" standalone="no"?>
<svg width="800" height="800" xmlns="http://www.w3.org/2000/svg" id="stage-svg" xmlns:xlink="http://www.w3.org/1999/xlink" preserveAspectRatio="none" viewBox="0 0 385 385"><g transform=""><g transform=""><defs><path fill="#FFD3A8" d="M191.5 95.8q0-39.7-28.05-67.75-16.2-16.2-36.3-23.05-14.7-5-31.4-5t-31.4 5q-20.1 6.85-36.3 23.05Q0 56.1 0 95.8q0 32.25 18.5 56.85l.05.05q.6.75 1.2 1.55l1 1.2L28 163.5q0 .05.05.05l.7.7q3.5 3.4 7.15 6.4v.05l-.05-.05q-5.81 7.718-10.6 17.75-.078.183-.2.35l-.3.7q-.06.17-.15.35-.117.253-.25.5l-2.6 6.15q-5.345 13.608-8.3 30.1-.05.2-.05.4-.15 2.45.15 4.85Q15.7 245.9 31 249.35q.2.05.45.1l.05-.05q.15.05.25.05.2.6.4 1.15.4.95 1.1 1.75 0 .05.05.1v19.45q-3.9.7-7.8 2.5-.6.267-1.2.55-.94.67 0 .8h143.25q1 0 0-.6-.775-.405-1.55-.75-3.9-1.8-7.8-2.5v-19.45q.05-.05.05-.1.7-.8 1.1-1.75.2-.55.4-1.15.1 0 .25-.05l.05.05q.25-.05.45-.1 15.3-3.45 17.45-17.55.3-2.4.15-4.85 0-.2-.05-.4-3.7-20.65-11.15-36.75-4.8-10.45-11.15-18.95h-.05q0-.1-.1-.2 3.65-3 7.15-6.4l.7-.7q.05 0 .05-.05l7.25-8.05 1-1.2q.6-.8 1.2-1.55l.05-.05q18.5-24.6 18.5-56.85z" id="SkiSki001__Symbol_10_0_Layer0_0_FILL"/><path fill="#F7BE86" d="M-36.05 227.75h-.2l-3.9.15-1.3.1q-8.5.6-13.15 1.65-4.7 1-5.35 1.3-.15.05-.25.1 8-1.3 16.1-1.8.3-.05.65-.05l2-.1q.2-.05.35-.05h.3q15.4-.65 30.05 2l4.15.7q1.15.2 2.3.45 1.75.35 3.45.75l.3.1q.1 0 .2.05.15 0 .3.05-.4-.15-.8-.25-1.7-.6-3.45-1.05-.55-.15-1.05-.3-.15-.05-.25-.05-10.8-3-22-3.6-.4-.05-.8-.05-.55-.05-1.15-.05l-6.5-.05m3.4-52.2q3.05 1.2 6.25 0 1.6-1.65.35-3.6-.1-.15-.15-.25-3.05-1-6.9 0-.5.7-.6 1.4-.2 1.1.8 2.25.1.1.25.2M3.2 203.7q-1.25-1.15-2.25 0-.05.25 0 .55.25 1.6.15 3.25l.1.05q.7.3 1.05-.35l.1-.2q.15-.45.3-.85.25-.8.4-1.55.05-.15.05-.3l.1-.6m55.4 25.95q-4.65-1.05-13.15-1.65l-1.3-.1-3.9-.15h-.2l-6.5.05q-.6 0-1.15.05-.4 0-.8.05-11.2.6-22 3.6-.1 0-.25.05-.5.15-1.05.3-1.75.45-3.45 1.05-.4.1-.8.25.15-.05.3-.05.1-.05.2-.05l.3-.1q1.7-.4 3.45-.75 1.15-.25 2.3-.45l4.15-.7q14.65-2.65 30.05-2h.3q.15 0 .35.05l2 .1q.35 0 .65.05 8.1.5 16.1 1.8-.1-.05-.25-.1-.65-.3-5.35-1.3M29.55 173.1q-.2 1.1.8 2.25.1.1.25.2 3.05 1.2 6.25 0 1.6-1.65.35-3.6-.1-.15-.15-.25-3.05-1-6.9 0-.5.7-.6 1.4z" id="SkiSki001__hll_0_Layer0_0_FILL"/><path fill="#DE9957" d="M-54 165.45q-.05.05-.05.1l-4.3 21.85q-.45 2.1-.85 4.05l-.1.6q-.2.8-.35 1.6-1.5 7.35-2.3 12.15-.75 4.4.45-.6.4-2.5 1.45-6.25.1-.6.25-1.25.7-3.15 1.3-5.65.65-3.05 1.15-5.1h.05l-.05-.05v-.05q.2-.9.35-1.55.2-.95.4-1.55v-.05q0-.15.05-.25.15-.75.2-.85l3.25-16.8.05-.05q0-.25-.1-.4-.1-.2-.3-.2-.2-.05-.3 0-.05 0-.05.05-.05 0-.1.05t-.1.2m81.8 53.1q5.828-.808 11.3-1.95-.15 0-.3.05-.95.05-1.9.15-.75.05-1.5.15-13.1 1.2-26.3 1.45-4.5.1-9 .1-17-.1-34.1-1.8-.65-.1-1.2-.15 5.808 1.176 11.85 2 11.28 1.525 23.45 1.85h.55v.1l1.4 12.2v-.4l.05.4 1.4-12.2v-.1h.05q.15 0 .35.05l5.2-.2q9.762-.455 18.7-1.7m30.1-53.2l-.05-.05q-.15-.05-.35 0-.2 0-.3.2-.1.15-.05.4l3.25 16.85q.1.2 1.05 4.3v.05q.45 2 1.1 4.95.55 2.4 1.2 5.4l.1.4q.25 1.2.5 2.25 1 3.35 1.35 5.75 1.05 4.3.3.1-.9-5.3-2.65-13.9-.4-2.15-.9-4.5L58.1 165.7v-.1q-.1-.2-.2-.25m2.25-34.1q-1.35 1.05-2.8 2.1l-1.55 1.15q-20.35 14.1-45.8 16l-1.1.05q-3.35.2-6.8.2h-.2q-3.45 0-6.8-.2l-1.1-.05q-25.45-1.9-45.8-16l-1.55-1.15q-1.45-1.05-2.8-2.1l-1.15-.9q10.019 8.81 21.45 14.1 17.928 7.84 37.75 7.85h.2q19.823-.01 37.75-7.85 11.45-5.3 21.45-14.05l-1.15.85z" id="SkiSki001__hdd_0_Layer0_0_FILL"/><filter id="SkiSki001__Filter_1" x="-20%" y="-20%" width="140%" height="140%" color-interpolation-filters="sRGB"><feColorMatrix in="SourceGraphic" values="1 0 0 0 0 0 1 0 0 0 0 0 1 0 0 0 0 0 0.75 0" result="result1"/></filter></defs><use xmlns:xlink="http://www.w3.org/1999/xlink" xlink:href="#SkiSki001__Symbol_10_0_Layer0_0_FILL" transform="translate(96.75 58)" id="SkiSki001__col1n"/><use xmlns:xlink="http://www.w3.org/1999/xlink" xlink:href="#SkiSki001__hll_0_Layer0_0_FILL" transform="matrix(1.00052 0 0 1 190.5 98.75)" id="SkiSki001__col1d"/><use filter="url(#SkiSki001__Filter_1)" xmlns:xlink="http://www.w3.org/1999/xlink" xlink:href="#SkiSki001__hdd_0_Layer0_0_FILL" transform="matrix(1.00052 0 0 1 190.5 98.75)" id="SkiSki001__col1s"/></g></g><g transform=""><g transform=""><defs><path fill="#FFFFFF" d="M60.9 5.4l2.35.1Q63.7 5.25 65 5q1.6-.3.45-1.6Q44.6-1.5 26.5.65l-1.1.1q-4.2.45-8.35 1.3-.6.1-5.4 1.05-4.8.95-8.75 2.85L0 7.2q9.3-2.1 16.65-3 4.55-.55 9.15-.85Q43.3 2.3 60.9 5.4m62.15-2.05q12.2.7 25.45 3.9-1.25-.9-2-1.25-4.15-1.7-13-3.65-2.2-.45-4.45-.8l-4.2-.65q-.45-.05-.85-.1-.95-.05-1.95-.1-18.65-1.95-37.8 2.7-4.15 1.5-1.5 1.85.95.1 1.3.1 1.4.45 4.05.1h.4q17.3-3.05 34.55-2.1z" id="LegSho004__Symbol_6_0_Layer0_0_FILL"/><path fill="#000000" d="M147 10.45l1.5-5.65H89.85Q86.6 1.35 82.2.4q-3.45-.8-7.65 0-.15 0-.3.05-.15-.05-.3-.05-4.2-.8-7.65 0-4.4.95-7.65 4.4H0l1.5 5.65h59.35q2.05-3.95 7.5-4.35l.7 4.35h4.35l.85-4.25.85 4.25h4.35l.7-4.35q5.45.4 7.5 4.35H147z" id="LegSho004__Symbol_7_0_Layer0_0_FILL"/></defs><use xmlns:xlink="http://www.w3.org/1999/xlink" xlink:href="#LegSho004__Symbol_6_0_Layer0_0_FILL" transform="translate(118 326.15)" id="LegSho004__col1n"/><use xmlns:xlink="http://www.w3.org/1999/xlink" xlink:href="#LegSho004__Symbol_7_0_Layer0_0_FILL" transform="translate(118.25 328.5)" id="LegSho004__col2n"/></g></g><g transform=""><g transform=""><defs><path fill="#FFFFFF" d="M126.2.7V.45l-.7.25v.05l.2 1.1-.25-1.25q-.15.05-.3.15-.5.15-1 .35-2.55.85-16.4 2.55-13.9 1.65-38.95 1.9-25.1.25-37.65-1.8Q18.6 1.65 15.2.4l-.5-.2-.6-.2-.05.1H14l-.1.6-2.7 14q-.55 2.7-1.1 5.45l-3.45 14.3q-.95 3.7-1.85 7.35 9 2.8 17.3 5.05-9.85 1.35-19.8 3.2L0 56.45q12.3 2.65 24.4 4.45 44.95 6.5 87.2.1 14.3-2.15 28.25-5.8l-2.1-5.35q-8.85-1.75-17.85-3 14.1-4.8 14.2-4.85.15-.1.45-.15.4-.1.8-.1l-5-20.15q-.65-3.1-1.3-6.15L126.2.7z" id="ShiDre010__Symbol_95_0_Layer0_0_FILL"/><path fill="#000000" d="M138.9 69.95q-.1 0-.15.05Q76.8 83.35 9.7 69.75q-.05.25-.1.45l-.95 3.6v.25L7.2 78q70.65 14.85 135.45-.2l-2.4-8.1q-.4 0-.8.1-.3.05-.55.15m9.45-53.15q-1-2.3-2-4.5-1.8-3.95-3.85-7.6-1-1.85-2.1-3.6-.15-.25-.3-.55-.55.5-1.05.95-.55.5-1.15 1.05-3.45 2.85-7.9 5.5-1.15.7-2.4 1.4-4.45 2.45-9.25 4.45-18.6 7.5-42.9 7.5-25.55 0-44.85-8.35-3.8-1.65-7.3-3.6-2.05-1.1-3.85-2.25-4.2-2.65-7.4-5.55-.6-.55-1.15-1.05l-.6-.6-1.2 1.9q-.85 1.45-1.65 2.9-1.5 2.7-2.85 5.55-.5.95-.95 1.95Q1.7 16.55 0 21.1l18.95 6.95.05-.1.6.2.5.2q3.4 1.25 7.05 2.35 20.75 6.2 48.3 6.2 27.6 0 48.4-6.2 2.65-.8 5.2-1.65.5-.2 1-.35.15-.1.3-.15l.25 1.25-.2-1.1v-.05l19.45-8q-.75-1.95-1.5-3.85z" id="ShiDre010__Symbol_34_0_Layer0_0_FILL"/></defs><use xmlns:xlink="http://www.w3.org/1999/xlink" xlink:href="#ShiDre010__Symbol_95_0_Layer0_0_FILL" transform="translate(122.4 263.35)" id="ShiDre010__col1n"/><use xmlns:xlink="http://www.w3.org/1999/xlink" xlink:href="#ShiDre010__Symbol_34_0_Layer0_0_FILL" transform="translate(117.5 235.4)" id="ShiDre010__col2n"/></g></g><g transform=""><g transform=""><defs><path fill="#FFD3A8" d="M34.65 11q0-3.2-2.25-5.45-1.65-1.65-3.8-2.1-.3-.05-.55-.1-.25-.05-.5-.05-.15-.05-.35 0-.15-.05-.35 0h-.4q-.7.05-1.25.15-.15.05-.35.1Q20.7-.05 15.1 0 9.35-.05 5.2 3.65q-.05.05-.1.15-.2.1-.35.25-.05 0-.05.05l-.05.05-.2.2q-.25.25-.45.5-.05 0-.05.05l-.05.05-.3.3Q0 9.4 0 15q0 6.2 4.45 10.6Q8.85 30 15.1 30q2.9 0 5.4-.95.1-.05.2-.05.05-.05.15-.1h.05q.05-.05.15-.1.4-.15.75-.35l.8-.4q.1-.05.15-.1l.1-.05q1.5-.95 2.9-2.3 3.25-3.25 4.1-7.45.05-.05.1-.05l.3-.1q1.15-.55 2.15-1.55 2.25-2.25 2.25-5.45m135.6-6.85V4.1l-.05-.05q-.2-.15-.35-.25-.05-.1-.1-.15-4.2-3.7-9.9-3.65-5.65-.05-9.7 3.55-.2-.05-.35-.1-.4-.1-.8-.1l-.8-.05q-.2-.05-.35 0-.25-.05-.4 0-.25 0-.45.05h-.05q-.25.05-.45.1-2.2.45-3.85 2.1-2.3 2.25-2.3 5.45t2.3 5.45q.95 1 2.15 1.55l.3.1q.85 4.25 4.1 7.5 1.35 1.35 2.9 2.3.05 0 .1.05t.15.1q.35.2.75.4.35.2.75.35l.2.1h.05q.05.05.15.1.1 0 .2.05 2.5.95 5.4.95 6.25 0 10.65-4.4t4.45-10.6q-.05-5.6-3.65-9.75-.15-.15-.25-.3l-.1-.1q-.25-.25-.45-.5-.15-.1-.25-.2z" id="BodHan001__Symbol_2_0_Layer0_0_FILL"/><path fill="#F7BE86" d="M15.5 7.75q0-3.2-2.25-5.45Q11.6.65 9.45.2 9.15.15 8.9.1 8.65.05 8.4.05q-.15-.05-.35 0Q7.9 0 7.7.05h-.4Q6.6.1 6.05.2 5.9.25 5.7.3q-1.95.45-3.45 2Q0 4.55 0 7.75t2.25 5.45q1.7 1.7 3.95 2.1l1.5.15h.1l.75-.05q1.15-.1 2.15-.5.05-.05.1-.05l.3-.1q1.15-.55 2.15-1.55 2.25-2.25 2.25-5.45M12.45 3q1.95 1.95 1.95 4.75 0 2.75-1.95 4.7-.85.9-1.85 1.4-1 .45-2.05.55l-.75.05h-.1l-1.3-.15q-1.9-.4-3.35-1.85-2-1.95-1.95-4.7Q1.05 4.95 3.05 3q1.45-1.45 3.3-1.8.5-.1 1-.15H7.8q.4 0 .85.1 2.15.25 3.8 1.85m124.3 4.75q-.05-3.2-2.3-5.45-1.5-1.55-3.4-2H131q-.2-.05-.35-.1-.4-.1-.8-.1l-.8-.05q-.2-.05-.35 0-.25-.05-.4 0-.25 0-.45.05h-.05q-.25.05-.45.1-2.2.45-3.85 2.1-2.3 2.25-2.3 5.45t2.3 5.45q.95 1 2.15 1.55l.3.1q1 .4 2.25.55l.75.05h.1l1.5-.15q2.2-.4 3.9-2.1 2.25-2.25 2.3-5.45M133.7 3q1.95 1.95 1.95 4.75 0 2.75-1.95 4.7-1.45 1.45-3.35 1.85l-1.3.15h-.1l-.75-.05q-1.1-.1-2-.55-1.05-.5-1.95-1.4-1.95-1.95-1.9-4.7-.05-2.8 1.9-4.75 1.65-1.6 3.8-1.85h.05q.4-.1.85-.1H129.4q.5.05 1 .15 1.85.35 3.3 1.8z" id="BodHan001__Symbol_1_0_Layer0_0_FILL"/></defs><use xmlns:xlink="http://www.w3.org/1999/xlink" xlink:href="#BodHan001__Symbol_2_0_Layer0_0_FILL" transform="translate(105.05 280.6)" id="BodHan001__col1n"/><use xmlns:xlink="http://www.w3.org/1999/xlink" xlink:href="#BodHan001__Symbol_1_0_Layer0_0_FILL" transform="translate(124.2 283.85)" id="BodHan001__col1d"/></g></g><g transform=""><g transform=""><defs><path fill="#FFFFFF" d="M29.9 7.35q.15-.1.2-.2 4-4.25 9.2-7.15-3.25.85-6.65.75-3.9.2-8.15 1.85-2 .8-4.85.7-2.8.1-4.85-.7Q10.55.95 6.65.75 3.3.85 0 0q5.25 2.9 9.2 7.15.05.1.25.2.1.15.3.35 4.45 3.85 9.9 3.9 5.45-.05 9.9-3.9.25-.2.35-.35z" id="FacMou033__Symbol_118_0_Layer0_0_FILL"/><path fill="#FF5D5D" d="M41.7 5q.25-.35.4-.65-.95.3-1.85.4-2.35.2-4.65-.85-1.55-.7-3.1-1.95Q27.65-2 21.05 2q-6.6-4-11.45-.05-3.45 2.75-6.8 2.8-.6 0-1.2-.05-.8-.1-1.6-.35.1.2.3.45l.1.2q.8 1 2.5 2.25 2.2 1.7 4.25 4.85 4.9 8.85 13.9 8.35 9 .5 13.9-8.35Q37 8.95 39.2 7.25 40.9 6 41.7 5M33 6.35q3.1.05 6.1-.6-4.8 2.25-8.45 5.5-.05.05-.2.15-.1.1-.3.25-4.1 2.95-9.1 3-5-.05-9.1-3-.2-.15-.3-.25-.15-.1-.2-.15Q7.8 8 3 5.75q3 .65 6.1.6 3.6.15 7.5 1.4 1.85.6 4.45.55 2.6.05 4.45-.55 3.9-1.25 7.5-1.4z" id="FacMou033__Symbol_58_0_Layer0_0_FILL"/></defs><use xmlns:xlink="http://www.w3.org/1999/xlink" xlink:href="#FacMou033__Symbol_118_0_Layer0_0_FILL" transform="translate(172.85 216.45)" id="FacMou033__col2n"/><use xmlns:xlink="http://www.w3.org/1999/xlink" xlink:href="#FacMou033__Symbol_58_0_Layer0_0_FILL" transform="translate(171.45 211.65)" id="FacMou033__col1n"/></g></g><g transform=""><g transform=""><defs><path fill="#FFFFFF" d="M52.4 18.6q.4-1.45.65-2.95L8.5 1.4q-.7-.25-1.35-.5Q6.35.65 5.6.35 2.8 4.5 1.4 9.15.35 12.7.1 16.55q-.2 2.7.05 5.15.25 3.15 1.25 6 1.65 4.65 5.15 8.4Q13.8 43.85 24.8 43q11.05-.8 19.4-9.75 6.1-6.6 8.2-14.65m53.85 3.3q.3-2.6.1-5.4-.2-3.2-1-6.2-1.2-4.7-3.8-8.85Q101.1.7 100.6 0l-1.3.5q-.3.1-.55.25L53.5 15.7q.2 1.45.6 2.85 2.05 8.1 8.15 14.7Q70.6 42.2 81.65 43q11 .85 18.25-6.9 3.75-4 5.35-9.15.75-2.4 1-5.05z" id="FacEye014__Symbol_17_0_Layer0_0_FILL"/><path fill="#000000" d="M3.4 6.65Q4.8 6.6 5.8 5.6q1-.95 1-2.35 0-1.35-1-2.35-1-.95-2.4-.9Q1.95-.05 1 .9q-1 1-1 2.35 0 1.4 1 2.35.95 1 2.4 1.05m32.05 0q1.4-.05 2.35-1.05 1-.95 1-2.35 0-1.35-1-2.35-.95-.95-2.35-.9Q34-.05 33 .9q-1 1-1 2.35 0 1.4 1 2.35 1 1 2.45 1.05z" id="FacEye014__Symbol_4_0_Layer0_0_FILL"/><path fill-opacity="0.251" d="M217 137.9q10.5.8 18.3 9.35 1.743 1.83 3.15 3.8l1.45-.75q-1.524-2.145-3.45-4.15-8.25-9.05-19.35-9.85-7.25-.55-12.9 2.7-2.95 1.6-5.5 4.35-3.98 4.404-5.55 10.1-.293 1.029-.5 2.1-.05.2-.05.35-.053.382-.1.75-.044-.393-.1-.8 0-.15-.05-.35-.202-1.045-.5-2.05-1.552-5.726-5.55-10.15-2.55-2.75-5.5-4.35-5.65-3.25-12.9-2.7-11.1.8-19.35 9.85-2.06 2.145-3.65 4.45l1.45.7q1.496-2.103 3.35-4.05 7.8-8.55 18.3-9.35 6.75-.55 12 2.5h.05q2.7 1.5 5.1 4.05 3.574 3.98 5.05 9.05.363 1.169.45 1.8.144.635.7 3.05.55 2.415.6 3.25.333 3.262.4 4.4l.45.05q.019-.124.4-3.65.387-3.523.7-4.8.308-1.28.4-2.1.141-.81.5-2 1.493-5.04 5.05-9 2.4-2.55 5.1-4.05h.05q5.25-3.05 12-2.5z" id="FacEye014__Layer6_0_FILL"/></defs><g id="FacEye014__col1n" transform="translate(139.3 150.3)"><use xmlns:xlink="http://www.w3.org/1999/xlink" xlink:href="#FacEye014__Symbol_17_0_Layer0_0_FILL" id="FacEye014__col1n_FL"/></g><g id="FacEye014__col2n" transform="translate(173 163.45)"><use xmlns:xlink="http://www.w3.org/1999/xlink" xlink:href="#FacEye014__Symbol_4_0_Layer0_0_FILL" id="FacEye014__col2n_FL"/></g><use xmlns:xlink="http://www.w3.org/1999/xlink" xlink:href="#FacEye014__Layer6_0_FILL"/></g></g><g transform=""><g transform=""><defs><path fill="#000000" d="M176.5 39.85q-.35-.3-.55-.55-1.3-1.5-2.75-3-6.8-6.75-14.4-11.95-.1-.2-.4-.2-6.55-4.6-13.75-7.7-1.05-.55-2.1-.95-1.5-.6-2.95-1.15-3.55-1.35-7.05-2.35-2.3-.6-4.55-1.2-1.85-.45-3.7-.75-1.7-4.3-6.6-6.8Q111.95 0 103.6 0q-8.3 0-14.15 3.25-5.5 2.9-5.85 7.05-.05.1-.05.15-.2 0-.3.2-1.25.15-2.3.5-.35 0-.55.1-1.4.35-2.6.75-.75.15-1.6.45-.55.1-1.25.3-.15.15-.45.25-3.15.95-6.15 2.25-.65.25-1.2.45l-.2.1q-2.5 1.1-4.9 2.25-2.25 1.1-4.3 2.3-6.45 3.7-12.5 8.45-4.2 3.5-8.2 7.5-1.9 1.9-3.65 3.9-2.45 2.55-4.75 5.65-.35.35-.65.75-7.2 9.4-11.6 20-.45 1.2-1 2.4-2.1 6-3.45 12l-2.2 11.55v.1q0 .1-.05.3v.2l-.15 1.4v.1L9.4 96.3q-.35 3.65-.35 7.3v.1q-.1 4.2.25 8.6 0 .65.1 1.35-.2 2.8-2 7.4-2.25 6.1-2.15 9.8-5.35.95-5.25 3.95.1 2.95 4.15 5.1 4.05 2.05 4.05 5.7 0 1.85-1.45 2.9-.95.6-3.15 1.1v.1h.95q2-.1 3.2-1.05 1.1-.95 1.2-3.8.1-2.9-3.8-5.3-4.05-2.35-4.05-4.2 0-2 2-2.75 1.85-.8 2.4.35.5.95 2.15 4.7 2.95 4.2 5.7 4.7-2.75-1.65-4.7-4.95-1.9-2.8-2.2-5.7 3.25-1.45 3.95-1.85.65-.65 1.2-1.45.1.8.3 1.55.25 2.65 1.45 5.05.55 1.2 1.45 2.75.85 1.5 2.1 3.15 1.15 1.65 1.15 2.95-.1 1.45-.6 2.55-.5 1.4-1.7 3-2.3 2.9-1.85 7.25.45 4.25 6.8 8.1-3.25-3.45-4.55-4.8-1.55-1.65-1.45-4.95 0-3.3 1.55-4.7 1.45-1.55 1.9-2.4 1.3-1.5 1.5-3.8.15-2.35-2.4-5.6-2.55-3.15-3-8.15-.6-4.95.55-8.85.3-1.15.65-2.1 2.4-7.85 4.8-14.55.45 1.85.45 4.35 0 2.45-1.8 6.4-1.85 3.8-1.75 6.95.1 3.25 4.15 5.4 4.1 2.1 3.85 4.65-.2 2.4-1.5 3.5-1.45.9-2.1 1.2 4.2-1.1 4.2-6.15 0-2.4-3.55-4.2-3.6-1.8-3.5-4.95.1-3.2 1.55-6.3 1.4-3.2 1.75-5.8.2-2.8.65-5.25.3-2.6 1-4.7.65-2.2 6.1-21 .65-1.7 1.3-3 2-4.6 3.65-7.25 2.75-4.65 5.55-8.1-2.15 4.4-2.15 9.6v.8q.1 5.65 1.7 11 1.65 5.35 8.15 12.6-5.6-8.6-6.5-12.95-.9-4.4-.9-12.5 0-.6.1-1 .6-7.55 10.75-14.05 2.65-1.75 5.1-3-.7.8-2.05 1.7-1.35 1-4.15 6.05-.75 1.3-1.25 2.65-1.55 3.8-1.3 8.2.1 5.7 4.3 5.7 2.2 0 4.75-1.55 2.3-1.55 2.75-3.4-.85 1.3-2.5 2.15-3.75 1.45-4.4 1.45-1.75 0-2.65-2.4-.65-1.85-.65-3.95 0-4.5 2.4-8.4 2.6-4.55 8.15-8.45 2.9-2.05 6.95-4.15.25-.1.45-.2h.1q.2-.15.45-.15 41.35-6.1 82.15 1.15.1.1.25.2.5.45 2.3 1.3 1.95.9 8.85 10.5.1.45.95 2.45 2.35 4.9 2.35 20.5 1.75-9.75.85-16.3 0-1.55-2.6-6.75-2.45-4.85-3.3-5.9-1.45-1.85-2.8-3.7 1.65.75 3.2 1.75.25.1.45.35 3 1.8 1.35.9.6.8 1.2 1.55 7.45 9.1 10.8 16.35 3.7 7.8 3.7 15.75 0 4.6-.4 7.7-.3 1.95-5.25 21.15 4.25-11.7 5.25-15.35 0-.1.15-.2.15-1.25.35-2.35.05-.6.15-1.1l.05-.3q1.35-8.5 1.25-14.45 0-3.3-.75-7.7 1.05 2.3 2.3 5.3 2.6 6.1 5.95 15.25.4 2 1.15 5.35.65 3.25.75 6.2 0 1.85-.4 4.05-.2 1.05-.55 2.2l-.1.1q-.85 2.3-1.5 3.1-.7.75-1 1.1-.35.35-1.15 1.05-.65.5-.75.65-4.05 4.35-4.05 11.1 0 3.85 2.6 7.8.7 1 2 1.8-.85-1.05-1.65-2.45-1.2-2.35-1.5-3.5-.4-1.25-.4-3.25 0-2.75.3-3.9.3-1.65 1.35-4.1.95-2.3 2.6-3.4.2-.25.5-.35.25-.2.45-.3 4.45-3.15 5.15-12.2.95 2.9 2.05 6.1.1.4.25.85.4 1.55 1.2 4.05.65 2.95.65 5.35 0 1.75-.85 4.55-.9 2.85-.9 5.05 0 1.85.65 3.95.8 2.2 1.65 3.15.3.3.7.65 1.85 1.3 2.8 1.65 1 .3 1.2.4.2.1-1.4 1.9-1.75 1.65-1.85 2.8-.25 1.25.85 4.3 1.1 2.95 1.3 4.5.1 1.45-1.55 3.6-1.75 2.15-3.85 3.6 2.1-1 4.25-3.35 2.05-2.4 2.05-4.1-.15-1.65-1.2-4.25-1.1-2.75-1.1-3.5-.15-.8 1.7-2.85 1.85-2.2 2.2-2.55h.7q1.05 0 1.85-.1.95-.1 1.65-.4 1.05-.7 1.85-1.15-1.95 1.05-4.4 1.05l-.95-.15q1.25-1.85 1.4-3.25.15-2.05-.65-3.95-.75-1.95-.75-2.1-.15-.1-.15-.2.75.85 3.2 1.65 4.2 1.3 4.7 3.95.1 1-.15 1.85-.25 1.25-1.9 2.4-2.65 1.65-2.65 4.5 0 2.3 1.65 3.7 1.55 1.3 3.55 1.1 2-.2 3.65-1.1-3.2 1.1-5.55.4-2.4-.65-2.3-3.7.1-3.05 1.75-3.95 1.55-.95 2.55-2.6 1.15-1.7.15-4-.95-2.45-3.4-3.45-2.6-1.05-4.05-2.95-.95-1.3-1.5-3.15-.25-3.35-.25-5.45.7-7.75.45-15.5-.05-.4-.05-.85v-.4q-.05-.35-.05-.75l-.65-8.25q-.25-2.1-.55-4.25-.35-2-.8-4l-1.4-6.25v-.15l-.1-.45-.2-.8-.4-1.5-.1-.35-.2-.6-.6-2.1q-.7-2.3-1.5-4.5-.1-.2-.25-.55v-.1q-.3-.8-.5-1.55l-.25-.4q-.1-.25-.1-.35l-5-10.05Q186 51.4 182.3 46.6l-.3-.3q-.2-.2-.35-.45-2.45-3.2-5.15-6m-1.05 2.3l.05.05v.25l.1.3v.1l-.1-.4q-.05-.2-.05-.3m22.65 87.05l.1.1h-.1l.1.3h.1q0 .25.1.45.2.7 1.6 2.75 1.45 2.2 1.45 4-.15 1.6-1.35 3.2-2-.85-2.95-1.6-.5-.45-.85-1-1.75-2.15-1.75-5.7 0-1.65.75-4.55.6-2 .7-4.6.95 3.25 2.1 6.65m-188.05-8.95q.35 1.35.45 2.7.25 1.4.55 2.85-.85 3.6-4.8 4.65.2-3.3 1.15-5.6 1.65-3.25 2.55-5.45 0 .45.1.85z" id="HaiSpe045__Symbol_177_0_Layer0_0_FILL"/><path fill="#252525" d="M166.95 31.35q-.35-.3-.55-.55-1.3-1.5-2.75-3-6.8-6.75-14.4-11.95-.1-.2-.4-.2-6.55-4.6-13.75-7.7-1.05-.55-2.1-.95-1.5-.6-2.95-1.15Q126.5 4.5 123 3.5q-2.3-.6-4.55-1.2-1.85-.45-3.7-.75-.35-.1-.65-.1-5.95-1.1-12.2-1.3-.4-.1-.85-.1-1.8-.1-3.75 0-.45-.1-.9 0-.3-.1-.65 0-.1-.1-.2 0-.1-.1-.2 0-.35-.1-.55 0-.65-.1-1.15 0-2.2 0-4.45.1-7.85.3-15.2 1.8-.2 0-.3.2-1.25.15-2.3.5-.35 0-.55.1-1.4.35-2.6.75-.75.15-1.6.45-.55.1-1.25.3-.15.15-.45.25-3.15.95-6.15 2.25-.65.25-1.2.45l-.2.1q-2.5 1.1-4.9 2.25-2.25 1.1-4.3 2.3-6.45 3.7-12.5 8.45-4.2 3.5-8.2 7.5-1.9 1.9-3.65 3.9-2.45 2.55-4.75 5.65-.35.35-.65.75-7.2 9.4-11.6 20-.45 1.2-1 2.4-2.1 6-3.45 12L.2 84.05v.2l-.2 1.8v.1q.55 5.25 2.4 12.1h.2q.15-7.1 2.6-17.25l.4-1.3q3-10.2 4.2-15.25 0 2.2-.75 6.65-.75 4.4-.75 6.3v.1q0 1 .55 3.5.4 2.55.75 3.45.1-4.2.6-8.45 2-15.85 10.05-33.85h.25l-.25 7.2q0 3.6.15 3.95.1.6 1.3 4.4-.65-8.45 1.7-16 3.2-8.4 4.5-13.35-.6 6.3-.6 8.8 0 2.7 1.45 9.6.35-6.6 1.8-12.2 1.7-5.6 2.25-8.85h.2q.1 4.1-.1 10.3 0 4.95.45 8.35 1.05-5.15 3-10.6 2.25-6.05 3.25-9.1.55-1.85 1.95-3.8.75-1.05 1.8-2.15-.75 1.1-1.25 2.15-1 1.85-1.85 5.75-.9 3.85-1.2 4.2-.45.35-1.2 9.25Q41.1 33.2 51.1 16.8q-2.7 5.9-4.3 15-.75 4.2-1.25 5.9h.1q.1-.85 2.75-4.85 4.55-6.65 6.1-9.6 1.4-3.05 7.3-11.05-2.25 6.2-2.25 6.4-.2 1.6-1.1 5.95-.95 4.3-.95 8.3v1.8q3.45-6.7 6.8-11.85 3.3-5.25 7-12.9-2.5 11.8-2.9 13.25-.7 2.05-1.15 4.1v4.65q.55-.2 2.1-3.15.85-2 2.15-4.95 0-.1.2-.35.55-1.25 3.05-6.05 2.35-4.45 4.45-8.05.65-1.2 1.4-2.25-1 2.8-1.85 5.7-1.55 5.05.45 18h.2q.65-2.45 1.95-6.6.75-2.5 1.85-5.6 1.3-4.2 2.1-6.75l.65-3h.2q0 1.7.1 3.2.2 6.25 1.05 10.65.3 1 .5 2.05.75 2.75 2.05 6.5.4-1.95 1.5-6.3.95-4.75 2.5-12.15.3-1.65.65-3.45v-.2q.2 1.8.5 3.65.85 7.2 2.2 12.7.55 2.75 1.3 5.05v.25q.75-2.75 1.4-5.1 1.8-7.4 2.3-13.75.1-2.9 0-5.65v-.2q.75 2.4 1.55 5.4.95 3.95 2.05 8.9.8 3.5 1.5 5.9.85 3.65 1.2 4.95-.1-1.65 0-4.85 0-2.1.1-4.8.3-9 .3-9.85 2.05 5.15 5 15.1.65 2.45 1.4 5.05.2-2.6.4-4.85.45-6.4.45-8.75 0-2.65-1-6.45-.85-3.45-.95-3.8v-.2q2.95 9.55 6.6 19.65 1 2.45 1.95 4.85.2-.75.2-4.75v-.65q0-2.85-.3-5.9-.1-1.5-.4-4.4l.1.15-.75-6.25q2.3 10.5 4.4 16.2.2.5.4 1.1 1.6 4.15 2.9 6.8.1-3.85.1-6.05v-.55q0-3.3-.35-5.55l-.3-1.1q-.5-2.35-1.25-4.2-.45-.9-.45-2.2l-.45-1v-1.8q1.65 5.2 3.95 10.85 1.15 2.55 2.3 5.4 1.4 3.35 3.15 6.6h.25V33v-4.25q-.1-.15 0-.15-.1-3.2-.25-4.8-.2-2.1-.75-4.25-.55-1.7-.55-2.45v-1q3.05 5.5 7.5 13.2 1.85 3.15 4.15 6.7l.2.25q-.65-2.4-1.65-6.75-.4-2.25-1.05-4.85-1.45-6.8-2.1-9v-.2q2.95 4.95 6.9 12.9.35.85.8 1.45 3.05 5.7 4.95 8.85-.1-4-1.05-8.5-.75-3.75-2.15-7.85l-.2-.7q.3.9 2.05 3.9 1.6 2.95 2.25 4.2.65 1.1.65 1.35.75 3.9 3 12.15.25 0 .25.45l.2-6.95v-4.05q-.1-.85-.3-1.95-.15-.55-.35-1.2v-2.45q.8 1.8 1.55 3.75 1.4 3.95 2.75 9.15 1.05 4.2 2.9 11.95V33.95q-.05-.2-.05-.3-.1-.25-.15-.45l.2.2v.55l.1.3q3.65 10.8 8.15 27.95.35-8.65.1-11.05l-.45-3V44.8q3.05 11.8 2.9 16.45-.1 4.45.25 7.1.85 8 1.5 12.1 0-1.3.45-10.1.1-2.1.2-4.75.35-8.55.9-12.2 1.3 11.55 2.7 20.55 1.15 7.7 2.1 13.75h.2q1.1-5.95 1.85-9.65.75-4.85.95-6.3v-.2q.3 3.7.7 8.15.3 5 .75 10.9.5 8.3.5 16.2v.25q.25-2.25 1.1-5.9.65-3.15 1.15-5.4V95q-.05-.35-.05-.75l-.65-8.25q-.25-2.1-.55-4.25-.35-2-.8-4l-1.4-6.25v-.15l-.1-.45q-.2-.65-.35-1.2-.15-.55-.25-1.1l-.1-.35-.2-.6-.6-2.1q-.7-2.3-1.5-4.5-.1-.2-.25-.55v-.1q-.3-.8-.5-1.55l-.25-.4q-.1-.25-.1-.35l-5-10.05q-2.95-5.15-6.65-9.95l-.3-.3q-.2-.2-.35-.45-2.45-3.2-5.15-6z" id="HaiSpe045__Symbol_108_0_Layer0_0_FILL"/></defs><use xmlns:xlink="http://www.w3.org/1999/xlink" xlink:href="#HaiSpe045__Symbol_177_0_Layer0_0_FILL" transform="translate(87.2 48.4)" id="HaiSpe045__col1n"/><use xmlns:xlink="http://www.w3.org/1999/xlink" xlink:href="#HaiSpe045__Symbol_108_0_Layer0_0_FILL" transform="translate(96.75 56.9)" id="HaiSpe045__col1d"/></g></g><g transform=""><g transform=""><defs><path fill="#000000" d="M0 11.6Q18.2-5.35 39.5 6.55V5.3Q19.5-7.1 0 9.5v2.1m96.75 0V9.5q-19.5-16.6-39.5-4.2v1.25q21.3-11.9 39.5 5.05z" id="FacBro010__Symbol_10_0_Layer0_0_FILL"/></defs><use xmlns:xlink="http://www.w3.org/1999/xlink" xlink:href="#FacBro010__Symbol_10_0_Layer0_0_FILL" transform="translate(144.15 121.9)" id="FacBro010__col1n"/></g></g></svg>