<?xml version="1.0" standalone="no"?>
<svg width="800" height="800" xmlns="http://www.w3.org/2000/svg" id="stage-svg" xmlns:xlink="http://www.w3.org/1999/xlink" preserveAspectRatio="none" viewBox="0 0 385 385"><g transform=""><g transform=""><defs><path fill="#E9AF8B" d="M191.5 95.8q0-39.7-28.05-67.75-16.2-16.2-36.3-23.05-14.7-5-31.4-5t-31.4 5q-20.1 6.85-36.3 23.05Q0 56.1 0 95.8q0 32.25 18.5 56.85l.05.05q.6.75 1.2 1.55l1 1.2L28 163.5q0 .05.05.05l.7.7q3.5 3.4 7.15 6.4v.05l-.05-.05q-5.81 7.718-10.6 17.75-.078.183-.2.35l-.3.7q-.06.17-.15.35-.117.253-.25.5l-2.6 6.15q-5.345 13.608-8.3 30.1-.05.2-.05.4-.15 2.45.15 4.85Q15.7 245.9 31 249.35q.2.05.45.1l.05-.05q.15.05.25.05.2.6.4 1.15.4.95 1.1 1.75 0 .05.05.1v19.45q-3.9.7-7.8 2.5-.6.267-1.2.55-.94.67 0 .8h143.25q1 0 0-.6-.775-.405-1.55-.75-3.9-1.8-7.8-2.5v-19.45q.05-.05.05-.1.7-.8 1.1-1.75.2-.55.4-1.15.1 0 .25-.05l.05.05q.25-.05.45-.1 15.3-3.45 17.45-17.55.3-2.4.15-4.85 0-.2-.05-.4-3.7-20.65-11.15-36.75-4.8-10.45-11.15-18.95h-.05q0-.1-.1-.2 3.65-3 7.15-6.4l.7-.7q.05 0 .05-.05l7.25-8.05 1-1.2q.6-.8 1.2-1.55l.05-.05q18.5-24.6 18.5-56.85z" id="SkiSki001__Symbol_10_0_Layer0_0_FILL"/><path fill="#D79C78" d="M-36.05 227.75h-.2l-3.9.15-1.3.1q-8.5.6-13.15 1.65-4.7 1-5.35 1.3-.15.05-.25.1 8-1.3 16.1-1.8.3-.05.65-.05l2-.1q.2-.05.35-.05h.3q15.4-.65 30.05 2l4.15.7q1.15.2 2.3.45 1.75.35 3.45.75l.3.1q.1 0 .2.05.15 0 .3.05-.4-.15-.8-.25-1.7-.6-3.45-1.05-.55-.15-1.05-.3-.15-.05-.25-.05-10.8-3-22-3.6-.4-.05-.8-.05-.55-.05-1.15-.05l-6.5-.05m3.4-52.2q3.05 1.2 6.25 0 1.6-1.65.35-3.6-.1-.15-.15-.25-3.05-1-6.9 0-.5.7-.6 1.4-.2 1.1.8 2.25.1.1.25.2M3.2 203.7q-1.25-1.15-2.25 0-.05.25 0 .55.25 1.6.15 3.25l.1.05q.7.3 1.05-.35l.1-.2q.15-.45.3-.85.25-.8.4-1.55.05-.15.05-.3l.1-.6m55.4 25.95q-4.65-1.05-13.15-1.65l-1.3-.1-3.9-.15h-.2l-6.5.05q-.6 0-1.15.05-.4 0-.8.05-11.2.6-22 3.6-.1 0-.25.05-.5.15-1.05.3-1.75.45-3.45 1.05-.4.1-.8.25.15-.05.3-.05.1-.05.2-.05l.3-.1q1.7-.4 3.45-.75 1.15-.25 2.3-.45l4.15-.7q14.65-2.65 30.05-2h.3q.15 0 .35.05l2 .1q.35 0 .65.05 8.1.5 16.1 1.8-.1-.05-.25-.1-.65-.3-5.35-1.3M29.55 173.1q-.2 1.1.8 2.25.1.1.25.2 3.05 1.2 6.25 0 1.6-1.65.35-3.6-.1-.15-.15-.25-3.05-1-6.9 0-.5.7-.6 1.4z" id="SkiSki001__hll_0_Layer0_0_FILL"/><path fill="#BB7E59" d="M-54 165.45q-.05.05-.05.1l-4.3 21.85q-.45 2.1-.85 4.05l-.1.6q-.2.8-.35 1.6-1.5 7.35-2.3 12.15-.75 4.4.45-.6.4-2.5 1.45-6.25.1-.6.25-1.25.7-3.15 1.3-5.65.65-3.05 1.15-5.1h.05l-.05-.05v-.05q.2-.9.35-1.55.2-.95.4-1.55v-.05q0-.15.05-.25.15-.75.2-.85l3.25-16.8.05-.05q0-.25-.1-.4-.1-.2-.3-.2-.2-.05-.3 0-.05 0-.05.05-.05 0-.1.05t-.1.2m81.8 53.1q5.828-.808 11.3-1.95-.15 0-.3.05-.95.05-1.9.15-.75.05-1.5.15-13.1 1.2-26.3 1.45-4.5.1-9 .1-17-.1-34.1-1.8-.65-.1-1.2-.15 5.808 1.176 11.85 2 11.28 1.525 23.45 1.85h.55v.1l1.4 12.2v-.4l.05.4 1.4-12.2v-.1h.05q.15 0 .35.05l5.2-.2q9.762-.455 18.7-1.7m30.1-53.2l-.05-.05q-.15-.05-.35 0-.2 0-.3.2-.1.15-.05.4l3.25 16.85q.1.2 1.05 4.3v.05q.45 2 1.1 4.95.55 2.4 1.2 5.4l.1.4q.25 1.2.5 2.25 1 3.35 1.35 5.75 1.05 4.3.3.1-.9-5.3-2.65-13.9-.4-2.15-.9-4.5L58.1 165.7v-.1q-.1-.2-.2-.25m2.25-34.1q-1.35 1.05-2.8 2.1l-1.55 1.15q-20.35 14.1-45.8 16l-1.1.05q-3.35.2-6.8.2h-.2q-3.45 0-6.8-.2l-1.1-.05q-25.45-1.9-45.8-16l-1.55-1.15q-1.45-1.05-2.8-2.1l-1.15-.9q10.019 8.81 21.45 14.1 17.928 7.84 37.75 7.85h.2q19.823-.01 37.75-7.85 11.45-5.3 21.45-14.05l-1.15.85z" id="SkiSki001__hdd_0_Layer0_0_FILL"/><filter id="SkiSki001__Filter_1" x="-20%" y="-20%" width="140%" height="140%" color-interpolation-filters="sRGB"><feColorMatrix in="SourceGraphic" values="1 0 0 0 0 0 1 0 0 0 0 0 1 0 0 0 0 0 0.75 0" result="result1"/></filter></defs><use xmlns:xlink="http://www.w3.org/1999/xlink" xlink:href="#SkiSki001__Symbol_10_0_Layer0_0_FILL" transform="translate(96.75 58)" id="SkiSki001__col1n"/><use xmlns:xlink="http://www.w3.org/1999/xlink" xlink:href="#SkiSki001__hll_0_Layer0_0_FILL" transform="matrix(1.00052 0 0 1 190.5 98.75)" id="SkiSki001__col1d"/><use filter="url(#SkiSki001__Filter_1)" xmlns:xlink="http://www.w3.org/1999/xlink" xlink:href="#SkiSki001__hdd_0_Layer0_0_FILL" transform="matrix(1.00052 0 0 1 190.5 98.75)" id="SkiSki001__col1s"/></g></g><g transform=""><g transform=""><defs><path fill="#434343" d="M125.7 0q-.2.05-.35.1Q62.1 12.35.85.2.6.1.35.1.2.05.1.05.05 0 0 0q0 .05.05.1v19.5q.35-.1.7-.15h.1q32.4-5.15 62 2.9 29.7-8.1 62.3-2.85.15 0 .3.05.15 0 .25.05V.05l.05-.05h-.05z" id="LegPan001__Symbol_1_0_Layer0_0_FILL"/></defs><use xmlns:xlink="http://www.w3.org/1999/xlink" xlink:href="#LegPan001__Symbol_1_0_Layer0_0_FILL" transform="translate(129.65 310.25)" id="LegPan001__col1n"/></g></g><g transform=""><g transform=""><defs><path fill="#000000" d="M146.9 7.7q-9-5.25-23.3-6.95-13.1-1.45-27.4 0-7 .8-14.2 2.45l-8.3 2.05-8.3-2.05Q58.2 1.55 51.2.75 36.9-.7 23.8.75 9.1 2.5 0 8h147.4l-.5-.3z" id="LegSho001__Symbol_2_0_Layer0_0_FILL"/></defs><use xmlns:xlink="http://www.w3.org/1999/xlink" xlink:href="#LegSho001__Symbol_2_0_Layer0_0_FILL" transform="translate(118.8 326)" id="LegSho001__col1n"/></g></g><g transform=""><g transform=""><defs><path fill="#FF98D0" d="M162.7 44.9q-.35-1.35-.65-2.7l-.2-.6-.4-1.6q-.75-2.7-1.6-5.3-.3-1-.6-1.95-.3-.8-.55-1.6-.1-.2-.15-.35-.45-1.25-.85-2.45-.9-2.4-1.85-4.75-1-2.3-2-4.5-1.8-3.95-3.85-7.6l-.5-.9q-.45-.75-.85-1.45-.4-.65-.75-1.25-.2-.35-.4-.65-.4-.65-.75-1.25l-1.4-2.1q-.3-.4-.55-.8-1.05-1.5-2.1-2.9-.05-.1-.15-.2l-1.85 1.4q-1.35 1.05-2.8 2.1l-1.55 1.15q-2 1.4-4 2.65-.55.35-1.1.65-2.5 1.5-5.05 2.85-.6.25-1.15.55-2.65 1.3-5.35 2.45-.6.2-1.15.45-3.2 1.3-6.55 2.35l-1.2.4q-2.75.8-5.55 1.45-.6.1-1.2.25-3.3.7-6.65 1.2l-1.2.2q-2.3.3-4.65.5-.5 0-1.05.05h-.05l-1.05.05q-.15 0-.3.05-2.95.15-6 .15H81.3q-2.9-.05-5.7-.2l-1.1-.05h-.1l-1.3-.1q-2.7-.25-5.4-.65-.4-.05-.85-.1-.15-.05-.3-.05-3.55-.6-7-1.35l-1.2-.3q-2.6-.65-5.15-1.45l-1.2-.4q-3.5-1.15-6.9-2.55-.65-.3-1.25-.55-2.45-1.05-4.75-2.25-.6-.3-1.15-.6-2.65-1.4-5.2-3-.55-.35-1.1-.65l-3-2L27.1 3.5l-.7-.5-2.1-1.6L22.45 0q-.1.05-.15.15V.2q-1 1.3-1.95 2.65-.35.5-.65 1-1.6 2.3-3.05 4.75 0 .05-.05.1l-.7 1.3q-.5.8-.95 1.6-.15.25-.3.55-1.35 2.45-2.55 5-.5.95-.95 1.95-.2.45-.4.95-.65 1.35-1.25 2.75-1.15 2.7-2.15 5.55l-.9 2.4q-.15.4-.3.85-.7 2.05-1.35 4.2-.85 2.85-1.65 5.8-.1.3-.15.6l-.7 2.7-.1.5h.05q-.1.4-.25.8v.2q-.1.3-.15.6l-.1.4-.2 1q-.4 1.7-.75 3.4v.2q-.2.9-.35 1.8-.2 1-.4 2.05-.05.2-.05.4v.1q1.3-1.15 2.85-1.9.5-.3 1.05-.5 1.5-.65 3.15-.95.15-.05.3-.05l1.85-.2q.55-.05 1.1-.05 3.3.05 6 1l1 .4q2.6 1.2 4.55 3.35l-2.8 11.75q-.55 2.1-1.05 4.2-.1.4-.2.85-.15.5-.25 1-.25.9-.45 1.75l-.95 3.6v.25l-.05.05h.2q.25.1.5.15H16.95q1.3.3 2.65.6.45.1.95.25.3.05.55.1 2.75.6 5.55 1.2.5.1 1.05.25 3.25.65 6.55 1.25.6.1 1.15.2 3.6.6 7.15 1.15.5.05 1.05.15l6.1.8q.4.05.85.1l6.5.7q.45 0 .9.05 3.45.3 6.9.55l1 .1q3.65.2 7.3.35h.95q3.85.15 7.7.15h1.1q3.8 0 7.6-.1.45-.05 1-.05 3.6-.1 7.25-.35.5-.05.95-.05 3.5-.2 6.95-.5l.9-.1q3.25-.3 6.5-.7l.8-.1q3.1-.35 6.15-.8.5-.05 1-.15 3.6-.5 7.15-1.15.55-.1 1.15-.2 3.3-.6 6.6-1.25.5-.1 1.05-.2 2.9-.65 5.85-1.3.1 0 .2-.05l1-.2q1.45-.35 2.95-.7H148.1q.25-.05.5-.15h.2l-.05-.2v-.05l.05.05v-.1h-.05l-5.15-20.7h-.05l-.55-2.45q1.7-1.9 3.9-3 .45-.25 1-.45 2.6-1.15 5.95-1.25.5-.05 1.1 0h.7l2.05.2q.15 0 .3.05 1.1.2 2.15.55.5.15 1 .4.45.15.85.35 1.65.8 3.05 2.05V56.2q0-.15-.05-.35-.3-1.55-.55-3.05l-.1-.4q-.05-.2-.05-.4-.25-1.1-.45-2.2-.1-.45-.2-.85l-.1-.5q-.1-.4-.2-.75-.05-.35-.15-.7-.05-.2-.1-.45-.05-.05-.05-.15-.15-.75-.35-1.5M142.6.25V.2l.05.1-.05-.05z" id="ShiLon016__Symbol_290_0_Layer0_0_FILL"/><path fill="#FF4DAD" d="M1 .8L0 0l.4 1.5q.35 1.4.65 2.85.05.15.1.35 0 .15.05.35.1.35.15.75v.05q.05.2.05.4.05.15.1.35l.1.7q.25 1.75.4 3.55.15 1.7.2 3.45.1 2.95-.15 5.9l-.1 1.2q-.25 1.5-.7 3L.6 26.25l.1-.1q.1-.1.2-.1.05 0 .15.05.15 0 .25.1v.05h.05l.05.05q0 .05.05.15.05.1.05.25l-.05.35.3-.95q.15-.55.3-1.05.45-1.8.75-3.65.25-1.65.35-3.35.2-2.8.05-5.6Q3.1 11.2 3 10q-.05-.65-.15-1.3-.05-.55-.15-1.1-.15-1.15-.35-2.35-.05-.15-.05-.35-.05-.2-.1-.35-.05-.4-.15-.75Q2 3.6 2 3.45V3.4l-.1-.3q-.25-1-.45-1.95Q1.2.95 1 .8M112.9.5q-.25.15-.45.3-.65.5-1.3 1.05-.2.85-.35 1.7-.05.35-.1.65-.05.2-.1.35-.05.2-.05.35-.1.45-.15.85-.05.2-.05.4-.05.05-.05.1-.35 2.4-.5 4.8-.2 2.95-.05 5.9.05.55.1 1.15.1 1.65.35 3.3.3 1.85.7 3.65l.3 1.2.7-.25q-.2-1.15-.3-2.2-.15-1.25-.25-2.4-.05-.25-.05-.5l-.1-1.2q-.4-6.1.35-12.05V7.6q0-.15.05-.25l.1-.7q0-.2.05-.35.05-.2.05-.4.3-1.8.65-3.6.05-.4.15-.7v-.05q.1-.35.2-.75l.1-.3z" id="ShiLon016__Symbol_260_0_Layer0_0_FILL"/><path fill="#FFCDE8" d="M64.05 82.65q-.2-.05-.35-.05h-.25l-.6 5.8 1 .1.55-5.85h-.35m16.15.55h-.4V89h1.1v-5.8H80.2m-7.95-.1q-.3-.05-.55-.05h-.25l-.3 5.8h.95l.35-5.75h-.2M41.6 86.2l1-5.9q-.4-.05-.75-.1h-.2l-1.1 5.85q.5.05 1.05.15m7.6-5.1q-.2 0-.45-.05L47.7 87q.4.05.85.1l1.05-5.9-.4-.1m7.55.9q-.1-.05-.25-.05-.35-.05-.65-.05l-.8 5.9q.45 0 .9.05L56.8 82h-.05m-30.3-4.35q-.15-.05-.3-.05-.35-.1-.65-.15l-.85 5.75q.5.1 1.05.25l.9-5.75q-.05-.05-.15-.05m7.7 1.4q-.45-.1-.85-.15l-1.05 5.8q.6.1 1.15.2l1.05-5.8q-.15-.05-.3-.05m-19.9 1.25l-.05.1v.35h.05v-.45m4.85-4.15l-.3-.1q-.15-.05-.3-.05l-.9 5.65q.45.1.95.25l.85-5.7q-.15-.05-.3-.05m1.4-21.4v.2l.1-.25.1-.65h.05l.05-.5q.05-.4.1-.75l-.35 1.9-.05.05m4.25-17.05v.05l.05-.05h-.05m-7.95 9.65q-.25-.1-.45-.15-.35-.15-.65-.25l-1.4 6.75 1 .4 1.5-6.75m-7.15-1.8h-.5q-.3-.05-.6 0l-1.35 7.2q.55-.05 1.1-.05l1.35-7.15m-6.6.8q-.2 0-.3.05-.25.05-.45.15h-.1l-.05.1-1.3 7.8q.5-.3 1.05-.5l1.3-7.3v-.1l.05-.25q-.15 0-.2.05m11.1-35.75q-.15-.35-.25-.6-.5.8-.95 1.6-.15.25-.3.55-.05 4.9-2.6 6.9-.5.4-1.3 1Q8.1 21.4 7.5 22.8q.2.85.95 2 1 1.45 1 2.85 0 1.55-1.65 3.1-.65.65-1.6 1.25-3.25 2.1-3.25 3.75 0 1.1.9 2.55.9 1.5.9 2.1 0 1.05-.3 1.55-.4.8-1.9 2.3Q1.9 44.9.5 45.9l-.5.3v.05l1.7-.7-.55.25q.6-.25 1.25-.45 1.75-.6 3.55-.8l.15-.15q1.65-1.4 1.65-2.55 0-.6-.8-2.75-.8-2.1-.8-2.9 0-1.45 3.5-3.6 1.45-.85 2.3-1.85 1.2-1.4 1.2-3.1 0-1.55-1.3-3.35-1.3-1.75-1.3-2.65 0-1 2.1-3.05 2.1-2 2.1-5.15 0-1.6-.6-2.85m6.25 10.2q1.05-1.9 1.05-2.75 0-1.05-1.75-3.3-1.75-2.3-1.75-4.3 0-.75.4-1.85.4-1.05.4-2.2 0-.95-.15-1.8-.2-.15-.9-.75-1.6 2.3-3.05 4.75.05 2.5.3 3.65.1.35 1.35 2.95 1.15 2.3 1.15 3.45 0 1.8-1.1 2.95-1.1 1.15-1.1 1.75 0 1.4 2.25 3.4 2.25 1.95 2.25 3.55v.45q-.1.7-.45 1.75-.45 1.4-.45 1.45 0 2.8 5.3 3l.15-.9q-1.45-.85-1.7-1.1-.65-.6-.65-1.7 0-.6.85-1.8.25-.35.45-.7.4-.75.4-1.25 0-1.2-2.15-2.85-2.15-1.65-2.15-3.35 0-.6 1.05-2.5m7.55-9.75q.1.05.2.15l2.6-3.9q-.55-.35-1.1-.65l-2.55 3.8.2.1v.05q.1.05.2.15.2.15.45.3M20.45 0q-.1.05-.15.15-1 1.35-1.95 2.7l.45.45.35.35L21.65.9l-1.2-.9m4.65 3.5l-.7-.5-2.3 3.35.15.15q.2.15.4.35.25.2.5.45l2.3-3.55-.35-.25m12 7.4q-.6-.3-1.15-.6l-2.4 4.45q.1.05.2.15.45.25.85.5l2.5-4.5m25.4 16.05q-1.45-.25-2.85-.55l-5.7 54.2q1.45.15 2.95.3l5.6-53.95m9 3.6q.75-.9 2.55-2.25-1.05-.05-2-.1-.2-.05-.35-.05h-.25q-.25-.05-.45-.05-.15-.05-.3-.05h-.3q-.45-.05-.85-.1l-.75.2q-1.8 1.2-2.35 2.45-.05.05-.05.15-.5 1.1-.5 3.3 0 1.9.5 2.85.3.65 1.9 2.55-2.1 1.6-3 3.45-.9 1.85-.9 4.65 0 1.75.85 3.25.5.85 2.15 2.85-1.65.85-2.8 2.75-1.3 2.1-1.3 4.45 0 3.1 2.9 6h.1q-1.65.4-2.8 2.6-1.1 2.1-1.1 4.5 0 1.5 1 2.95.3.4 1.8 1.95h.1q-.95.15-2.95 2l-.5.5 1.3.1q.15 0 .3.05h.25q.35.05.7.05h.1q.3.05.6.05 1.1.05 2.2.15.4-.5.9-.95 1.6-1.45 2.8-1.55-2.5-1.4-3.15-2.1-.95-1-.95-4.8 0-2.1.75-3.3.9-1.4 3.35-2.6-1.9-1-2.65-2.55-.55-1.15-.55-3.05 0-2.55 1.9-4.9 1.7-2.1 4.1-3.2-2.8-1.9-3.75-3.05-1.15-1.45-1.15-3.55 0-2.1 1.7-4.05 1.45-1.7 3.9-3.05-4-2.45-4-5.35 0-1.7.85-2.95.05-.1.15-.2M55.05 25.3q-.3-.05-.6-.15-.15-.05-.25-.05l-.3-.1q-.75-.2-1.5-.45L45.45 79.6q1.45.15 2.9.35l6.7-54.65m2.5-6.9l-1.2-.3-1.75 5.75q.1 0 .25.05l.7.2q.15 0 .3.05l1.7-5.75m-9.35 3.4q.45.15.9.35l2.1-5.5-1.2-.4-2.15 5.45q.15.05.35.1m-5.1-8.1q-.65-.3-1.25-.55L39.5 18.1q.05 0 .1.05.05 0 .15.05.1.05.25.15.25.1.5.25.1.05.25.1l2.35-5m.85 9.1q.3-.7.65-1-2.1-.85-4.15-1.85-.15-.05-.25-.1-.15-.1-.25-.15-.25-.15-.5-.25-.7 2.4-4.1 3.75-4.3 1.75-4.3 4.85 0 1.3.7 2.7.65 1.45 2.1 2.95 2.8 3 2.8 4.15 0 2.15-3.65 3.75t-3.65 3.65q0 1.8 2.3 4.65 2.3 2.9 2.3 4.2 0 1.25-3.15 3.2-3.15 1.9-3.15 4.4 0 3.2 2.55 5.8 2.55 2.65 2.55 4 0 1.7-2.7 3-2.05.95-3.15 2.15h.15q.75.15 1.6.3 1.25.25 2.55.5.35-.35.75-.7 1.9-1.7 2.3-2 .65 2.05 2.55 3.6 1.1.2 2.15.35h.2q.15.05.4.1.55.1 1.15.15-.85-1.8-2.15-3-2-1.85-2-3.05 0-1.65 3.05-3.45 3.1-1.85 3.1-4.35 0-1.95-1.6-4.1-1.6-2.2-1.6-3.1 0-1.9 2.75-3.85 2.75-1.9 2.75-4 0-1.9-2-4.25-2-2.4-2-3.45 0-3 3-5 3-1.95 3-4.25 0-1.05-.6-2.35-.45-.9-1.15-1.9-1.75-2.45-1.75-3.7t.45-2.35m-3.25 1.75q.1-.1.15-.2-.05.45-.15 1.15 0 1.2 1.15 2.7Q43 29.65 43 30.65v.1q-.15.65-2 2.8-2.05 2.35-2.35 3.3.45-1.6-1-4-.8-1.25-1.2-2.1-.5-.95-.5-1.35 0-1.2 1.15-2.2.55-.45 1.7-1.05 1.05-.5 1.9-1.6m-5.3 24.7q-1.55-1.7-1.55-2.8 0-1.6 2.7-3.25.8-.5 1.3-.95.25 1.85 1.65 3.4 1.7 1.85 1.7 2.9 0 .8-.65 1.3-.4.3-1.45 1-1.4 1.35-2.05 2.4-.05-2.25-1.65-4m.95 8v1.3q.95 2 2.35 3.55.8.95.8 2.15 0 1.25-2 2.65-2.55 1.8-3.35 3.15h-.1q-.15-1.5-1.2-3.3-1-1.7-1-3 0-2.15 1.75-3.5 1.95-1.6 2.75-3M80.6 20.9H79.3v6.25h1.3V20.9m-8.2-.25l-1.3-.1-.6 6.15q.15 0 .3.05h.3q.25 0 .45.05h.3l.55-6.15m-7.55-.85q-.15-.05-.3-.05l-1.25 6h.1l1.2.2 1.1-6.05q-.4-.05-.85-.1M143 81.75l-.9-5.7h-.1q-.4.1-.85.2l.85 5.7 1-.2m-16.75-2.65q-.1 0-.15.05l1.05 5.8q.55-.1 1.15-.2l-1-5.8q-.55.05-1.05.15m7.7-1.35l.95 5.75q.5-.1 1.05-.2l-.9-5.75q-.2 0-.35.05-.35.05-.65.15h-.1m-29.2 4.2q-.5.05-.95.1l.85 5.9.9-.1-.8-5.9m13.25-1.6l1 5.9q.5-.05 1-.15l-1.1-5.85-.9.1m-6.2.75h-.15l-.7.1 1.1 5.95.8-.1-1.05-5.95m-22.7 1.95q-.5 0-1 .05l.4 5.8q.45-.05 1-.05l-.4-5.8m8.05-.4h-.35q-.3 0-.65.05l.6 5.8q.5-.05.95-.05l-.55-5.8m8.3-57.15q-.15.05-.25.1h-.05l6.6 54.4q.65-.05 1.25-.15l1.7-.2-6.95-54.75q-1 .25-2 .55-.15 0-.3.05M83 30.75q-.15-1.25-.55-2.25H78.1q-.2-.05-.4 0-.45 1-.55 2.25-.05.35-.05.75 0 .95.9 3.7.9 2.7.9 3.95 0 1.1-1.05 2.9-1.05 1.8-1.05 2.65 0 2.05 1.35 4.55Q79.5 51.7 79.5 53q0 2.05-1.7 4.1-1.7 2-1.7 4 0 2.2 1.5 4.6 1.5 2.45 1.5 4.45 0 1.7-1.1 3.55-1.1 1.85-1.1 3.4 0 1.5.8 3.35.45.9.95 1.65h2.85q.5-.75.9-1.65.8-1.85.8-3.35 0-1.55-1.1-3.4-1.1-1.85-1.1-3.55 0-2 1.5-4.45 1.5-2.4 1.5-4.6 0-2-1.7-4-1.7-2.05-1.7-4.1 0-1.3 1.35-3.75 1.35-2.5 1.35-4.55 0-.85-1.05-2.65-1.05-1.8-1.05-2.9 0-1.25.9-3.95.9-2.75.9-3.7v-.75m17.5-4.1q-1.4.25-2.85.5l5.6 53.85q1.4-.15 2.85-.3h.1l-5.7-54.05m-6.85 3.95q-.55-1.25-2.35-2.45l-.7-.1q-.75.05-1.45.15h-.3q-.15 0-.3.05h-.45q-.15 0-.3.05h-.3l-1.3.1q1.7 1.25 2.4 2.15.1.1.15.2.85 1.25.85 2.95 0 2.9-4 5.35 2.45 1.35 3.9 3.05 1.7 1.95 1.7 4.05 0 2.1-1.15 3.55-.95 1.15-3.75 3.05 2.4 1.1 4.1 3.2 1.9 2.35 1.9 4.9 0 1.9-.55 3.05-.75 1.55-2.65 2.55 2.45 1.2 3.35 2.6.75 1.2.75 3.3 0 3.8-.95 4.8-.65.7-3.15 2.1 1.2.1 2.8 1.55.5.45.95 1 1-.1 1.95-.15.65-.05 1.25-.05.4-.05.75-.05t.7-.05q.15-.05.3-.05h.55l-.6-.6q-2-1.85-2.95-2h.1q1.5-1.55 1.8-1.95 1-1.45 1-2.95 0-2.4-1.1-4.5-1.15-2.2-2.8-2.6h.1q2.9-2.9 2.9-6 0-2.35-1.3-4.45-1.15-1.9-2.8-2.75 1.65-2 2.15-2.85.85-1.5.85-3.25 0-2.8-.9-4.65-.9-1.85-3-3.45 1.6-1.9 1.9-2.55.5-.95.5-2.85 0-2.2-.45-3.3-.05-.1-.1-.15m1.75-10.7l-1.2.2 1.1 6.05q.65-.1 1.35-.2L95.4 19.9m-6.95.75l-1.05.05q-.15 0-.3.05l.6 6.2q.1-.05.3-.05h.45q.1-.05.3-.05H89l-.55-6.2m29.25-6.85q-.6.2-1.15.45l2.35 5.2q.1-.1.2-.1.1-.1.25-.15.2-.1.5-.2.1-.1.25-.15l-2.4-5.05m-12.9 10.5q.1-.05.25-.05l-1.8-5.8q-.6.1-1.2.25l1.75 5.85q.1-.05.3-.05l.7-.2m4-7.3l2.1 5.55q.65-.25 1.3-.45l-2.2-5.5-1.2.4m48.1 29.25v.3l1.25 7q.5.15 1 .4l-1.25-7.45q-.5-.15-1-.25m-12.4.95q-.55.2-1.1.5l1.5 6.75q.45-.25 1-.45l-1.4-6.8m7.1-1.55q-.6 0-1.1.05l1.35 7.05q.5-.05 1.1 0l-1.35-7.1m-13.2.85l.5 2.3-.5-2.65.05.4-.05-.05m-10-15.75q.65-1.4.65-2.7 0-3.1-4.3-4.85-3.1-1.2-3.95-3.25-.1 0-.2.1l-.2.1q-.25.1-.5.25-.15.05-.25.1l-.2.1q-.05 0-.05.05l-3.6 1.5q.2.25.35.65.45 1.1.45 2.35t-1.75 3.7q-.7 1-1.1 1.9-.65 1.3-.65 2.35 0 2.3 3 4.25 3 2 3 5 0 1.05-2 3.45-2 2.35-2 4.25 0 2.1 2.75 4 2.75 1.95 2.75 3.85 0 .9-1.6 3.1-1.6 2.15-1.6 4.1 0 2.5 3.1 4.35 3.05 1.8 3.05 3.45 0 1.2-2 3.05-1.35 1.25-2.2 3.1.1-.05.2-.05 1.2-.2 2.55-.35.55-.1 1.05-.15 2.05-1.6 2.7-3.75.4.3 2.3 2 .5.45.9.8l.5-.1q.2-.05.5-.1.65-.15 1.35-.25.95-.2 1.95-.35-1.1-1.25-3.3-2.25-2.7-1.3-2.7-3 0-1.35 2.55-4 2.55-2.6 2.55-5.8 0-2.5-3.15-4.4-3.15-1.95-3.15-3.2 0-1.3 2.3-4.2 2.3-2.85 2.3-4.65 0-2.05-3.65-3.65t-3.65-3.75q0-1.15 2.8-4.15 1.45-1.5 2.15-2.95m-4.7 0q-.45.85-1.25 2.1-1.5 2.4-1 4-.3-.9-2.35-3.3-1.85-2.15-2-2.8v-.1q0-1 1.15-2.45 1.15-1.5 1.15-2.7-.1-.7-.15-1.15.05.1.15.2.85 1.1 1.85 1.6 1.2.6 1.75 1.05 1.15 1 1.15 2.2 0 .4-.45 1.35m-1.45 11.5q.5.45 1.3.95 2.7 1.65 2.7 3.25 0 1.1-1.55 2.8-1.6 1.75-1.65 4-.65-1.05-2.1-2.4-1-.7-1.4-1-.65-.5-.65-1.3 0-1.05 1.7-2.9 1.4-1.55 1.65-3.4m-1.65 22q0-1.2.8-2.15 1.4-1.55 2.35-3.55v-1.3q.8 1.4 2.75 3 1.75 1.35 1.75 3.5 0 1.3-1 3-1.05 1.8-1.2 3.3h-.1q-.8-1.35-3.35-3.15-2-1.4-2-2.65m3.6-53.45q-.6.25-1.15.55l2.5 4.65q.5-.3 1.05-.6l-2.4-4.6m7.7 1.2q.1-.1.2-.15.2-.15.45-.3.1-.1.2-.15.1-.1.25-.15l-2.65-3.95q-.55.35-1.1.65L131.9 12m3.85-8.35l-.95.7L137.15 8q0-.05.1-.05l.8-.7-2.3-3.6m10.9 5.5q-.3.65-.7 1.45-.6 1.25-.6 2.85 0 3.15 2.1 5.15 2.1 2.05 2.1 3.05 0 .9-1.3 2.65-1.3 1.8-1.3 3.35 0 1.7 1.25 3.1.8 1 2.25 1.85 3.5 2.15 3.5 3.6 0 .8-.8 2.9-.8 2.15-.8 2.75 0 1.15 1.65 2.55.1.1.2.15 2.7.3 5.3 1.35l-.55-.25.7.3-.05-.05q-1.4-1-2.05-1.65-1.5-1.5-1.9-2.3-.3-.5-.3-1.55 0-.6.9-2.1.9-1.45.9-2.55 0-1.65-3.25-3.75-.95-.6-1.6-1.25-1.65-1.55-1.65-3.1 0-1.4 1-2.85 1-1.5 1-2.55 0-1.15-.8-1.9-1.15-.8-1.8-1.3-2.6-2.05-2.6-7.05 0-.75.05-1.4-.45-.75-.85-1.45M142 3.7l.25-.3.55-.3q-1.1-1.6-2.25-3.1l-.8.6L142 3.7M140.65.3l-.05-.05V.2l.05.1m2 4.3q-.2.15-.35.35l-.9.8v.05q-.05.3-.05.6 0 1.15.4 2.2.4 1.1.4 1.85 0 2-1.75 4.3-1.75 2.25-1.75 3.3 0 .85 1.05 2.75t1.05 2.5q0 1.7-2.15 3.35-2.15 1.65-2.15 2.85 0 .5.4 1.25.2.35.45.7.85 1.2.85 1.8 0 1.1-.65 1.7-.2.2-1.15.8v.1l.2 1.1q4.7-.35 4.7-3 0-.05-.45-1.45-.35-1.05-.4-1.75-.05-.25-.05-.45 0-1.6 2.25-3.55 2.25-2 2.25-3.4 0-.6-1.1-1.75t-1.1-2.95q0-1.15 1.15-3.45 1.25-2.6 1.35-2.95.3-1.35.3-4.55 0-.25.05-.45-.4-.65-.75-1.25l-1.4-2.1-.1.05V4q-.2.15-.35.3-.15.15-.25.3z" id="ShiLon016__Symbol_257_0_Layer0_0_FILL"/><path fill="#DE2088" d="M25.6 32.65q-.15-.2-.35-.25-.2-.05-.35.1-.2.1-.25.3l-4.2 21.45v.2q0 .1.1.15v.05q.1.15.3.2.2.05.4-.05.15-.15.2-.35l4.2-21.4V33q.05-.2-.05-.35M9.5 42.7h.4l1 .1.8.1q1.85.3 3.75 1l.5.2q.3.1.65.25.2.05.45.15 2.3 1 4.7 2.5l.25-1.15Q13.7 40.7 6.2 41.7q-1.8.2-3.55.8-.65.2-1.25.45l.55-.25-1.7.7v.15q-.1.3-.15.6l-.1.4q.75-.3 1.5-.5.2-.1.4-.15.1-.05.25-.1h.1l.2-.1h.1q.2-.1.45-.15.1-.05.3-.05.05-.05.2-.05 2.55-.7 4.9-.75.2-.05.4 0 .3-.05.6 0h.1m88.55 35.9q-.15 0-.3.05-.35.05-.7.05t-.75.05q-.6 0-1.25.05-.95.05-1.95.15-1.9.05-3.8.15-.5 0-1 .05h-1.15q-.25 0-.5.05-2.45.05-4.9.05h-3q-1.95 0-3.95-.05-1.05-.05-2.05-.05h-.2q-.3-.05-.6-.05h-.2l-4.2-.2q-1.1-.1-2.2-.15-.3 0-.6-.05h-.1q-.35 0-.7-.05h-.25q-.15-.05-.3-.05l-1.3-.1-1.2-.1q-1.9-.15-3.75-.35-1.5-.15-2.95-.3-.5-.05-.95-.1-.25-.05-.45-.05l-.8-.1q-.3-.05-.55-.1-.7-.1-1.4-.15l-.6-.1h-.25q-.25-.05-.5-.05-.05-.05-.1 0-1.45-.2-2.9-.35l-3.6-.5q-.6-.05-1.15-.15-.6-.05-1.15-.15-.25-.05-.4-.1h-.2q-1.05-.15-2.15-.35-1.1-.15-2.15-.35-.15-.05-.3-.05l-.9-.1-.4-.1-1.2-.2q-.3-.05-.5-.1H31.45q-1.3-.25-2.55-.5-.85-.15-1.6-.3h-.15q-.05-.05-.1-.05-.2 0-.35-.05-.4-.1-.75-.15-2.4-.5-4.75-1-1.1-.2-2.15-.45-.25-.05-.45-.1-.1-.05-.15-.05h-.1q-.3-.1-.6-.15h-.05q-.1-.05-.2-.05-.05-.05-.1 0-.15-.05-.25-.1-.1 0-.15-.05h-.35q-.05-.05-.1-.05-.1-.05-.15-.05-.1-.05-.15-.05-.1-.05-.2-.05-.15.5-.25 1 .2.05.45.15.05 0 .15.05.05 0 .15.05.05 0 .1.05H17q.05.05.15.05.1.05.25.1.05-.05.1 0 .1 0 .2.05h.05q.3.05.6.15h.1q.05 0 .15.05.05 0 .15.05.15 0 .3.05l.3.1q.15 0 .3.05.75.15 1.55.3l3.3.7q.4.1.85.2.2 0 .4.05.3.05.65.15.15 0 .3.05.1 0 .15.05.25 0 .45.05.75.15 1.6.3.65.15 1.35.25.65.15 1.3.25h.05q.2.05.5.1.5.1 1.05.2.15 0 .4.05.4.05.85.15.15 0 .3.05 2.3.35 4.5.7h.2q.15.05.4.1.8.1 1.65.25.2 0 .45.05h.2q.35.05.75.1 1.35.2 2.7.35 1.45.2 2.95.35.25.05.5.05.25.05.45.05l.4.1h.2q.7.05 1.4.15.25.05.55.1l.8.1q.2 0 .45.05.4.05.85.1l1.8.2h.2q.3 0 .65.05.15 0 .25.05h.05q1.9.15 3.85.35.15 0 .35.05 1.05.05 2.15.15.15 0 .3.05h.25q.15 0 .35.05h.35q.3 0 .6.05.7.05 1.45.1 2.5.15 5 .25h.25q.25 0 .55.05h.2q1.05 0 2.1.05 2 .05 3.95.05h2.4q2.75 0 5.5-.05.25-.05.5-.05h1.2q.5-.05 1-.05l4.6-.2 1.1-.1q.7-.05 1.35-.05.35-.05.65-.05h.35q.15 0 .35-.05.15-.05.3-.05h.25q.55-.05 1.15-.1 2.05-.15 4.15-.35.2-.05.45-.05.45-.05.95-.1.65-.05 1.35-.15h.2l.5-.1q.8-.1 1.6-.15l.5-.1 1-.1q.5-.1 1.05-.15l.7-.1h.25q.55-.05 1.1-.15.9-.1 1.85-.2 1.55-.2 3.15-.4l.9-.1q.1-.05.15-.05l.5-.1q1.2-.2 2.55-.35 2-.35 4-.6.05-.05.15-.05.5-.1 1.05-.15.05-.05.15-.05 1.05-.2 2.1-.35.2-.05.5-.1.1-.05.25-.05l1.1-.2q1.25-.25 2.55-.45h.1q.3-.1.65-.15.15-.05.35-.05 1.45-.35 2.95-.65.7-.15 1.45-.3.2-.05.45-.1l.5-.1q.4-.05.75-.15.45-.1.85-.2h.1q.25-.1.5-.15H143q.3-.1.65-.15l.4-.15q.15-.05.5-.1.25-.1.6-.15.3-.1.5-.15l-.25-1q-.2.05-.25.05-.35.05-.6.15-.35.05-.5.1l-.4.15q-.35.05-.65.15H142.85q-.3.05-.6.15-.8.2-1.6.35l-.5.1q-.25.05-.45.1-.75.15-1.45.3-1.55.35-3.15.7h-.15q-.45.1-.95.2-.2 0-.4.05-1 .15-1.95.35-.7.1-1.35.25-.3.05-.5.1l-.5.1q-.8.1-1.6.25-.15.05-.35.05-.4.1-.85.15-.15.05-.35.05-1.35.2-2.75.45-.5.05-1.05.15-1.35.15-2.55.35-.1 0-.2.05-.15 0-.3.05-.15 0-.35.05l-4 .5-1.7.2q-.6.1-1.25.15H111.85q-.85.1-1.7.25l-1 .1-.5.1q-.8.05-1.6.15l-.6.1h-.1q-1.45.15-2.85.3-2.5.25-4.9.45h-.55m41.35-32.8l-2.55-13q-.05-.2-.25-.3-.15-.15-.35-.1l-.2.1q-.1.05-.15.15-.1.15-.05.35v.05l4.2 21.4q.05.2.2.35.2.1.4.05t.3-.2v-.05q.1-.05.1-.15v-.2l-1.4-7.3q2-1.25 4-2.1.55-.3 1.1-.5 2.35-.95 4.7-1.35l.8-.1q.25-.05.5-.05.5-.05 1.1-.05 2.45-.1 5.3.6.5.1 1 .25 1.65.45 3.45 1.2-.05-.35-.15-.7-.05-.2-.1-.45l-1.4-.6h-.05l-.7-.3.55.25q-2.6-1.05-5.3-1.35-4.8-.5-9.95 1.55-.55.2-1.1.45-2 .85-4 2.1M143.05.25l-.55.3-1.6 1.55q-1.1 1-2.6 2.3l-.8.7q-.1 0-.1.05-.1.05-.15.1-.35.3-.7.55-.4.35-.85.7-.1.05-.2.15-1.15.9-2.25 1.75-.15.05-.25.15-.1.05-.2.15-.25.15-.45.3-.1.05-.2.15-.05 0-.1.05-2.55 1.75-5.2 3.35-.55.3-1.05.6-2.5 1.4-5 2.65-.15.05-.2.1-.15.05-.25.1-.15.05-.25.15-.3.1-.5.2-.15.05-.25.15-.1 0-.2.1h-.05q-3.3 1.45-6.65 2.65-.65.2-1.3.45-2.75.9-5.55 1.6l-.3.1q-.15 0-.25.05l-.7.2q-.2 0-.3.05l-.3.1q-2.95.65-6 1.15-.45.1-.85.15-.7.1-1.35.2-3.1.45-6.3.7H89q-.2 0-.3.05h-.45q-.2 0-.3.05h-.3q-1.5.1-3 .15-1.3.05-2.6.05H78.35l-2.3-.1q-1.85-.1-3.65-.2-.15-.05-.3-.05h-.3q-.2-.05-.45-.05h-.3q-.15-.05-.3-.05-3-.3-5.9-.75l-1.2-.2h-.1q-.35-.1-.65-.1-3.35-.6-6.55-1.4-.15-.05-.25-.1-.15-.05-.3-.05l-.7-.2q-.15-.05-.25-.05l-.3-.1q-2.45-.65-4.8-1.45-.2-.1-.4-.15-.45-.2-.9-.35-.2-.05-.35-.1-3.5-1.3-6.85-2.85-.15-.1-.25-.15-.15-.05-.25-.1-.25-.15-.5-.25-.15-.1-.25-.15-.1-.05-.15-.05-.05-.05-.1-.05-2.35-1.2-4.6-2.55-.15-.1-.3-.15-.4-.25-.85-.5-.1-.1-.2-.15-2.65-1.6-5.2-3.4-.1-.1-.2-.15-.1-.1-.2-.15-.25-.15-.45-.3-.1-.1-.2-.15V7.7l-.2-.1q-1.05-.8-2.1-1.65-.05-.1-.15-.15l-.05-.05q-.65-.55-1.25-1-.15-.15-.3-.25-.05-.05-.1-.05-.25-.25-.5-.45-.2-.2-.4-.35l-.15-.15q-.2-.15-.35-.3-1.35-1.25-2.6-2.4l-.35-.35L18.6 0q-.35.5-.65 1 .7.6.9.75Q20.05 3 21.4 4.2q.25.2.5.45l.4.3q.25.2.5.45l1.3 1.1 1 .8q.2.15.45.35.55.45 1.15.9.1.05.2.15.1.05.2.15.2.15.45.35.05.05.2.15.1.05.2.15 2.55 1.85 5.3 3.5.05.05.2.15.4.25.85.5.1.05.25.15 2.3 1.35 4.65 2.55.1.05.25.15.1.05.25.1.25.1.5.25.1.05.25.15.1.05.25.1 2.05 1 4.15 1.85 1.35.55 2.75 1.1.2.05.35.1.45.15.95.35.2.05.4.15 1.65.55 3.35 1.05.75.25 1.5.45l.3.1q.1 0 .25.05.3.1.6.15.05.05.15.05.1.05.25.1.15 0 .3.05 1.9.5 3.9.9 1.4.3 2.85.55l.5.1q.05 0 .1.05.6.1 1.25.2 2.55.4 5.2.65.4.05.85.1h.3q.15 0 .3.05.2 0 .45.05h.25q.15 0 .35.05.95.05 2 .1 1.8.1 3.65.2.2-.05.4 0h4.35l3.75-.1 1.3-.1h.3q.15-.05.3-.05h.45q.15-.05.3-.05h.3q.7-.1 1.45-.15 2.5-.2 4.95-.55.7-.1 1.35-.2.35-.1.75-.15 1.45-.25 2.85-.5 1.7-.35 3.4-.75.1-.05.25-.05l.3-.1q.35-.1.7-.15h.05q.1-.05.25-.1t.3-.05q1-.3 2-.55 1.85-.55 3.65-1.15.6-.2 1.25-.45 1.6-.55 3.15-1.15l3.6-1.5q0-.05.05-.05l.2-.1q.1-.05.25-.1.25-.15.5-.25l.2-.1q.1-.1.2-.1l.05-.05q2.7-1.3 5.3-2.8.5-.3 1.05-.6 2.65-1.65 5.25-3.45.05-.05.1-.05.1-.1.2-.15.2-.2.45-.35.1-.1.2-.15.1-.1.25-.15.65-.5 1.35-1 .65-.55 1.3-1.05.2-.15.45-.3.5-.45 1-.85.45-.4.9-.75 1.4-1.25 2.75-2.45V2.9l.9-.8q.15-.2.35-.35.1-.15.25-.3t.35-.3V1.1l.1-.05q-.3-.4-.55-.8z" id="ShiLon016__Symbol_227_0_Layer0_0_FILL"/><path fill-opacity="0.502" d="M247.6 264.45v.05l4.2 21.4q.05.2.2.35.2.1.4.05t.3-.2v-.05q.1-.05.1-.15v-.2l-4.2-21.45q-.05-.2-.25-.3-.15-.15-.35-.1-.107.027-.2.1-.08.057-.15.15-.1.15-.05.35m-110.95-.5q-.2.1-.25.3l-4.2 21.45q-.017.113 0 .2l.05.15q.031.025.05.05.1.15.3.2.2.05.4-.05.15-.15.2-.35l4.2-21.4v-.05q.05-.2-.05-.35-.15-.2-.35-.25-.2-.05-.35.1z" id="ShiLon016__Layer11_0_FILL"/></defs><use xmlns:xlink="http://www.w3.org/1999/xlink" xlink:href="#ShiLon016__Symbol_290_0_Layer0_0_FILL" transform="translate(110 228.6)" id="ShiLon016__col1n"/><use xmlns:xlink="http://www.w3.org/1999/xlink" xlink:href="#ShiLon016__Symbol_260_0_Layer0_0_FILL" transform="translate(135.85 237.95)" id="ShiLon016__col1d"/><use xmlns:xlink="http://www.w3.org/1999/xlink" xlink:href="#ShiLon016__Symbol_257_0_Layer0_0_FILL" transform="translate(112 228.6)" id="ShiLon016__col1l"/><use xmlns:xlink="http://www.w3.org/1999/xlink" xlink:href="#ShiLon016__Symbol_227_0_Layer0_0_FILL" transform="translate(111.75 231.45)" id="ShiLon016__col1s"/><use xmlns:xlink="http://www.w3.org/1999/xlink" xlink:href="#ShiLon016__Layer11_0_FILL"/></g></g><g transform=""><g transform=""><defs><path fill="#E9AF8B" d="M34.65 11q0-3.2-2.25-5.45-1.65-1.65-3.8-2.1-.3-.05-.55-.1-.25-.05-.5-.05-.15-.05-.35 0-.15-.05-.35 0h-.4q-.7.05-1.25.15-.15.05-.35.1Q20.7-.05 15.1 0 9.35-.05 5.2 3.65q-.05.05-.1.15-.2.1-.35.25-.05 0-.05.05l-.05.05-.2.2q-.25.25-.45.5-.05 0-.05.05l-.05.05-.3.3Q0 9.4 0 15q0 6.2 4.45 10.6Q8.85 30 15.1 30q2.9 0 5.4-.95.1-.05.2-.05.05-.05.15-.1h.05q.05-.05.15-.1.4-.15.75-.35l.8-.4q.1-.05.15-.1l.1-.05q1.5-.95 2.9-2.3 3.25-3.25 4.1-7.45.05-.05.1-.05l.3-.1q1.15-.55 2.15-1.55 2.25-2.25 2.25-5.45m135.6-6.85V4.1l-.05-.05q-.2-.15-.35-.25-.05-.1-.1-.15-4.2-3.7-9.9-3.65-5.65-.05-9.7 3.55-.2-.05-.35-.1-.4-.1-.8-.1l-.8-.05q-.2-.05-.35 0-.25-.05-.4 0-.25 0-.45.05h-.05q-.25.05-.45.1-2.2.45-3.85 2.1-2.3 2.25-2.3 5.45t2.3 5.45q.95 1 2.15 1.55l.3.1q.85 4.25 4.1 7.5 1.35 1.35 2.9 2.3.05 0 .1.05t.15.1q.35.2.75.4.35.2.75.35l.2.1h.05q.05.05.15.1.1 0 .2.05 2.5.95 5.4.95 6.25 0 10.65-4.4t4.45-10.6q-.05-5.6-3.65-9.75-.15-.15-.25-.3l-.1-.1q-.25-.25-.45-.5-.15-.1-.25-.2z" id="BodHan001__Symbol_2_0_Layer0_0_FILL"/><path fill="#D79C78" d="M15.5 7.75q0-3.2-2.25-5.45Q11.6.65 9.45.2 9.15.15 8.9.1 8.65.05 8.4.05q-.15-.05-.35 0Q7.9 0 7.7.05h-.4Q6.6.1 6.05.2 5.9.25 5.7.3q-1.95.45-3.45 2Q0 4.55 0 7.75t2.25 5.45q1.7 1.7 3.95 2.1l1.5.15h.1l.75-.05q1.15-.1 2.15-.5.05-.05.1-.05l.3-.1q1.15-.55 2.15-1.55 2.25-2.25 2.25-5.45M12.45 3q1.95 1.95 1.95 4.75 0 2.75-1.95 4.7-.85.9-1.85 1.4-1 .45-2.05.55l-.75.05h-.1l-1.3-.15q-1.9-.4-3.35-1.85-2-1.95-1.95-4.7Q1.05 4.95 3.05 3q1.45-1.45 3.3-1.8.5-.1 1-.15H7.8q.4 0 .85.1 2.15.25 3.8 1.85m124.3 4.75q-.05-3.2-2.3-5.45-1.5-1.55-3.4-2H131q-.2-.05-.35-.1-.4-.1-.8-.1l-.8-.05q-.2-.05-.35 0-.25-.05-.4 0-.25 0-.45.05h-.05q-.25.05-.45.1-2.2.45-3.85 2.1-2.3 2.25-2.3 5.45t2.3 5.45q.95 1 2.15 1.55l.3.1q1 .4 2.25.55l.75.05h.1l1.5-.15q2.2-.4 3.9-2.1 2.25-2.25 2.3-5.45M133.7 3q1.95 1.95 1.95 4.75 0 2.75-1.95 4.7-1.45 1.45-3.35 1.85l-1.3.15h-.1l-.75-.05q-1.1-.1-2-.55-1.05-.5-1.95-1.4-1.95-1.95-1.9-4.7-.05-2.8 1.9-4.75 1.65-1.6 3.8-1.85h.05q.4-.1.85-.1H129.4q.5.05 1 .15 1.85.35 3.3 1.8z" id="BodHan001__Symbol_1_0_Layer0_0_FILL"/></defs><use xmlns:xlink="http://www.w3.org/1999/xlink" xlink:href="#BodHan001__Symbol_2_0_Layer0_0_FILL" transform="translate(105.05 280.6)" id="BodHan001__col1n"/><use xmlns:xlink="http://www.w3.org/1999/xlink" xlink:href="#BodHan001__Symbol_1_0_Layer0_0_FILL" transform="translate(124.2 283.85)" id="BodHan001__col1d"/></g></g><g transform=""><g class="active-stage-item" transform=""><defs><path fill="#FF5D5D" d="M46.85 6.5q1-.4 2.05-.95-5.3-.6-9.4-3-1.9-1.1-3.7-1.7-4.1-1.7-8.6 0l-.4.2q-1.5.8-2.35 1.65-.85-.85-2.35-1.65-.2-.1-.35-.2-4.25-1.65-8.7 0-1.75.6-3.65 1.7-4.1 2.4-9.4 3 1.05.55 2.05.95 2.05.65 3 1Q8.4 8.7 11 12.1q.35.45.7.95 1.15 1.75 3.55 2.75.5.2 1.05.35 8.25 2.85 16.35 0 .5-.15 1-.35 2.4-1 3.55-2.75.35-.5.7-.95 2.6-3.4 5.95-4.6.95-.35 3-1z" id="FacMou043__Symbol_68_0_Layer0_0_FILL"/><path fill="#FF8E8E" d="M20.85 1.7q1.9-1.6 0-1.65-.4-.05-.95 0-.2.05-.35.05Q10.6.8 2.3.1q-.2 0-.4-.05-3.25-.3-.95 1.65 2.15 1.7 5.95 2 3.8.25 4 .15.2.1 4-.15 3.8-.3 5.95-2z" id="FacMou043__Symbol_21_0_Layer0_0_FILL"/></defs><use xmlns:xlink="http://www.w3.org/1999/xlink" xlink:href="#FacMou043__Symbol_68_0_Layer0_0_FILL" transform="translate(168.05 214.3)" id="FacMou043__col1n"/><use xmlns:xlink="http://www.w3.org/1999/xlink" xlink:href="#FacMou043__Symbol_21_0_Layer0_0_FILL" transform="translate(181.6 223.2)" id="FacMou043__col1l"/></g></g><g transform=""><g transform=""><defs><path fill="#FFFFFF" d="M105.35 24.4q-1.2-4.7-3.8-8.85-1.7-2.75-4.05-5.3-.15-.2-.3-.35Q88.85.9 77.85.1 66.8-.75 59.55 7q-5.35 5.75-6.3 13.7-1-7.95-6.35-13.7Q39.65-.75 28.65.1 17.6.9 9.25 9.9q-.3.3-.55.65l-.3.3q-5 5.65-7 12.4Q.35 26.8.1 30.65q-.2 2.7.05 5.15.25 3.15 1.25 6 1.65 4.65 5.15 8.4 7.25 7.75 18.25 6.9 11.05-.8 19.4-9.75 7.8-8.4 9.05-19.25 1.2 10.85 9 19.25 8.35 8.95 19.4 9.75 11 .85 18.25-6.9 3.75-4 5.35-9.15.75-2.4 1-5.05.3-2.6.1-5.4-.2-3.2-1-6.2z" id="FacEye001__Symbol_1_0_Layer0_0_FILL"/><path fill="#000000" d="M3.4 6.65Q4.8 6.6 5.8 5.6q1-.95 1-2.35 0-1.35-1-2.35-1-.95-2.4-.9Q1.95-.05 1 .9q-1 1-1 2.35 0 1.4 1 2.35.95 1 2.4 1.05m32.05 0q1.4-.05 2.35-1.05 1-.95 1-2.35 0-1.35-1-2.35-.95-.95-2.35-.9Q34-.05 33 .9q-1 1-1 2.35 0 1.4 1 2.35 1 1 2.45 1.05z" id="FacEye001__Symbol_4_0_Layer0_0_FILL"/></defs><g id="FacEye001__col1n" transform="translate(139.3 136.2)"><use xmlns:xlink="http://www.w3.org/1999/xlink" xlink:href="#FacEye001__Symbol_1_0_Layer0_0_FILL" id="FacEye001__col1n_FL"/></g><g id="FacEye001__col2n" transform="translate(173 163.45)"><use xmlns:xlink="http://www.w3.org/1999/xlink" xlink:href="#FacEye001__Symbol_4_0_Layer0_0_FILL" id="FacEye001__col2n_FL"/></g></g></g><g transform=""><g transform=""><defs><path fill="#FF7B00" d="M2.15 2.1q.35-.35.35-.85t-.35-.9Q1.75 0 1.25 0T.4.35q-.4.4-.4.9t.4.85q.35.4.85.4t.9-.4z" id="AccGla034__Symbol_93_0_Layer0_0_FILL"/><path fill="#FF9D43" fill-opacity="0.502" d="M64.65 32.35q0-13.35-9.5-22.9Q45.7 0 32.3 0 18.95 0 9.45 9.45 0 19 0 32.35q0 13.35 9.45 22.8 9.5 9.5 22.85 9.5 13.4 0 22.85-9.5 9.5-9.45 9.5-22.8m56.75-22.9Q111.95 0 98.55 0 85.2 0 75.7 9.45q-9.45 9.55-9.45 22.9 0 13.35 9.45 22.8 9.5 9.5 22.85 9.5 13.4 0 22.85-9.5 9.5-9.45 9.5-22.8 0-13.35-9.5-22.9z" id="AccGla034__Symbol_123_0_Layer0_0_FILL"/><path fill="#BD9100" d="M168.7 28.05l23.4-7.2v-2.6l-24 5.6q-3.7.55-6.05-1.05-2.45-7.05-8.15-12.75Q143.85 0 129.65 0q-14.25 0-24.3 10.05-7.25 7.2-9.3 16.6-2.05-9.4-9.3-16.6Q76.7 0 62.45 0 48.25 0 38.2 10.05q-5.7 5.7-8.15 12.75-2.35 1.6-6.05 1.05l-24-5.6v2.6l23.4 7.2q2.6.7 4.85 3.2l-.1 1.3q-.05.9-.05 1.8 0 14.25 10.1 24.3Q48.25 68.7 62.45 68.7q14.25 0 24.3-10.05 7.25-7.2 9.3-16.6 2.05 9.4 9.3 16.6 10.05 10.05 24.3 10.05 14.2 0 24.25-10.05Q164 48.6 164 34.35q0-.9-.05-1.8l-.1-1.3q2.25-2.5 4.85-3.2M129.65 3.4q12.8 0 21.85 9.05 6.95 6.9 8.55 16.1v.05l.2.85q.2 1.6.3 3.3.05.8.05 1.6 0 12.85-9.1 21.9-9.05 9.05-21.85 9.05-12.85 0-21.9-9.05-9.1-9.05-9.1-21.9 0-12.85 9.1-21.9 9.05-9.05 21.9-9.05m-45.3 9.05q9.1 9.05 9.1 21.9 0 12.85-9.1 21.9-9.05 9.05-21.9 9.05-12.8 0-21.85-9.05-9.1-9.05-9.1-21.9 0-.8.05-1.6.1-1.7.3-3.3l.2-.85v-.05q1.6-9.2 8.55-16.1Q49.65 3.4 62.45 3.4q12.85 0 21.9 9.05z" id="AccGla034__Symbol_124_0_Layer0_0_FILL"/></defs><use xmlns:xlink="http://www.w3.org/1999/xlink" xlink:href="#AccGla034__Symbol_93_0_Layer0_0_FILL" transform="translate(191.3 159.75)" id="AccGla034__col2n"/><use xmlns:xlink="http://www.w3.org/1999/xlink" xlink:href="#AccGla034__Symbol_123_0_Layer0_0_FILL" transform="translate(127.05 130.45)" id="AccGla034__col2l"/><use xmlns:xlink="http://www.w3.org/1999/xlink" xlink:href="#AccGla034__Symbol_124_0_Layer0_0_FILL" transform="translate(96.45 128.6)" id="AccGla034__col1n"/></g></g><g transform=""><g transform=""><defs><path fill="#3A2619" d="M180.3 97.3q-6.3-12.05-15.6-21.15l-.5-.5-.45-.45-.35-.35-.95-.85q-.35-.35-.7-.65-3.2-2.85-6.7-5.35l-.65-.65-.1-.1q-.2 0-.1-.4.05-.25.2-.6.05-.15.15-.3l.65-1.3q1.9-2.6 2.45-6.55 2.3-15.3-3.85-28.95-.85-1.9-1.75-3.65-3-5.6-7-10.15-1.15-1.3-2.35-2.5-8.95-8.25-27.5-10.95-1.5-.2-3.1-.45Q95.45-1.3 79 1.25l-1.45.25Q62.05 4.6 52.2 14.7q-.85.85-1.65 1.75-.95 1.05-1.8 2.15-3.95 6.15-5.25 13.95-1.8 11.05.3 21.85.2 1.1.55 2.1l.45 2.9h.05q-24 15.5-36.25 40.85-6.3 12.9-8.6 29.4 8.35-1.2 16.65-3.25 10.45-2.5 19.9-7.55 6.4-3.35 12.15-7.05.5-.05 1-.05 30.9 3.4 69.45-3.45 4.35-.8 8.7-1.65 3.4 3.2 6.55 6.7 5.9 6.6 13.5 10.7.15.1.3.15.65.4 1.4.75l1.75.9q16.2 8 33.85 7.15 2.5-.25 4.85-.4-1.1-13.15-4.65-23.65-2.15-6.3-5.1-11.65z" id="HaiSpe058__Symbol_190_0_Layer0_0_FILL"/><path fill="#2C1C12" d="M152.05 16.85q.3 1.4 1.05 6.75.7 5.25.95 9.45.25 4.2-.05 6.1-.3 1.9-.95 3.85-.65 1.95-1.15 2.8.4-3.45.05-6.8-.4-3.4-.7-7.1-.35-3.75-3.3-10.4.75 9.5.1 14.55-.7 5-2.45 7.05-.25-12.2-1.5-20.35-1.3-8.2-7.15-14.05 1.55 3.6 1.95 8.95.1 1.8.1 9.25 0 6.3-.25 7.8-.2 1.05-1 5.05-.75-12.1-1.9-16.3-2.6-9.25-9.5-20.8v.2q.8 20.1-2.3 32.75-.7-8.5-1.45-13.05-1.6-9.65-5.45-20.85.6 6.15-.6 14.95-1.55 11.1-5.25 15.8-.3-2.45-1.55-9.15-1.4-7.25-3-14.4h-.2v.35q-2 17.55-4.5 22.25-.1-.45-1.5-9.1-1.2-7.6-2.85-13.15v.2q-2.2 15.3-4.15 22.65v-.2q-2.4-3.3-3.45-11.35-1-7.4-.5-14.5-2.55 5.65-4.55 14.75-1.3 5.8-1.95 11.55-1.8-16.7-1.8-22.55 0-1.25.3-4.65.25-3.4.25-5.15-6.55 5.15-11.4 16.9-3.85 9.3-5.25 18.65-.05-.1-.05-.15-1.6-5.25-1.6-11.6 0-4.35.45-7.9.3-2.7 1.25-7.2-3.3 1.7-7 11.05Q54.5 29.1 55 39.55q-2.1-2.5-2.2-7.6-.1-5.1-.4-15.25-3.95 8.75-4.65 13.9-.7 5.1-.3 11.2-.95-3.7-1.15-4.2-.55-1.55-.45-7.95.05-6.45 1.75-12.5Q49.3 11 49.9 9.6q.55-1.4.65-1.8-.95 1.05-1.8 2.15Q44.8 16.1 43.5 23.9q-1.8 11.05.3 21.85.2 1.1.55 2.1l.3 1.75 4.95-2.9v-.15q2.35-1 4.65-1.85 6.4-2.4 12.6-4.1 9.1-2.5 17.8-3.5 19.95-2.35 38.1 3 11.95 3.5 23.2 10.45 1.85 1.1 3.65 2.35v.1l4.8 4.6q.05-.15.15-.3l.65-1.3q1.9-2.6 2.45-6.55 2.3-15.3-3.85-28.95-.85-1.9-1.75-3.65m33.15 107.5q2.5-.25 4.85-.4-41.3-.75-59.6-30.55-46.1 15.55-83.7 4.9Q28.5 115 0 121q8.35-1.2 16.65-3.25 10.45-2.5 19.9-7.55 6.4-3.35 12.15-7.05.5-.05 1-.05 30.9 3.4 69.45-3.45 4.35-.8 8.7-1.65 3.4 3.2 6.55 6.7 5.9 6.6 13.5 10.7.15.1.3.15.65.4 1.4.75l1.75.9q16.2 8 33.85 7.15z" id="HaiSpe058__Symbol_121_0_Layer0_0_FILL"/><path fill="#000000" d="M107 21.75l.65.5q.35.25.65.5.3.2.6.45.5.35 1 .8l.1.05v.05l.05.05v-.05l-.1-.25q-.2 0-.1-.4.05-.35.35-.9l.65-1.3-2.9-2.2q-1.05-.8-2.05-1.5Q62.65-14.05 4.45 11.2L0 13.1.45 16H.5l.05-.05H.6l8.4-3.3Q64-9.3 105.3 20.5q.85.6 1.7 1.25z" id="HaiSpe058__Symbol_51_0_Layer0_0_FILL"/></defs><use xmlns:xlink="http://www.w3.org/1999/xlink" xlink:href="#HaiSpe058__Symbol_190_0_Layer0_0_FILL" transform="translate(97.6 9.85)" id="HaiSpe058__col1n"/><use xmlns:xlink="http://www.w3.org/1999/xlink" xlink:href="#HaiSpe058__Symbol_121_0_Layer0_0_FILL" transform="translate(97.6 18.5)" id="HaiSpe058__col1d"/><use xmlns:xlink="http://www.w3.org/1999/xlink" xlink:href="#HaiSpe058__Symbol_51_0_Layer0_0_FILL" transform="translate(141.95 53.25)" id="HaiSpe058__col1s"/></g></g></svg>