<?xml version="1.0" standalone="no"?>
<svg width="800" height="800" xmlns="http://www.w3.org/2000/svg" id="stage-svg" xmlns:xlink="http://www.w3.org/1999/xlink" preserveAspectRatio="none" viewBox="0 0 385 385"><g transform=""><g transform=""><defs><path fill="#FFD3A8" d="M191.5 95.8q0-39.7-28.05-67.75-16.2-16.2-36.3-23.05-14.7-5-31.4-5t-31.4 5q-20.1 6.85-36.3 23.05Q0 56.1 0 95.8q0 32.25 18.5 56.85l.05.05q.6.75 1.2 1.55l1 1.2L28 163.5q0 .05.05.05l.7.7q3.5 3.4 7.15 6.4v.05l-.05-.05q-5.81 7.718-10.6 17.75-.078.183-.2.35l-.3.7q-.06.17-.15.35-.117.253-.25.5l-2.6 6.15q-5.345 13.608-8.3 30.1-.05.2-.05.4-.15 2.45.15 4.85Q15.7 245.9 31 249.35q.2.05.45.1l.05-.05q.15.05.25.05.2.6.4 1.15.4.95 1.1 1.75 0 .05.05.1v19.45q-3.9.7-7.8 2.5-.6.267-1.2.55-.94.67 0 .8h143.25q1 0 0-.6-.775-.405-1.55-.75-3.9-1.8-7.8-2.5v-19.45q.05-.05.05-.1.7-.8 1.1-1.75.2-.55.4-1.15.1 0 .25-.05l.05.05q.25-.05.45-.1 15.3-3.45 17.45-17.55.3-2.4.15-4.85 0-.2-.05-.4-3.7-20.65-11.15-36.75-4.8-10.45-11.15-18.95h-.05q0-.1-.1-.2 3.65-3 7.15-6.4l.7-.7q.05 0 .05-.05l7.25-8.05 1-1.2q.6-.8 1.2-1.55l.05-.05q18.5-24.6 18.5-56.85z" id="SkiSki001__Symbol_10_0_Layer0_0_FILL"/><path fill="#F7BE86" d="M-36.05 227.75h-.2l-3.9.15-1.3.1q-8.5.6-13.15 1.65-4.7 1-5.35 1.3-.15.05-.25.1 8-1.3 16.1-1.8.3-.05.65-.05l2-.1q.2-.05.35-.05h.3q15.4-.65 30.05 2l4.15.7q1.15.2 2.3.45 1.75.35 3.45.75l.3.1q.1 0 .2.05.15 0 .3.05-.4-.15-.8-.25-1.7-.6-3.45-1.05-.55-.15-1.05-.3-.15-.05-.25-.05-10.8-3-22-3.6-.4-.05-.8-.05-.55-.05-1.15-.05l-6.5-.05m3.4-52.2q3.05 1.2 6.25 0 1.6-1.65.35-3.6-.1-.15-.15-.25-3.05-1-6.9 0-.5.7-.6 1.4-.2 1.1.8 2.25.1.1.25.2M3.2 203.7q-1.25-1.15-2.25 0-.05.25 0 .55.25 1.6.15 3.25l.1.05q.7.3 1.05-.35l.1-.2q.15-.45.3-.85.25-.8.4-1.55.05-.15.05-.3l.1-.6m55.4 25.95q-4.65-1.05-13.15-1.65l-1.3-.1-3.9-.15h-.2l-6.5.05q-.6 0-1.15.05-.4 0-.8.05-11.2.6-22 3.6-.1 0-.25.05-.5.15-1.05.3-1.75.45-3.45 1.05-.4.1-.8.25.15-.05.3-.05.1-.05.2-.05l.3-.1q1.7-.4 3.45-.75 1.15-.25 2.3-.45l4.15-.7q14.65-2.65 30.05-2h.3q.15 0 .35.05l2 .1q.35 0 .65.05 8.1.5 16.1 1.8-.1-.05-.25-.1-.65-.3-5.35-1.3M29.55 173.1q-.2 1.1.8 2.25.1.1.25.2 3.05 1.2 6.25 0 1.6-1.65.35-3.6-.1-.15-.15-.25-3.05-1-6.9 0-.5.7-.6 1.4z" id="SkiSki001__hll_0_Layer0_0_FILL"/><path fill="#DE9957" d="M-54 165.45q-.05.05-.05.1l-4.3 21.85q-.45 2.1-.85 4.05l-.1.6q-.2.8-.35 1.6-1.5 7.35-2.3 12.15-.75 4.4.45-.6.4-2.5 1.45-6.25.1-.6.25-1.25.7-3.15 1.3-5.65.65-3.05 1.15-5.1h.05l-.05-.05v-.05q.2-.9.35-1.55.2-.95.4-1.55v-.05q0-.15.05-.25.15-.75.2-.85l3.25-16.8.05-.05q0-.25-.1-.4-.1-.2-.3-.2-.2-.05-.3 0-.05 0-.05.05-.05 0-.1.05t-.1.2m81.8 53.1q5.828-.808 11.3-1.95-.15 0-.3.05-.95.05-1.9.15-.75.05-1.5.15-13.1 1.2-26.3 1.45-4.5.1-9 .1-17-.1-34.1-1.8-.65-.1-1.2-.15 5.808 1.176 11.85 2 11.28 1.525 23.45 1.85h.55v.1l1.4 12.2v-.4l.05.4 1.4-12.2v-.1h.05q.15 0 .35.05l5.2-.2q9.762-.455 18.7-1.7m30.1-53.2l-.05-.05q-.15-.05-.35 0-.2 0-.3.2-.1.15-.05.4l3.25 16.85q.1.2 1.05 4.3v.05q.45 2 1.1 4.95.55 2.4 1.2 5.4l.1.4q.25 1.2.5 2.25 1 3.35 1.35 5.75 1.05 4.3.3.1-.9-5.3-2.65-13.9-.4-2.15-.9-4.5L58.1 165.7v-.1q-.1-.2-.2-.25m2.25-34.1q-1.35 1.05-2.8 2.1l-1.55 1.15q-20.35 14.1-45.8 16l-1.1.05q-3.35.2-6.8.2h-.2q-3.45 0-6.8-.2l-1.1-.05q-25.45-1.9-45.8-16l-1.55-1.15q-1.45-1.05-2.8-2.1l-1.15-.9q10.019 8.81 21.45 14.1 17.928 7.84 37.75 7.85h.2q19.823-.01 37.75-7.85 11.45-5.3 21.45-14.05l-1.15.85z" id="SkiSki001__hdd_0_Layer0_0_FILL"/><filter id="SkiSki001__Filter_1" x="-20%" y="-20%" width="140%" height="140%" color-interpolation-filters="sRGB"><feColorMatrix in="SourceGraphic" values="1 0 0 0 0 0 1 0 0 0 0 0 1 0 0 0 0 0 0.75 0" result="result1"/></filter></defs><use xmlns:xlink="http://www.w3.org/1999/xlink" xlink:href="#SkiSki001__Symbol_10_0_Layer0_0_FILL" transform="translate(96.75 58)" id="SkiSki001__col1n"/><use xmlns:xlink="http://www.w3.org/1999/xlink" xlink:href="#SkiSki001__hll_0_Layer0_0_FILL" transform="matrix(1.00052 0 0 1 190.5 98.75)" id="SkiSki001__col1d"/><use filter="url(#SkiSki001__Filter_1)" xmlns:xlink="http://www.w3.org/1999/xlink" xlink:href="#SkiSki001__hdd_0_Layer0_0_FILL" transform="matrix(1.00052 0 0 1 190.5 98.75)" id="SkiSki001__col1s"/></g></g><g transform=""><g transform=""><defs><path fill="#666666" d="M125.7 0q-.2.05-.35.1Q62.1 12.35.85.2.6.1.35.1.2.05.1.05.05 0 0 0q0 .05.05.1v19.5q.35-.1.7-.15h.1q32.4-5.15 62 2.9 29.7-8.1 62.3-2.85.15 0 .3.05.15 0 .25.05V.05l.05-.05h-.05z" id="LegPan001__Symbol_1_0_Layer0_0_FILL"/></defs><use xmlns:xlink="http://www.w3.org/1999/xlink" xlink:href="#LegPan001__Symbol_1_0_Layer0_0_FILL" transform="translate(129.65 310.25)" id="LegPan001__col1n"/></g></g><g transform=""><g transform=""><defs><path fill="#000000" d="M137.2 4.75l-.15-.15.05-4.6H10.3l-.05 4.9-.05-.1q-.094-.047-.2 0-1.1.1-2.15.2-6.4.95-7.75 4.5L0 11.65l.5.5h146.3l.5-.5-.1-2.45q-1.45-3.25-7.65-4.2-1.05-.1-2.15-.2-.1-.05-.2-.05z" id="LegSho011__Symbol_20_0_Layer0_0_FILL"/><path fill="#252525" d="M44.85 4.8q.9 0 1.65.05 2.55-1.9 0-3.6H.05L0 4.85q.25 0 .55-.05h44.3M64.5 0h-1.9v10.55q.1-.05.2-.05.3-.1.55-.2.05 0 .1-.05l.05.05h.05q.4.15.95.35V0m61.55 4.8q.3.05.55.05l-.05-3.6H80.1q-2.55 1.7 0 3.6.75-.05 1.65-.05h44.3z" id="LegSho011__Symbol_21_0_Layer0_0_FILL"/><path fill="#4F4F4F" d="M147.3 4.3V1.4l-64.85-.1Q77.4 1.1 74.8.4h-.05Q74.2.2 73.8.05h-.05L73.7 0q-.05.05-.1.05-.25.1-.55.2-.1 0-.2.05-2.6.8-7.9 1L0 1.4v2.9h64.25q5.95 0 8.6-1.3.4-.2.75-.45l.1-.1.1.1q.4.3.95.55 2.65 1.2 8.4 1.2h64.15z" id="LegSho011__Symbol_22_0_Layer0_0_FILL"/><path fill="#F3E200" d="M10 4.8V0H0v4.8h10M8.8.95V3.8H1.15v-.95H4.8v-1.1H1.15v-.8H8.8M76.6 4.8V0h-10v4.8h10m-4.8-1.95h3.65v.95H67.8V.95h7.65v.8H71.8v1.1z" id="LegSho011__Symbol_23_0_Layer0_0_FILL"/><path fill="#E2C700" d="M0 1.1h3.65V0H0v1.1M70.65 0v1.1h3.65V0h-3.65z" id="LegSho011__Symbol_24_0_Layer0_0_FILL"/></defs><use xmlns:xlink="http://www.w3.org/1999/xlink" xlink:href="#LegSho011__Symbol_20_0_Layer0_0_FILL" transform="translate(118.8 322.4)" id="LegSho011__col1n"/><use xmlns:xlink="http://www.w3.org/1999/xlink" xlink:href="#LegSho011__Symbol_21_0_Layer0_0_FILL" transform="translate(129.05 322.4)" id="LegSho011__col1d"/><use xmlns:xlink="http://www.w3.org/1999/xlink" xlink:href="#LegSho011__Symbol_22_0_Layer0_0_FILL" transform="translate(118.8 332.65)" id="LegSho011__col1s"/><use xmlns:xlink="http://www.w3.org/1999/xlink" xlink:href="#LegSho011__Symbol_23_0_Layer0_0_FILL" transform="translate(154.05 323.3)" id="LegSho011__col2n"/><use xmlns:xlink="http://www.w3.org/1999/xlink" xlink:href="#LegSho011__Symbol_24_0_Layer0_0_FILL" transform="translate(155.2 325.05)" id="LegSho011__col2d"/></g></g><g transform=""><g transform=""><defs><path fill="#FFFFFF" d="M12 2.85q-.55-.65-1.2-1.2Q9.7.75 8.3.15 6.85.1 5.4 0h-.2q2 .9 4.2 2.65l.4.3.1.1q.95-.25 2.1-.2M19.05 0q-1.5.1-3 .15-2.25.95-3.7 2.7.9.05 1.8.3.1-.05.2-.15l.35-.3Q16.95.9 19.05 0m4.75 13.65q.25-.6.55-1.2l-.8.1q-.5.05-1 0-3.4-.2-7.15-3.1l-.05-.05q-.15-.1-.25-.15-.05 0-.05-.05-.05 0-.05-.05-.1-.05-.2-.15-.1-.1-.25-.2l-.05-.05q-2 .75-3.95.15-.25-.05-.45-.15v.05q-.25.15-.45.3l-.1.1q-.35.25-.75.5-.65.4-1.25.8-3.05 1.85-5.7 2.05h-1q-.45 0-.85-.05 4.1 8.7 9 17.25l.8 1.4v-1.4q.1.2.25.4.6 1.1 1.7 2.7l.05.05q.1.15.25.35.1.15.25.35v.05l.3-.4q.75-1.15 1.3-2 .35-.6.65-1v1.6q.3-.5.55-1l.1-.1q.1-.25.2-.45 4.45-8.05 8.4-16.65z" id="ShiLon036__Symbol_346_0_Layer0_0_FILL"/><path fill="#E0E0E0" d="M36.75.1h-.05q-1.8.3-3.6.55-1 .15-1.95.25L22.55 5h-7.2L6.5.9l-.05.05v-.1q-.8-.1-1.65-.2L3.3.45Q1.95.2.6 0q.05.05.05.1Q0 .1 0 .65 0 1.05.55 3q.5 1.8.65 2.15.15.35.3 1.1.2.65.5 1.1.2.35.4 1.1.15.85.3 1.1.45 1 1.85 4.55 1.1 2.75 1.95 4.55.95 2.1 2.3 4.5.8 1.4 2.7 4.4l3 4.45q2.8 3.8 3.55 4.3v.05q.15.25.5.25h.25q.4 0 .5-.3.4-.2.95-.55 1.25-.8 1.5-1.05 1.75-1.9 2-2.2 2.25-2.85 3.2-4.4 1.65-3.25 2.3-4.5.35-.75 1.4-2.3 1.1-1.6 1.4-2.2 1.2-3.15 1.75-4.45.65-1.5.95-2.25.5-1.35.55-2.3 1.9-7.65 1.9-9.2 0-.35-.35-.65-.1-.05-.15-.05 0-.05.05-.1m-14.7 10.8l.05.05q.45.9 1.1 1.55.55.6 2.55 1.55 2.05.95 2.85.95h.05v.05Q26.8 20.1 24.7 24.6l-2.3 3.75q-.85 1.3-2.3 3.8-.55.85-.85 1.45-.25-.3-.6-.7-.2-.3-.45-.65-1.15-1.55-1.45-2-1.6-2.35-2.2-3.5-.45-.85-1.5-2.5-2.05-4.4-3.8-9.3 2.6-.65 5.15-3.05.6-.4 1.25-.8l.7-.5.1-.1v.15q.6.5.95.65.2.05.65.1h.8q1.2 0 2.35-.6v-.45l.85.6v-.05M1.5 2.3v-.15q.002.053.05.15H1.5z" id="ShiLon036__Symbol_344_0_Layer0_0_FILL"/><path fill="#C2C2C2" d="M4.1 20.95q.3-.35.3-.8 0-.45-.3-.75-.35-.35-.8-.35-.45 0-.75.35-.35.3-.35.75t.35.8q.3.3.75.3t.8-.3m0-9.45q-.35-.35-.8-.35-.45 0-.75.35-.35.3-.35.75t.35.8q.3.3.75.3t.8-.3q.3-.35.3-.8 0-.45-.3-.75M2.2 4.65q0 .25.15.5.05.15.2.3.3.3.75.3t.8-.3l.2-.3q.1-.25.1-.5 0-.45-.3-.75-.35-.35-.8-.35-.45 0-.75.35-.35.3-.35.75M.8.35l-.1.1-.7.5v20l.8 1.4v-22m5.2 0Q5.9.3 5.8.2 5.7.1 5.55 0V23.05q.3-.5.55-1l.1-.1q.1-.25.2-.45V.7L6.35.65Q6.2.55 6.1.45q-.05 0-.05-.05Q6 .4 6 .35z" id="ShiLon036__Symbol_345_0_Layer0_0_FILL"/><path fill="#000000" d="M84.35 23.85q-.9-.25-1.8-.3h-.35q-1.15-.05-2.1.2l-.1-.1-.4-.3q-2.2-1.75-4.2-2.65l-.9-.05q-2.1-.15-4.15-.4-.2 0-.35-.05v.1q-.05.3-.05.55-.35 2.35-.35 4.85-.05 2.3.15 4.75.1 1.2.25 2.35 0 .2.05.35.05 0 .15.05.4.05.85.05h1q2.65-.2 5.7-2.05.6-.4 1.25-.8.4-.25.75-.5l.1-.1q.2-.15.45-.3v-.05q.2.1.45.15 1.95.6 3.95-.15l.05.05q.15.1.25.2.1.05.15.1l.05.05q0 .05.05.05 0 .05.05.05.1.05.25.15l.05.05q3.75 2.9 7.15 3.1.5.05 1 0l.8-.1h.05q0-.1.05-.2.1-1.1.25-2.15.2-2.4.2-4.65-.05-2.95-.4-5.65v-.25q-.75.1-1.45.15l-1.7.2q-.5 0-1.05.05l-1.1.05h-.15q-2.1.9-4.35 2.7l-.35.3q-.1.1-.2.15M162.7 44.9q-.35-1.35-.65-2.7l-.2-.6-.4-1.6q-.75-2.7-1.6-5.3-.3-1-.6-1.95-.3-.8-.55-1.6-.1-.2-.15-.35-.45-1.25-.85-2.45-.9-2.4-1.85-4.75-1-2.3-2-4.5-1.8-3.95-3.85-7.6-1-1.85-2.1-3.6-.6-.95-1.15-1.9-2-3.1-4.2-6l-1.85 1.4q-1.35 1.05-2.8 2.1l-1.55 1.15q-3.75 2.6-7.65 4.8-.25.1-.5.25-11.95 6.55-25.45 9.3-.6.1-1.15.2l7.15 6.8h.9l-29.3 35 3.3-6.6-.2.3-.05.05q-.15.25-.35.4-.45.3-1-.1L79.3 60.2h-.05l-.1-.1L55.65 26h.95l6.7-6.8q-.55-.15-1.15-.25-13.85-2.85-26-9.65-3.85-2.15-7.5-4.65L27.1 3.5q-1.45-1.05-2.8-2.1L22.45 0q-.1.05-.15.15-3.05 4.1-5.7 8.55-.85 1.45-1.65 2.9-1.5 2.7-2.85 5.55-.5.95-.95 1.95-2.05 4.45-3.8 9.25l-.9 2.4q-.15.4-.3.85-.7 2.05-1.35 4.2-.85 2.85-1.65 5.8-.1.3-.15.6l-.7 2.7-.1.5h.05q-.15.5-.25 1-.1.3-.15.6l-.3 1.4q-.4 1.7-.75 3.4v.2q-.2.9-.35 1.8-.2 1-.4 2.05-.05.2-.05.4v.1q3-2.6 7.05-3.35.15-.05.3-.05l1.85-.2q8.1-.35 12.65 4.7l-2.8 11.75q-.55 2.1-1.05 4.2l-.9 3.6-.95 3.6v.25l-.05.05h.1l-.8 4.4q12 5.75 45.9 8.05 2.65.2 5.4.45 1.65.1 3.35.2.7.05 1.35.1 8.8.35 10.15-5.1h1.85q1.85 5.35 10.4 5.15l.3-.05q.65-.05 1.35-.1 3.05-.2 6.1-.45l2.5-.2q38.4-2.9 45.9-8l-1.15-4.45-.5.1.3-.1h.2l-5.9-22.8q.15.1.3.15l-.2-.8q.05-.05.1-.05.3-.35.6-.65 4.45-4.3 11.95-4l2.05.2q.15 0 .3.05 4.05.75 7.05 3.35V56.2q0-.15-.05-.35-.3-1.55-.55-3.05l-.1-.4q-.05-.2-.05-.4-.35-1.55-.65-3.05l-.1-.5q-.2-.75-.35-1.45-.05-.3-.15-.6-.15-.75-.35-1.5M148 81.05h.1l-1.3.3q.55-.15 1.15-.3h.05z" id="ShiLon036__Symbol_331_0_Layer0_0_FILL"/><path fill="#252525" d="M.75 11.2q-.1-.9.05-1.75L.85 9q-1.75 5.45.2 19v.15q.05.1.05.25.7 2.95 1.6 6.2h1.85Q3.3 32 2.6 29q-.1-.3-.15-.6l-.1-.4Q2 26.6 1.8 25.4q-.05-.15-.05-.3-.15-.65-.25-1.2-.25-1.6-.1-9.65.1-8.1-.65-3.05M4.8 0l-.2.3-.05.05Q4.4.6 4.2.75q-.45.3-1-.1Q-.4 1.9.45 5.8l1.05.85V6.6Q5.4 5.1 4.8 0z" id="ShiLon036__Symbol_332_0_Layer0_0_FILL"/><path fill="#333333" fill-opacity="0.6" d="M5.5 1.85q.95.5 1.45 1.05.35.4.2.95-.15 0-.2.05H6.8l.1-.1-.15.1-1.55-.3q-.85 0-2.7.4v.5q.2.2.35.3.25.25.6.25l1.7-.25q1.2 0 1.2 1.1 0 .4-1.25 1.1-1.3.75-1.3 1.35 0 .15.2.35.2.2.3.2.45 0 1.45-.5 1.05-.5 1.7-.5.4 0 1.15.2.6.15.95.4l-.2-.5q-.4-1.2-.4-2.1 0-1.15.45-2.1l.2-.3q.05-.05.05-.1l-.4-.3Q7.05 1.35 5.05.45L4.15.4Q2.05.25 0 0l.05.05Q1.1.6 2.55.9q1.8.35 2.95.95M21.3 4.5V4q-1.85-.4-2.7-.4l-2.15.4q0-.05-.05-.1-.15-.15-.15-.25 0-.9 4.75-2.65 1.05-.45 1.9-.85l-1.7.2q-.5 0-1.05.05l-1.1.05h-.15q-2.1.9-4.35 2.7l-.35.3q.05.05.05.1.1.15.15.25.45.95.45 2.1 0 .9-.4 2.1l-.2.5q.35-.25.95-.4.75-.2 1.15-.2.65 0 1.7.5 1 .5 1.45.5.1 0 .3-.2.2-.2.2-.35 0-.6-1.3-1.35-1.25-.7-1.25-1.1 0-1.1 1.2-1.1l1.7.25q.35 0 .6-.25.15-.1.35-.3z" id="ShiLon036__Symbol_333_0_Layer0_0_FILL"/><path fill="#4F4F4F" d="M64.85 63.05q.45-.5.45-1.2 0-.65-.45-1.1-.55-.55-1.2-.55-.7 0-1.15.55-.5.45-.5 1.1 0 .7.5 1.2.45.45 1.15.45.65 0 1.2-.45M5.2 26.6v-.05q.05-.2-.05-.35-.15-.2-.35-.25-.2-.05-.35.1-.2.1-.25.3L0 47.8v.2q0 .1.1.15v.05q.1.15.3.2.2.05.4-.05.15-.15.2-.35l4.2-21.4m28.05-10.2l6.7-6.75Q26.1 6.8 13.95 0l8.4 13.45 10.9 2.95m8.7-6.35q-.45-.1-.85-.15l-6.7 6.8h-10q13.25 19.2 31.9 33.55l.2.15q.25.2.55.5h.05l2.75-5.15v-.05q-.15-.1-.3-.25-.05-.1-.1-.15-.1-.15-.15-.25-.75-1.3-1.5-2.5l-.8-1.4q-4.9-8.55-9-17.25-.1-.05-.15-.05-.05-.15-.05-.35-3.15-6.7-5.85-13.45m74.45 16.3q-.05-.2-.25-.3-.15-.15-.35-.1l-.2.1q-.1.05-.15.15-.1.15-.05.35v.05l4.2 21.4q.05.2.2.35.2.1.4.05t.3-.2v-.05q.1-.05.1-.15v-.2l-4.2-21.45m-28.65-10l9.4-2.65L106 .4Q94.05 6.95 80.55 9.7l7.2 6.65m7.8.35h-9L79.4 9.9q-.65.15-1.3.25-.3.65-.55 1.35-2.45 6.2-5.1 12.15-.05.1-.05.2h-.05q-.3.6-.55 1.2-3.95 8.6-8.4 16.65-.1.2-.2.45l-.1.1q-.25.5-.55 1-.2.4-.45.8l-.3.5q-.15.15-.25.35l-.1.2-3.3 6.6v.05q-.45 1.1-.65 2.5-.1 1.05-.1 2.05-.2 4.7.35 9.55 0-7.95 8.05-16.55l.55-.55q0-.05.05-.1l.3-.3q1-1 2.1-1.9 10.4-8.75 18.85-19.1 4.2-5.15 7.9-10.65z" id="ShiLon036__Symbol_334_0_Layer0_0_FILL"/><path fill="#FFF" d="M241.3 271.55l-.2-2.8-20.35 2.55.05 2.9 20.5-2.65z" id="ShiLon036__Layer1_0_FILL"/></defs><use xmlns:xlink="http://www.w3.org/1999/xlink" xlink:href="#ShiLon036__Symbol_346_0_Layer0_0_FILL" transform="translate(180.2 249.3)" id="ShiLon036__col1n"/><use xmlns:xlink="http://www.w3.org/1999/xlink" xlink:href="#ShiLon036__Symbol_344_0_Layer0_0_FILL" transform="translate(173.55 247.95)" id="ShiLon036__col1d"/><use xmlns:xlink="http://www.w3.org/1999/xlink" xlink:href="#ShiLon036__Symbol_345_0_Layer0_0_FILL" transform="translate(189.2 258.1)" id="ShiLon036__col1s"/><use xmlns:xlink="http://www.w3.org/1999/xlink" xlink:href="#ShiLon036__Symbol_331_0_Layer0_0_FILL" transform="translate(110 228.6)" id="ShiLon036__col2n"/><use xmlns:xlink="http://www.w3.org/1999/xlink" xlink:href="#ShiLon036__Symbol_332_0_Layer0_0_FILL" transform="translate(188.85 283)" id="ShiLon036__col2d"/><use xmlns:xlink="http://www.w3.org/1999/xlink" xlink:href="#ShiLon036__Symbol_333_0_Layer0_0_FILL" transform="translate(180.35 248.85)" id="ShiLon036__col2l"/><use xmlns:xlink="http://www.w3.org/1999/xlink" xlink:href="#ShiLon036__Symbol_334_0_Layer0_0_FILL" transform="translate(132.2 237.9)" id="ShiLon036__col2s"/><use xmlns:xlink="http://www.w3.org/1999/xlink" xlink:href="#ShiLon036__Layer1_0_FILL"/></g></g><g transform=""><g transform=""><defs><path fill="#FFD3A8" d="M34.65 11q0-3.2-2.25-5.45-1.65-1.65-3.8-2.1-.3-.05-.55-.1-.25-.05-.5-.05-.15-.05-.35 0-.15-.05-.35 0h-.4q-.7.05-1.25.15-.15.05-.35.1Q20.7-.05 15.1 0 9.35-.05 5.2 3.65q-.05.05-.1.15-.2.1-.35.25-.05 0-.05.05l-.05.05-.2.2q-.25.25-.45.5-.05 0-.05.05l-.05.05-.3.3Q0 9.4 0 15q0 6.2 4.45 10.6Q8.85 30 15.1 30q2.9 0 5.4-.95.1-.05.2-.05.05-.05.15-.1h.05q.05-.05.15-.1.4-.15.75-.35l.8-.4q.1-.05.15-.1l.1-.05q1.5-.95 2.9-2.3 3.25-3.25 4.1-7.45.05-.05.1-.05l.3-.1q1.15-.55 2.15-1.55 2.25-2.25 2.25-5.45m135.6-6.85V4.1l-.05-.05q-.2-.15-.35-.25-.05-.1-.1-.15-4.2-3.7-9.9-3.65-5.65-.05-9.7 3.55-.2-.05-.35-.1-.4-.1-.8-.1l-.8-.05q-.2-.05-.35 0-.25-.05-.4 0-.25 0-.45.05h-.05q-.25.05-.45.1-2.2.45-3.85 2.1-2.3 2.25-2.3 5.45t2.3 5.45q.95 1 2.15 1.55l.3.1q.85 4.25 4.1 7.5 1.35 1.35 2.9 2.3.05 0 .1.05t.15.1q.35.2.75.4.35.2.75.35l.2.1h.05q.05.05.15.1.1 0 .2.05 2.5.95 5.4.95 6.25 0 10.65-4.4t4.45-10.6q-.05-5.6-3.65-9.75-.15-.15-.25-.3l-.1-.1q-.25-.25-.45-.5-.15-.1-.25-.2z" id="BodHan001__Symbol_2_0_Layer0_0_FILL"/><path fill="#F7BE86" d="M15.5 7.75q0-3.2-2.25-5.45Q11.6.65 9.45.2 9.15.15 8.9.1 8.65.05 8.4.05q-.15-.05-.35 0Q7.9 0 7.7.05h-.4Q6.6.1 6.05.2 5.9.25 5.7.3q-1.95.45-3.45 2Q0 4.55 0 7.75t2.25 5.45q1.7 1.7 3.95 2.1l1.5.15h.1l.75-.05q1.15-.1 2.15-.5.05-.05.1-.05l.3-.1q1.15-.55 2.15-1.55 2.25-2.25 2.25-5.45M12.45 3q1.95 1.95 1.95 4.75 0 2.75-1.95 4.7-.85.9-1.85 1.4-1 .45-2.05.55l-.75.05h-.1l-1.3-.15q-1.9-.4-3.35-1.85-2-1.95-1.95-4.7Q1.05 4.95 3.05 3q1.45-1.45 3.3-1.8.5-.1 1-.15H7.8q.4 0 .85.1 2.15.25 3.8 1.85m124.3 4.75q-.05-3.2-2.3-5.45-1.5-1.55-3.4-2H131q-.2-.05-.35-.1-.4-.1-.8-.1l-.8-.05q-.2-.05-.35 0-.25-.05-.4 0-.25 0-.45.05h-.05q-.25.05-.45.1-2.2.45-3.85 2.1-2.3 2.25-2.3 5.45t2.3 5.45q.95 1 2.15 1.55l.3.1q1 .4 2.25.55l.75.05h.1l1.5-.15q2.2-.4 3.9-2.1 2.25-2.25 2.3-5.45M133.7 3q1.95 1.95 1.95 4.75 0 2.75-1.95 4.7-1.45 1.45-3.35 1.85l-1.3.15h-.1l-.75-.05q-1.1-.1-2-.55-1.05-.5-1.95-1.4-1.95-1.95-1.9-4.7-.05-2.8 1.9-4.75 1.65-1.6 3.8-1.85h.05q.4-.1.85-.1H129.4q.5.05 1 .15 1.85.35 3.3 1.8z" id="BodHan001__Symbol_1_0_Layer0_0_FILL"/></defs><use xmlns:xlink="http://www.w3.org/1999/xlink" xlink:href="#BodHan001__Symbol_2_0_Layer0_0_FILL" transform="translate(105.05 280.6)" id="BodHan001__col1n"/><use xmlns:xlink="http://www.w3.org/1999/xlink" xlink:href="#BodHan001__Symbol_1_0_Layer0_0_FILL" transform="translate(124.2 283.85)" id="BodHan001__col1d"/></g></g><g transform=""><g transform=""><defs><path fill="#000000" d="M27.95.55q-.15-.35-.5-.5-.4-.15-.75.05Q14.55 5.7 1.35.1.95-.1.6.1.25.2.1.6q-.2.35 0 .7.1.35.5.55Q14.65 7.8 27.5 1.8q.35-.15.5-.5.15-.4-.05-.75z" id="FacMou001__Symbol_1_0_Layer0_0_FILL"/></defs><g id="FacMou001__col1n" transform="translate(178.5 224.8)"><use xmlns:xlink="http://www.w3.org/1999/xlink" xlink:href="#FacMou001__Symbol_1_0_Layer0_0_FILL" id="FacMou001__col1n_FL"/></g></g></g><g transform=""><g transform=""><defs><path fill="#FFFFFF" d="M105.35 24.4q-1.2-4.7-3.8-8.85-1.7-2.75-4.05-5.3-.15-.2-.3-.35Q88.85.9 77.85.1 66.8-.75 59.55 7q-5.35 5.75-6.3 13.7-1-7.95-6.35-13.7Q39.65-.75 28.65.1 17.6.9 9.25 9.9q-.3.3-.55.65l-.3.3q-5 5.65-7 12.4Q.35 26.8.1 30.65q-.2 2.7.05 5.15.25 3.15 1.25 6 1.65 4.65 5.15 8.4 7.25 7.75 18.25 6.9 11.05-.8 19.4-9.75 7.8-8.4 9.05-19.25 1.2 10.85 9 19.25 8.35 8.95 19.4 9.75 11 .85 18.25-6.9 3.75-4 5.35-9.15.75-2.4 1-5.05.3-2.6.1-5.4-.2-3.2-1-6.2z" id="FacEye001__Symbol_1_0_Layer0_0_FILL"/><path fill="#000000" d="M3.4 6.65Q4.8 6.6 5.8 5.6q1-.95 1-2.35 0-1.35-1-2.35-1-.95-2.4-.9Q1.95-.05 1 .9q-1 1-1 2.35 0 1.4 1 2.35.95 1 2.4 1.05m32.05 0q1.4-.05 2.35-1.05 1-.95 1-2.35 0-1.35-1-2.35-.95-.95-2.35-.9Q34-.05 33 .9q-1 1-1 2.35 0 1.4 1 2.35 1 1 2.45 1.05z" id="FacEye001__Symbol_4_0_Layer0_0_FILL"/></defs><g id="FacEye001__col1n" transform="translate(139.3 136.2)"><use xmlns:xlink="http://www.w3.org/1999/xlink" xlink:href="#FacEye001__Symbol_1_0_Layer0_0_FILL" id="FacEye001__col1n_FL"/></g><g id="FacEye001__col2n" transform="translate(173 163.45)"><use xmlns:xlink="http://www.w3.org/1999/xlink" xlink:href="#FacEye001__Symbol_4_0_Layer0_0_FILL" id="FacEye001__col2n_FL"/></g></g></g><g transform=""><g transform=""><defs><path fill="#725849" d="M78.4 5q-.05-.15-.1-.25l-.1-.3q-.75-1.35-1.4-2.7-.45-.9-.85-1.75v6.2l-5-4.45.1.2q-.95 2.5-3.65 3 .35 2.15 1 4.3-.05.1-.05.2-1.1-.35-2.95-.35-4.95 0-5.45 3.65-.1.6-.15 1.05-.4-.35-1.5-1.95-.7-1.1-1.55-1.7l-1.4-1q-1.55 1.4-1.75 2-2 2.55-2.7 3.5-.35-.85-1.7-2.75-2.05-2.7-2.65-3.6-.2-.3-.3-.75-6.4 2.85-12.8 0-.85 1.5-2 3.6-1.25 2.25-2.1 3.95-.45-.65-3.05-3.95-.5-.85-.85-1.5l-.05.3q-4.95 3.55-5.3 3.85-.05-.45-.15-1.05-.5-3.65-5.45-3.65-1.9 0-2.95.35-.05-.1-.05-.2.6-2.15 1-4.3-2.15-.4-3.7-2.05L4.45 7.6l-1.3-6.05-.1.2q-4.4 8.75-2.4 18 1.55 8.85 8.6 12.3-.15-.5-.15-2l.05-1.65q1.5 1.85 3.9 4.9.05.1.15.2 1.35 1.55 2.95 3.2.4.35.85.65v-.1-.15q-.05-1.85.25-3.2.05-.4.15-.75V33l.05-.1v.05q.3.5.65 1.05 1.45 2.15 3.4 4.15 1.1 1.1 2.1 1.85l.8.4v-3.85l.1.1q.35.4 1.25 1.7.85 1.1 1.55 1.75 1 .9 2.15 2 0 .05.05.05.85.6 2.55 1.55.5-.25 1.6-.7 2.3-.9 3.55-.9.05 0 2.65.55.65 0 1.45-.15l5.15-3.05.05.25q.05.25.15.85.15.75.2 1.4.25-.05.55-.05.35-.05.65-.05 1.8-.4 3.4-1.25 1.25-.65 4.25-2.25.15.3.3.55.15.35.2.6.15.5.15 1.7 1.25-.45 3.1-1.45 1-.55 2.25-1.3.05-.05.15-.1 1.1-1.1 2.05-2 1.65-1.55 2.25-1.8.1-.05.2-.05.4 0 .4 1.9v.1h.1q.05-.05.1-.05.4-.2.8-.35.2-.15.4-.25 2-1.1 3.15-2.8 1.4-2.65 2.25-3.95v.05q.05.05.1.15 0 .1.05.2l.8 2.4q1.75-1.4 2.55-4.6.6-2.35 1.35-3.75 4.6-9.7 0-18.55z" id="BeaChi035__Symbol_74_0_Layer0_0_FILL"/><path fill="#463329" d="M5.05 8.65Q3.6 6.55.55 0 .3 1.5.15 3.25.027 4.201 0 4.7q1.5 1.85 3.9 4.9Q5.3 11.3 7 13q.4.35.85.65v-.1-.15q-1.35-2.65-2.8-4.75m7.3 3.5q-.1-.2-1.4-2.7-.65-1.3-1.5-3.7-.55.7-1.15 3.5 1.6 2.7 4.05 5.2 1.1 1.1 2.1 1.85l.8.4v-.05q-.8-1.25-1.55-2.4-1-1.45-1.35-2.1m17.4 3.9q-1.15-.6-2.05-.9-.95-.35-2.35.35-1.4.7-2.45.75-.95 0-2.6-.85l-.2-.1q-2.7-2.45-4.7-6.3-.45 2.9-.05 3.95.35.4 1.25 1.7.85 1.1 1.55 1.75 1 .9 2.15 2 0 .05.05.05.85.6 2.55 1.55.5-.25 1.6-.7 2.3-.9 3.55-.9.05 0 2.65.55.65 0 1.45-.15l5.15-3.05.05.25q0-.6.05-.7l-.35-3.6q-3.15 3.55-4.5 4.4-.3.15-.5.2-1.2.3-2.3-.25M45.95 11q-.1-1.4-.95.55-.85 1.9-1.85 3.05-1.05 1.1-4.9 3.6.35-.05.65-.05 1.8-.4 3.4-1.25 1.25-.65 4.25-2.25.15.3.3.55-.1-.6-.3-1.25-.5-1.55-.6-2.95m11.2-1.65q-.55-1.9-.75-2.85-1.45 3.7-4.05 7.25-1.7 2-2.05 2.3 1.1-.6 2.4-1.4 1.1-1.1 2.05-2 1.65-1.55 2.25-1.8.1-.05.2-.05.4 0 .4 1.9v.1h.1q0-1.4-.55-3.45m6.45-7.1l-.25-1.2q-.35 3-1.7 6.5-1.4 3.5-2.65 4.6 2-1.1 3.15-2.8 1.4-2.65 2.25-3.95v.05q.05.05.1.15-.15-.5-.25-.8-.05-.05-.65-2.55z" id="BeaChi035__Symbol_33_0_Layer0_0_FILL"/><path fill="#876C5C" d="M21 6.4h-.15q-.45 1.2-1.45 3.25-.75 1.75-.8 2.75-.05.6-.2 2.15-.05.15-.05.35-.3-.15-.55-.35-2.35-1.5-4.55-4.1-2.45-2.9-3.6-5.05-1.55 2-2.3 3.25-.75 1.2-1.55 3.7Q2.3 10.8.5.95q-1.55 8 1.85 11.4 3.4 3.35 3.8 3.35.4 0 1.55-3 1.1-3.05 2.15-3.65 2.35 5.5 7.4 8.1 2.2 1.15 4.95 1.7-1.05-1.6-1.45-4.3-.1-.55-.15-1.15-.3-3.55.4-7m24.05 3.15q-.85-1.2-2.6-2.9-.15 1.05-3 4.7L37.9 13.3q-1.05-1.4-2.5-2.9-2.2-2.35-2.8-3.55 3 9.1 5.6 9.75 1.8-2.35 4.9-5.6.75 1.1 6.3 6.15-.05-.15-.05-.2-.75-1.9-1.8-3.25v-.05q-1.95-3.25-2.5-4.1m9.4-2.4q.35 1.05.95 4.8 1.55-.85 2.7-2.55 1.15-1.75 1.8-3.6.6-1.9.3-3.5T59.9 0q-.85 5.15-3.55 8.55-.85-4.5-3.85-5.6 1.6 3.1 1.95 4.2z" id="BeaChi035__Symbol_10_0_Layer0_0_FILL"/></defs><use xmlns:xlink="http://www.w3.org/1999/xlink" xlink:href="#BeaChi035__Symbol_74_0_Layer0_0_FILL" transform="translate(152.85 227.3)" id="BeaChi035__col1n"/><use xmlns:xlink="http://www.w3.org/1999/xlink" xlink:href="#BeaChi035__Symbol_33_0_Layer0_0_FILL" transform="translate(162 251)" id="BeaChi035__col1d"/><use xmlns:xlink="http://www.w3.org/1999/xlink" xlink:href="#BeaChi035__Symbol_10_0_Layer0_0_FILL" transform="translate(165.05 239.3)" id="BeaChi035__col1l"/></g></g><g transform=""><g transform=""><defs><path fill="#725849" d="M32.25 6.95q-.3-5.95-6.5-6.7-2.65-.4-6.55-.1H6.5Q.95.45.05 6.9 0 8.2.05 9.6q.55 9.5 1.7 14 .15.4.35.8 1.15 1.25 2.05 0 1.35-2.35 3-12.9.05-.1.05-.15v-.05q1-3.05 5.7-3.1h.95q1.25 0 2.5.05h15.9q.05-1.1 0-1.3M71.5 9.6q.05-1.4 0-2.7Q70.6.45 65.05.15h-12.7q-3.9-.3-6.55.1-6.2.75-6.5 6.7-.05.2-.1 1.3h16.15q1.15-.05 2.35-.05 1.15-.05 2.1.05 3.7.4 4.55 3.05v.05q0 .05.05.15 1.65 10.55 3 12.9.9 1.25 2.05 0 .2-.4.35-.8 1.15-4.5 1.7-14z" id="BeaMus027__Symbol_44_0_Layer0_0_FILL"/></defs><use xmlns:xlink="http://www.w3.org/1999/xlink" xlink:href="#BeaMus027__Symbol_44_0_Layer0_0_FILL" transform="translate(156.75 201.4)" id="BeaMus027__col1n"/></g></g><g transform=""><g transform=""><defs><path fill="#725849" d="M188.9 116.4q-.05-.05-.05-.1-6.45-23.15-24.65-41.35Q136 46.8 96.15 46.8q-39.85 0-68 28.15T0 142.95v.65q-.05 3.15.55 6.05 1.9.5 4.7 4.7 2.9 4.4 5.65 11.1-.15-5.35-.15-5.55.3-7.75 2-14.75 3.15-12.75 9.15-14 7.1-2.6 8.3-8.05 1.15-5.4-.85-17.1-.3-1.9-.45-3.6l-.05-.4q-.2-5.3 1.25-9.75.25-.65.6-1.2.35-.65.75-1.2l1.85-2 .4-.3q5.1-5.05 12.65-7.05l.85-.2q1.25-.3 1.75-.35.45-.05 2.25-.4l-1.2.2q.15-.05.25-.05.1-.05.25-.05l.7-.1q7.7-1 15.05 1.7.85.25 1.65.55l.55.2q.05 0 .1.05.1.05.15.05 10.7 3.6 21.2 4.5 2.65.2 5.3.25h1.9q1.2 0 2.4-.05 11.95-.6 24.1-4.7.05 0 .15-.05.05-.05.1-.05l.8-.3q.7-.25 1.4-.45 7.35-2.7 15.05-1.7l.7.1q.15 0 .25.05.1 0 .25.05l-1.2-.2q1.8.35 2.25.4.5.05 1.75.35l.85.2q7.55 2 12.65 7.05l.4.3 1.85 2q.4.55.75 1.2.35.55.6 1.2 1.45 4.45 1.25 9.75l-.05.4q-.15 1.7-.45 3.6-2 11.7-.85 17.1 1.2 5.45 8.3 8.05 6 1.25 9.15 14 1.7 7 2 14.75 0 .2-.15 5.55 2.75-6.7 5.65-11.1 2.8-4.2 4.7-4.7.75-4.35.6-9.25l-.1-2.1q-.15-3.3-.45-6.5-.4-3.55-1-7-.8-4.25-1.9-8.35v-.05M163.35 12.6q.2-.15-.6.3-.8.45-3.9.8-2.1.3-5 .3-18.95 0-26.3-6.2-1.55-1.35-2.8-2.2-.4-.35-.75-.6-8.35-5.3-16.3-5-4.95.05-8.3 1.15-7.7 2.45-11.05 10.1-2.95-4.85 1.1-9.75-5.1 1.7-6.8 3.55-2.4 2.4-2.4 7.55 0 2.5.95 5 .5 1.45 1.35 2.9.65 1.2 1.4 2.1-2.05 1.25-3.4 2.5-3.9 3.4-3.5 6.6 1.9 7.4 10.25 8.4v2.1h17.85v-3.8q6.3-1.45 8.85-2.65 1.6-.8 3.2-1.45-4.9.55-10.4-3.35 1.9-1.25 5.9-.75 2.2 0 7.4 1.7.95.3 2.05.7 5.9 2.1 7.25 3l.1-.5q-2.2-6.7-9.4-9.25-1.9-.65-4.15-1.05 1.8-1.4 4.15-1.8 1.3-.25 2.9-.35 4.4 0 9.65 2.7 5.15 2.7 12 2.7 3.2 0 7.65-1.7 1.7-.65 4.2-1.7h.05q.95-.4 2.05-.85.05 0 .1-.05-5.55.6-9.65-1.75-4.15-3.15-6.9-4.65.55.25 3.65.45 10.5.3 16.25-4.05l.05-.05q.7-.55 1.3-1.1h-.05z" id="HaiSpe044__Symbol_176_0_Layer0_0_FILL"/><path fill="#876C5C" d="M102.1 55.7q.2 1.8 0 3.7-.65 6.5-6.05 13.6.25-5.55.35-9.15.1-4.25-.1-5.6 0-.15-.05-.3-.1-.4-.25-.75-1.1-2.6-4.85-2.6-3.6 0-4.4 1.7-.2.35-.25.8 0 .3-.05.6-1.3 9.55-8.8 14.75.5-.85.9-1.7Q82.2 63.6 82.9 57.1q0-1.15-.55-1.85-.85-1-2.75-1.15h-6q-2.8.55-4.95 17.2Q67 54.55 64 54.1h-7.2q-2.2.45-2.6 2.8.65 6.6 4.35 13.85.4.85.9 1.7-7.5-5.2-8.8-14.75-.05-.3-.05-.6-.25-2.5-4.65-2.5-3.75 0-4.85 2.6-.15.35-.25.75-.25 1.1-.15 5.9.1 3.6.35 9.15-7.05-9.25-6-17.5l-.3.2q-4.4 2.7-5.8 4.35-3.05 3.3-4.55 11.25-2.25-3.6-2.3-10.9v-.9q-.35.65-.75 1.25-6.9 11.6-12.55 18.7-5.95 7.4-6.35 8.3-.45.9-.5 1.05-.1.2-1.45 3.3-1.35 3.05.8 10.7v-.4l-.05-.4q-.2-5.3 1.25-9.75l.1-.3q.2-.45.45-.9.35-.65.8-1.2l1.85-2 .4-.3q5.1-5.05 12.65-7.05l.85-.2q7.2-2 7.95-5.7l.1-.5q.1-.5.1-1.1.15-3.7.85-6.5 1.15-3.35 4.05-6.95L31.1 62.9q-1.4 4.65-1.4 6.55v.25q.05 3.45 1.85 6.15 2.75 3.7 8.75 5.95l.55.2q.05 0 .1.05.1.05.15.05 10.7 3.6 21.2 4.5 2.65.2 5.3.25h1.9q1.2 0 2.4-.05 11.95-.6 24.1-4.7.05 0 .15-.05.05-.05.1-.05l.8-.3q5.8-2.25 8.5-5.85 1.8-2.7 1.85-6.15v-.25q0-1.9-1.4-6.55l-1.55-3.35q.15.2.3.35 2.65 3.4 3.75 6.6.7 2.8.85 6.5 0 .6.1 1.1l.1.5q.75 3.7 7.95 5.7l.85.2q7.55 2 12.65 7.05l.4.3 1.85 2q.45.55.8 1.2.25.45.45.9l.1.3q1.45 4.45 1.25 9.75l-.05.4v.4q2.15-7.65.8-10.7-1.35-3.1-1.45-3.3-.05-.15-.5-1.05-.4-.9-6.35-8.3-5.25-6.6-11.55-17.05-.85-1.4-1.75-2.9V62q-.3 6.1-2.3 9.3-1.35-7.2-4-10.6-.25-.35-.55-.65-1.4-1.65-5.65-4.25-.1-.05-.15-.1l-.3-.2q0 .1.05.2m29.15-42q-2.15.35-5.1.35-18.95 0-26.3-6.15-1.6-1.35-2.7-2.3-.4-.35-.75-.6-8.35-5.3-16.3-5-4.95.05-8.3 1.15-7.7 2.45-11.05 10.1.8.5 1.8 1.65.95 1.1.85 3.3 2.1-.7 3.2-6.6 3.15 5.75 3.85 8.65.3-1.85 1.7-3.9 3-4.75 3.65-5.2-.85 6.7.4 11.3 1.2 4.55 1.15 5.3l.25.1q.2-8 2.2-11.8 1.95-3.8 6.45-3.8t10.7 5.15q6.15 5.15 15.1 8.8 8.9 3.6 16.85.45h.05q.95-.4 2.05-.85-5.55.6-9.65-1.75-4.3-3.25-7.1-4.75h.25l.05.05q.55.25 3.65.45 10.5.3 16.25-4.05l.05-.05q.7-.55 1.25-1.1.2-.15-.6.3-.8.45-3.9.8z" id="HaiSpe044__Symbol_64_0_Layer0_0_FILL"/><path fill="#000000" d="M17.4.25V.3h-.2q-1.55.65-3.15 1.05-.3.1-.65.2-4.3.9-9.1-.2Q2.2.85 0 0v22.3q1.25-.1 2.6-.15.85-.05 1.7-.05 1.3-.1 2.6-.05.55-.05 1.15 0h.05q.25-.05.55 0h.1q.05-.05.1 0 .1-.05.25 0 .25-.05.6 0h.25q.3-.05.65 0 1.4-.05 2.8.05.1-.05.2 0H14.05q.55 0 1.1.05h.2q.95.05 1.85.1h.1q.25 0 .55.05V0q-.25.1-.45.25z" id="HaiSpe044__Symbol_34_0_Layer0_0_FILL"/><path fill="#4F4F4F" d="M17.85 11.6L0 12.25v1.7l17.85-.75v-1.6m-9.1 8.35q.05-.05.1 0 .1-.05.25 0 .25-.05.6 0h.25q.3-.05.65 0 1.4-.05 2.8.05.1-.05.2 0H14.05q.55 0 1.1.05h.2q.95.05 1.85.1h.1q.25 0 .55.05L0 16.35v1.85l8.75 1.75m9.1-18.15V0L0 8.85v1.8L17.85 1.8z" id="HaiSpe044__Symbol_11_0_Layer0_0_FILL"/></defs><use xmlns:xlink="http://www.w3.org/1999/xlink" xlink:href="#HaiSpe044__Symbol_176_0_Layer0_0_FILL" transform="translate(96.3 10.8)" id="HaiSpe044__col1n"/><use xmlns:xlink="http://www.w3.org/1999/xlink" xlink:href="#HaiSpe044__Symbol_64_0_Layer0_0_FILL" transform="translate(123.9 10.8)" id="HaiSpe044__col1l"/><use xmlns:xlink="http://www.w3.org/1999/xlink" xlink:href="#HaiSpe044__Symbol_34_0_Layer0_0_FILL" transform="translate(183.6 35.65)" id="HaiSpe044__col2n"/><use xmlns:xlink="http://www.w3.org/1999/xlink" xlink:href="#HaiSpe044__Symbol_11_0_Layer0_0_FILL" transform="translate(183.6 37.75)" id="HaiSpe044__col2s"/></g></g><g transform=""><g transform=""><defs><path fill="#000000" d="M18.65 3.7Q28.6 3.05 29 3.05q6.95.2 10.45.55 3.45.3 3.35-2.1Q40.3-.05 35.35.05q-3-.1-6.95 0-20.05.2-28.4 12Q8.8 4.3 18.65 3.7m92.25 8.35Q102.65.25 82.85.05q-4.05-.1-6.85 0-5.2-.1-7.5 1.6-.45 1.75 3.65 1.85 3.75-.25 10.05-.45.45 0 10.2.65 9.8.6 18.5 8.35z" id="FacBro011__Symbol_11_0_Layer0_0_FILL"/></defs><use xmlns:xlink="http://www.w3.org/1999/xlink" xlink:href="#FacBro011__Symbol_11_0_Layer0_0_FILL" transform="translate(137.05 120.25)" id="FacBro011__col1n"/></g></g></svg>