<?xml version="1.0" standalone="no"?>
<svg width="800" height="800" xmlns="http://www.w3.org/2000/svg" id="stage-svg" xmlns:xlink="http://www.w3.org/1999/xlink" preserveAspectRatio="none" viewBox="0 0 385 385"><g transform=""><g transform=""><defs><path fill="#FFD3A8" d="M191.5 95.8q0-39.7-28.05-67.75-16.2-16.2-36.3-23.05-14.7-5-31.4-5t-31.4 5q-20.1 6.85-36.3 23.05Q0 56.1 0 95.8q0 32.25 18.5 56.85l.05.05q.6.75 1.2 1.55l1 1.2L28 163.5q0 .05.05.05l.7.7q3.5 3.4 7.15 6.4v.05l-.05-.05q-5.81 7.718-10.6 17.75-.078.183-.2.35l-.3.7q-.06.17-.15.35-.117.253-.25.5l-2.6 6.15q-5.345 13.608-8.3 30.1-.05.2-.05.4-.15 2.45.15 4.85Q15.7 245.9 31 249.35q.2.05.45.1l.05-.05q.15.05.25.05.2.6.4 1.15.4.95 1.1 1.75 0 .05.05.1v19.45q-3.9.7-7.8 2.5-.6.267-1.2.55-.94.67 0 .8h143.25q1 0 0-.6-.775-.405-1.55-.75-3.9-1.8-7.8-2.5v-19.45q.05-.05.05-.1.7-.8 1.1-1.75.2-.55.4-1.15.1 0 .25-.05l.05.05q.25-.05.45-.1 15.3-3.45 17.45-17.55.3-2.4.15-4.85 0-.2-.05-.4-3.7-20.65-11.15-36.75-4.8-10.45-11.15-18.95h-.05q0-.1-.1-.2 3.65-3 7.15-6.4l.7-.7q.05 0 .05-.05l7.25-8.05 1-1.2q.6-.8 1.2-1.55l.05-.05q18.5-24.6 18.5-56.85z" id="SkiSki001__Symbol_10_0_Layer0_0_FILL"/><path fill="#F7BE86" d="M-36.05 227.75h-.2l-3.9.15-1.3.1q-8.5.6-13.15 1.65-4.7 1-5.35 1.3-.15.05-.25.1 8-1.3 16.1-1.8.3-.05.65-.05l2-.1q.2-.05.35-.05h.3q15.4-.65 30.05 2l4.15.7q1.15.2 2.3.45 1.75.35 3.45.75l.3.1q.1 0 .2.05.15 0 .3.05-.4-.15-.8-.25-1.7-.6-3.45-1.05-.55-.15-1.05-.3-.15-.05-.25-.05-10.8-3-22-3.6-.4-.05-.8-.05-.55-.05-1.15-.05l-6.5-.05m3.4-52.2q3.05 1.2 6.25 0 1.6-1.65.35-3.6-.1-.15-.15-.25-3.05-1-6.9 0-.5.7-.6 1.4-.2 1.1.8 2.25.1.1.25.2M3.2 203.7q-1.25-1.15-2.25 0-.05.25 0 .55.25 1.6.15 3.25l.1.05q.7.3 1.05-.35l.1-.2q.15-.45.3-.85.25-.8.4-1.55.05-.15.05-.3l.1-.6m55.4 25.95q-4.65-1.05-13.15-1.65l-1.3-.1-3.9-.15h-.2l-6.5.05q-.6 0-1.15.05-.4 0-.8.05-11.2.6-22 3.6-.1 0-.25.05-.5.15-1.05.3-1.75.45-3.45 1.05-.4.1-.8.25.15-.05.3-.05.1-.05.2-.05l.3-.1q1.7-.4 3.45-.75 1.15-.25 2.3-.45l4.15-.7q14.65-2.65 30.05-2h.3q.15 0 .35.05l2 .1q.35 0 .65.05 8.1.5 16.1 1.8-.1-.05-.25-.1-.65-.3-5.35-1.3M29.55 173.1q-.2 1.1.8 2.25.1.1.25.2 3.05 1.2 6.25 0 1.6-1.65.35-3.6-.1-.15-.15-.25-3.05-1-6.9 0-.5.7-.6 1.4z" id="SkiSki001__hll_0_Layer0_0_FILL"/><path fill="#DE9957" d="M-54 165.45q-.05.05-.05.1l-4.3 21.85q-.45 2.1-.85 4.05l-.1.6q-.2.8-.35 1.6-1.5 7.35-2.3 12.15-.75 4.4.45-.6.4-2.5 1.45-6.25.1-.6.25-1.25.7-3.15 1.3-5.65.65-3.05 1.15-5.1h.05l-.05-.05v-.05q.2-.9.35-1.55.2-.95.4-1.55v-.05q0-.15.05-.25.15-.75.2-.85l3.25-16.8.05-.05q0-.25-.1-.4-.1-.2-.3-.2-.2-.05-.3 0-.05 0-.05.05-.05 0-.1.05t-.1.2m81.8 53.1q5.828-.808 11.3-1.95-.15 0-.3.05-.95.05-1.9.15-.75.05-1.5.15-13.1 1.2-26.3 1.45-4.5.1-9 .1-17-.1-34.1-1.8-.65-.1-1.2-.15 5.808 1.176 11.85 2 11.28 1.525 23.45 1.85h.55v.1l1.4 12.2v-.4l.05.4 1.4-12.2v-.1h.05q.15 0 .35.05l5.2-.2q9.762-.455 18.7-1.7m30.1-53.2l-.05-.05q-.15-.05-.35 0-.2 0-.3.2-.1.15-.05.4l3.25 16.85q.1.2 1.05 4.3v.05q.45 2 1.1 4.95.55 2.4 1.2 5.4l.1.4q.25 1.2.5 2.25 1 3.35 1.35 5.75 1.05 4.3.3.1-.9-5.3-2.65-13.9-.4-2.15-.9-4.5L58.1 165.7v-.1q-.1-.2-.2-.25m2.25-34.1q-1.35 1.05-2.8 2.1l-1.55 1.15q-20.35 14.1-45.8 16l-1.1.05q-3.35.2-6.8.2h-.2q-3.45 0-6.8-.2l-1.1-.05q-25.45-1.9-45.8-16l-1.55-1.15q-1.45-1.05-2.8-2.1l-1.15-.9q10.019 8.81 21.45 14.1 17.928 7.84 37.75 7.85h.2q19.823-.01 37.75-7.85 11.45-5.3 21.45-14.05l-1.15.85z" id="SkiSki001__hdd_0_Layer0_0_FILL"/><filter id="SkiSki001__Filter_1" x="-20%" y="-20%" width="140%" height="140%" color-interpolation-filters="sRGB"><feColorMatrix in="SourceGraphic" values="1 0 0 0 0 0 1 0 0 0 0 0 1 0 0 0 0 0 0.75 0" result="result1"/></filter></defs><use xmlns:xlink="http://www.w3.org/1999/xlink" xlink:href="#SkiSki001__Symbol_10_0_Layer0_0_FILL" transform="translate(96.75 58)" id="SkiSki001__col1n"/><use xmlns:xlink="http://www.w3.org/1999/xlink" xlink:href="#SkiSki001__hll_0_Layer0_0_FILL" transform="matrix(1.00052 0 0 1 190.5 98.75)" id="SkiSki001__col1d"/><use filter="url(#SkiSki001__Filter_1)" xmlns:xlink="http://www.w3.org/1999/xlink" xlink:href="#SkiSki001__hdd_0_Layer0_0_FILL" transform="matrix(1.00052 0 0 1 190.5 98.75)" id="SkiSki001__col1s"/></g></g><g transform=""><g transform=""><defs><path fill="#666666" d="M134.85 4.45q-.05-.15-.1-.25l-.45-.65Q133.7-.1 132 0l-.35.1-1.1.1Q68.05 12.1 7.45.05 7.35 0 7.25 0 5.8-.3 4 4v.15l-.35.6H3.6q-.15.2-.5.4-.05.05-.65.35-.25.2-.6.5Q.4 7.55.4 9.4q0 .65.45 1.65l.7.7q.5.5.75 1.1.25.6.3 1.4-1.4.1-2.6.3l1.45 6.55q4.85-2.05 19.6-3.4 24.8-1.85 47.95 4.4.2.05.45.1.1-.05.25-.05 19.55-5.3 40.4-4.8 14.7.4 25.95 3.4l.85-4.55-2.5-.65q0-.05.05-.05.05-.2.1-.35.1-.45.25-.85 1.85-5.65 1.85-6.25 0-1-.9-2.2-.65-.9-.9-1.4z" id="LegPan008__Symbol_10_0_Layer0_0_FILL"/><path fill="#434343" d="M11.35 3.6q.4-.45.6-1-4.8 0-9.2-1.5l-.8-.3-.5-.2-.35.6.4.2q.55.25 1.25.5 2.95 1 8.6 1.7m27.2 5.65q-4.4-.95-10-1.3-12.9 0-25.8 1.5-1.4.15-2.75.35.05.4.1.85 1.2-.15 2.65-.2Q12.4 9.35 13.8 9.3q8.15-.9 24.75-.05m34.65-2.9q-.6.15-2.2.7-1.85.6-2.2.8-.4.2-1.15.45-.8.2-1.15.35-.4.15-3.5-2l-1.6-.7q2.35 2.05 3.55 3.8.85 1.55.85 3.45 0 1.25-.1 1.65h-.5q-1.95-1.1-4.7-1.4.75.5 3.65 1.6 2.35 1.35 2.3 3.5.2.05.45.1.1-.05.25-.05.2-1.55 1.05-2.5 1-1.15 3.8-2.15h-.95q-1.7.2-2.4.2-1.1 0-1.35-.7-.1-.25-.1-1.3 0-2.05 1.4-3.1 2.5-1.35 4.7-2.7h-.1m58.7 5.6q.05-.2.1-.35-1.3-.65-2.4-1.15-.55-.3-1.05-.5-.25-.05-.45-.1-15.3-4.5-28.15-1.3 12.1-.9 22.4 1.2.35.05.75.15l.25.05q.95.2 1.95.45l6.6 1.55m.3-11.3l-.45-.65q-1.15.2-2.15.45-5.85 1.15-9.75.85.05.05-.05.9 4.45.05 7.65-.5 1.2-.2 2.15-.4 1.6-.35 2.6-.65z" id="LegPan008__Symbol_11_0_Layer0_0_FILL"/></defs><use xmlns:xlink="http://www.w3.org/1999/xlink" xlink:href="#LegPan008__Symbol_10_0_Layer0_0_FILL" transform="translate(123.05 310.4)" id="LegPan008__col1n"/><use xmlns:xlink="http://www.w3.org/1999/xlink" xlink:href="#LegPan008__Symbol_11_0_Layer0_0_FILL" transform="translate(125.6 313.95)" id="LegPan008__col1d"/></g></g><g transform=""><g transform=""><defs><path fill="#000000" d="M146.9 7.7q-9-5.25-23.3-6.95-13.1-1.45-27.4 0-7 .8-14.2 2.45l-8.3 2.05-8.3-2.05Q58.2 1.55 51.2.75 36.9-.7 23.8.75 9.1 2.5 0 8h147.4l-.5-.3z" id="LegSho001__Symbol_2_0_Layer0_0_FILL"/></defs><use xmlns:xlink="http://www.w3.org/1999/xlink" xlink:href="#LegSho001__Symbol_2_0_Layer0_0_FILL" transform="translate(118.8 326)" id="LegSho001__col1n"/></g></g><g transform=""><g transform=""><defs><path fill="#000000" d="M162.7 49.45q-.35-1.35-.65-2.7l-.2-.6-.4-1.6q-.75-2.7-1.6-5.3-.3-1-.6-1.95-.3-.8-.55-1.6-.1-.2-.15-.35-.45-1.25-.85-2.45-.9-2.4-1.85-4.75-1-2.3-2-4.5-1.8-3.95-3.85-7.6-.9-1.6-1.8-3.15-.15-.25-.3-.45-.1-.15-.15-.3h-.05q-.15-.35-.35-1.25.05-.1.15-.2 1.3-1.55 1.3-3.05 0-1.15-.65-1.95l-.1-.1q-.5-.8-.5-1.15 0-.3.35-.65.15-.15.3-.25.65-.45.7-1v-.1q0-1.15-1-2.4L146.75 0l-3.3 1.6q-.65.3-1.25.6l-4.55 2.05q-2.5 1-5 1.9-2.1.65-4.2 1.25-8.65 2.9-17.2 4.75-30 6.45-59.2 0-7.15-1.6-14.3-3.95-3.1-.95-6.1-2.05-2.15-.85-4.2-1.7l-2.4-1.05-1.1-.5-2.8-1.3-3.3-1.6-1.15.05q-1 1.25-1 2.4v.1q.05.55.7 1 .15.1.3.25.35.35.35.65 0 .35-.5 1.15l-.1.1q-.65.8-.65 1.95 0 1.5 1.3 3.05.35 1.1.15 1.45h.05q-.3.45-.6.95-.05.05-.1.15-.85 1.45-1.65 2.9-1.5 2.7-2.85 5.55-.5.95-.95 1.95-2.05 4.45-3.8 9.25l-.9 2.4q-.15.4-.3.85-.7 2.05-1.35 4.2-.1.35-.2.65-.75 2.55-1.45 5.15-.1.3-.15.6l-.7 2.7-.1.5h.05q-.15.5-.25 1-.1.3-.15.6l-.3 1.4q-.4 1.7-.75 3.4v.2q-.2.9-.35 1.8-.2 1-.4 2.05-.05.2-.05.4v.1q2.05-1.8 4.6-2.7 1.15-.4 2.45-.65.15-.05.3-.05l1.85-.2q8.1-.35 12.65 4.7l-2.8 11.75q-.35 1.3-.65 2.6l-.4 1.6-.9 3.6-.95 3.6v.25l-.05.05h.2q.25.1.5.15H16.95q2.05.5 4.15.95 30.8 7 61.4 7 30.75 0 61.3-7 2.1-.45 4.15-.95H148.1q.25-.05.5-.15h.2l-.05-.2v-.05l.05.05v-.1h-.05l-5.15-20.7h-.05L143 62q4.55-5.05 12.65-4.7l2.05.2q.15 0 .3.05 2.15.4 4 1.3 1.65.8 3.05 2.05V60.75q0-.15-.05-.35-.3-1.55-.55-3.05l-.1-.4q-.05-.2-.05-.4-.25-1.1-.45-2.2-.1-.45-.2-.85l-.1-.5q-.2-.75-.35-1.45-.05-.3-.15-.6-.15-.75-.35-1.5z" id="ShiLon018__Symbol_292_0_Layer0_0_FILL"/><path fill="#4F4F4F" d="M56.05 22.1q23 6.25 45.35 0-22.2 3.15-45.35 0M0 50.2q6.75-1.55 13.5.9-6.2-4.85-13.5-.9m22.3-13.55v-.05q.05-.2-.05-.35-.15-.2-.35-.25-.2-.05-.35.1-.2.1-.25.3l-4.2 21.45v.2q0 .1.1.15v.05q.1.15.3.2.2.05.4-.05.15-.15.2-.35l4.2-21.4M12.2 8.35q-.3.45-.6.95 7.1 5.5 28.25 9.9-20.3-6.6-26.2-10.85Q12.6 7.6 12 6.9q.35 1.1.15 1.45h.05M11.6 0q.35.35.35.65 0 .35-.5 1.15 6.1 4.65 12.3 5.05Q15.45 3.1 11.6 0m128.9 51.1q6.75-2.45 13.5-.9-7.3-3.95-13.5.9m-7-14.7q-.05-.2-.25-.3-.15-.15-.35-.1l-.2.1q-.1.05-.15.15-.1.15-.05.35v.05l4.2 21.4q.05.2.2.35.2.1.4.05t.3-.2v-.05q.1-.05.1-.15v-.2l-4.2-21.45m9.15-28.05h-.05q-.15-.35-.35-1.25-.55.6-1.4 1.25-5.45 4.2-23.3 10.5Q136.2 14.7 143.1 9.1q-.15-.25-.3-.45-.1-.15-.15-.3m.3-6.55q-.5-.8-.5-1.15 0-.3.35-.65-4.15 3.3-11.75 6.75 6.7-1.8 11.9-4.95z" id="ShiLon018__Symbol_229_0_Layer0_0_FILL"/></defs><use xmlns:xlink="http://www.w3.org/1999/xlink" xlink:href="#ShiLon018__Symbol_292_0_Layer0_0_FILL" transform="translate(110 224.05)" id="ShiLon018__col1n"/><use xmlns:xlink="http://www.w3.org/1999/xlink" xlink:href="#ShiLon018__Symbol_229_0_Layer0_0_FILL" transform="translate(115.1 227.85)" id="ShiLon018__col1s"/></g></g><g transform=""><g transform=""><defs><path fill="#FFD3A8" d="M25.2 13.8q-.15.05-.35.1-4.15-3.6-9.75-3.55Q9.35 10.3 5.2 14q-.05.05-.1.15-.2.1-.35.25-.05 0-.05.05l-.05.05-.2.2q-.25.25-.45.5-.05 0-.05.05l-.05.05-.3.3Q0 19.75 0 25.35q0 6.2 4.45 10.6 4.4 4.4 10.65 4.4 2.9 0 5.4-.95.1-.05.2-.05.05-.05.15-.1h.05q.05-.05.15-.1.4-.15.75-.35l.8-.4q.1-.05.15-.1l.1-.05q1.5-.95 2.9-2.3 3.25-3.25 4.1-7.45.05-.05.1-.05l.3-.1q1.15-.55 2.15-1.55 2.25-2.25 2.25-5.45T32.4 15.9q-1.65-1.65-3.8-2.1-.3-.05-.55-.1-.25-.05-.5-.05-.15-.05-.35 0-.15-.05-.35 0h-.4q-.7.05-1.25.15M170.05 0q-2.15 0-3.65 1.5-.65.7-1 1.5l-.1.2q-.15.35-.25.8l.05 7.8q-5.25-2.25-10.4 0l-.1-7.55q-.05-.4-.2-.8-.1-.25-.15-.45-.4-.8-1.05-1.5-1.5-1.5-3.65-1.5t-3.65 1.5q-.65.7-1 1.5-.35.75-.45 1.6v8.6h.05l.2 11.15h.05q-.1 1.95.4 3.95l.1.5q.75 2.8 2.35 4.95.05.05.1.15.05.05.1.15l.05.05q.05.05.1.15.25.3.55.6l.6.7q.05.05.15.1l.05.05q1.3 1.25 3 2.2.65.4 1.4.75l.05.2q1.4.65 2.85 1 3.5.8 7.35-.2 2.3-.6 4.2-1.8 2.6-1.65 4.35-4.3.05-.05.1-.15 0-.05.9-2.2.65-1.45 1-2.9.25-1.15.35-2.25l.2-22.05q-.1-.55-.3-1-.4-.8-1.05-1.5-1.5-1.5-3.65-1.5z" id="BodHan012__Symbol_26_0_Layer0_0_FILL"/><path fill="#F7BE86" d="M15.5 7.75q0-3.2-2.25-5.45Q11.6.65 9.45.2 9.15.15 8.9.1 8.65.05 8.4.05q-.15-.05-.35 0Q7.9 0 7.7.05h-.4Q6.6.1 6.05.2 5.9.25 5.7.3q-1.95.45-3.45 2Q0 4.55 0 7.75t2.25 5.45q1.7 1.7 3.95 2.1l1.5.15h.1l.75-.05q1.15-.1 2.15-.5.05-.05.1-.05l.3-.1q1.15-.55 2.15-1.55 2.25-2.25 2.25-5.45M12.45 3q1.95 1.95 1.95 4.75 0 2.75-1.95 4.7-.85.9-1.85 1.4-1 .45-2.05.55l-.75.05h-.1l-1.3-.15q-1.9-.4-3.35-1.85-2-1.95-1.95-4.7Q1.05 4.95 3.05 3q1.45-1.45 3.3-1.8.5-.1 1-.15H7.8q.4 0 .85.1 2.15.25 3.8 1.85z" id="BodHan012__Symbol_36_0_Layer0_0_FILL"/></defs><use xmlns:xlink="http://www.w3.org/1999/xlink" xlink:href="#BodHan012__Symbol_26_0_Layer0_0_FILL" transform="translate(105.05 270.25)" id="BodHan012__col1n"/><use xmlns:xlink="http://www.w3.org/1999/xlink" xlink:href="#BodHan012__Symbol_36_0_Layer0_0_FILL" transform="translate(124.2 283.85)" id="BodHan012__col1d"/></g></g><g transform="translate(0 -10)"><g transform=""><defs><path fill="#FF98D0" d="M22.45.1l.6-.1q-1.1.05-2.15.15Q11.3.8 1.6 2.1L0 2.5q.25 1.65.6 3.25l15.05 4.85L22.45.1m-8.1 9.35q0 .1.05.2l-.15-.15q.05-.05.1-.05m62.55-3.7q.35-1.6.6-3.25l-1.6-.4Q66.2.8 56.6.15 55.55.05 54.45 0l.5.1 6.85 12.65 15.1-7M63.25 9.5l-.15.15q.05-.1.05-.2.05 0 .1.05z" id="FacMou093__Symbol_142_0_Layer0_0_FILL"/><path fill="#FFFFFF" d="M74.4 4q-1.2-.55-2.15-.55-1.2 0-2.55.85-.55.35-.8.35-.3-.55-1.65-1.65-1.35-1.1-3.75-1.25l-1.4.1q-1.75.3-2.85 1.05-.1.05-.2.15-.1-.25-.65-.7-1.25-1.05-2.15-1.3-1.1-.35-2.4-.55Q52.9.45 51.9.4 48.3.2 44.7.15q-2.9-.1-5.8-.1-.25-.05-.4 0-.1-.05-.2 0-.3-.05-.55 0-.05-.05-.1 0-3 0-6.05.1Q28 .2 24.4.4q-1 .05-1.95.1-1.3.2-2.4.55-.9.25-2.15 1.3-.55.45-.65.7-.1-.1-.2-.15-1.1-.75-2.85-1.05l-1.4-.1Q10.4 1.9 9.05 3T7.4 4.65q-.25 0-.8-.35-1.35-.85-2.55-.85-.95 0-2.15.55-.4.15-.7.4-.55.45-.85 1-.25.4-.35.85 0 .15.05.3 0 .05.05.1.05.35.15.7l.3 1.2v.1q0 .05.05.15 1 3.65 2.75 7.1.2.5.5 1l.2.4.5.9q0 .05.05.1v.05q.35.55.65 1 .05.1.1.25l.4.5q1.6 2.5 3.7 4.8l.25.25q.3.35.6.75 1.25 1.2 2.45 2.3.75.7 1.55 1.4.05.05.15.05 3.4 2.25 7.1 3.75 16.8 6.5 33.2 0 3.7-1.5 7.1-3.75.1 0 .15-.05.8-.7 1.55-1.4 1.2-1.1 2.45-2.3.3-.4.6-.75l.25-.25q2.1-2.3 3.7-4.8l.4-.5q.05-.15.1-.25.3-.45.65-1v-.05q.05-.05.05-.1l.5-.9.2-.4q.3-.5.5-1 1.75-3.45 2.75-7.1.05-.1.05-.15v-.1l.3-1.2q.1-.35.15-.7.05-.05.05-.1.05-.15.05-.3-.1-.45-.35-.85-.3-.55-.85-1-.3-.25-.7-.4m-11.75 6l-.15.15q.05-.1.05-.2.05 0 .1.05m-48.85.15l-.15-.15q.05-.05.1-.05 0 .1.05.2z" id="FacMou093__Symbol_141_0_Layer0_0_FILL"/><path fill="#C2C2C2" d="M62.6 7.65q-.15.65-.3 1.15-.55.85-2.2.85-1.3-.1-2.5-.1-.9.05-1.55-.05-.05-.05-.1 0-.05-.05-.1 0h-.05q-1.5-.15-1.55-1.35l.4-5.05-1.2 4.9q-.4 1.35-2.15 1.35h-.4q-.15-.05-.3-.05l-3.8-.1h-.2q-1.45 0-1.55-1.35l.1-3.35-.8 3.85q-.35.65-1.15.8-.35-.05-.7-.05v.05q-.1-.05-.25 0-3.2-.1-6.4-.1h-.05q-.65 0-1-.3L34.15 6l-.05-.05-.15.55v-.1l-.55 2.35q-.35.3-1 .3h-.05q-3.2 0-6.4.1-.15-.05-.25 0V9.1q-.35 0-.7.05-.8-.15-1.15-.8l-.8-3.85.1 3.35q-.1 1.35-1.55 1.35h-.2l-3.8.1q-.15 0-.3.05h-.4q-1.75 0-2.15-1.35l-1.2-4.9.4 5.05q-.05 1.2-1.55 1.35h-.05q-.05-.05-.1 0-.05-.05-.1 0-.65.1-1.55.05-1.2 0-2.5.1-1.65 0-2.2-.85-.15-.5-.3-1.15Q4.9 5 3.6 0q.1 2.85 1.1 8.2v.2q0 1.2-1.35 1.45-1.65.1-3.35.2l.5.9q0 .05.05.1 1.5-.1 3-.15.4-.05.85-.05.6.1.85.8l1.15 6.2-.05-5.45q.05-1.45 1.1-1.7h.75l4.2-.2h.2q1.3 0 1.55.95l.45 4.8.4-4.85q.2-.95 1.45-1h.1q.1-.05.2 0 1-.1 1.9-.1 1.45-.05 2.9-.05h.25q.15-.05.35 0 .8 0 1.05.7l.35 3.1.35-3.15q.4-.75 1.65-.75H25.85q3.3-.05 6.65-.05h.5q.35.05.55.3l.4 1.85v-.15l.15.5-.05.5.6-2.7q.2-.25.55-.3h.5q3.35 0 6.65.05H42.65q1.25 0 1.65.75l.35 3.15.35-3.1q.25-.7 1.05-.7.2-.05.35 0h.25q1.45 0 2.9.05.9 0 1.9.1.1-.05.2 0h.1q1.25.05 1.45 1l.4 4.85.45-4.8q.25-.95 1.55-.95h.2l4.2.2h.75q1.05.25 1.1 1.7l-.05 5.45 1.15-6.2q.25-.7.85-.8.45 0 .85.05 1.5.05 3 .15.05-.05.05-.1l.5-.9q-1.7-.1-3.35-.2Q63.5 9.6 63.5 8.4v-.2q1-5.35 1.1-8.2-1.3 5-2 7.65z" id="FacMou093__Symbol_140_0_Layer0_0_FILL"/></defs><use xmlns:xlink="http://www.w3.org/1999/xlink" xlink:href="#FacMou093__Symbol_142_0_Layer0_0_FILL" transform="translate(153.8 207)" id="FacMou093__col2n"/><use xmlns:xlink="http://www.w3.org/1999/xlink" xlink:href="#FacMou093__Symbol_141_0_Layer0_0_FILL" transform="translate(154.4 206.5)" id="FacMou093__col1n"/><use xmlns:xlink="http://www.w3.org/1999/xlink" xlink:href="#FacMou093__Symbol_140_0_Layer0_0_FILL" transform="translate(158.45 213.75)" id="FacMou093__col1s"/></g></g><g transform=""><g transform=""><defs><path fill="#480000" d="M36.25 17.45q0-3.95-.95-7.35Q27.55 5 7.15 0H6.9q-.85.8-1.6 1.7Q0 8.25 0 17.45q0 5.15 1.7 9.45 1.3 3.35 3.6 6.15 5.35 6.45 12.85 6.45t12.75-6.45q3-3.55 4.3-7.85 1.05-3.65 1.05-7.75m60.15-.15Q96.4 8.4 91 2q-.75-.9-1.6-1.65Q71.7 4.1 60.55 10.2q-1 3.3-1 7.1 0 4.05 1.1 7.6 1.3 4.2 4.35 7.65 5.35 6.25 12.95 6.25T91 32.55q2.35-2.75 3.7-6 1.7-4.2 1.7-9.25z" id="FacEye036__Symbol_79_0_Layer0_0_FILL"/><path fill="#830000" d="M20.8 22.2q.75-2.25 1.15-4.4-.95-2.45-2.25 1.1-4.1 6.65-9 5.95-8.8-2-5.9-24.6l.1-.2L4.75 0q-.5.5-1 1.15-.25.3-.45.6l-.2.3Q0 6.7 0 13.2q0 6.65 3.3 11.4 3.35 4.75 8.05 4.75 4.75 0 8.05-4.75.8-1.15 1.4-2.4m41.2 0q.6 1.25 1.4 2.4 3.3 4.75 8.05 4.75 4.7 0 8.05-4.75 2.25-3.2 2.95-7.25Q81.4 15 79.5 18.9q-4.6 9.25-9.25 6.4-7.9-5.25-7.45-19.85v-.1h-.05q-.8 1.55-1.3 3.15-1.95 6.4.55 13.7z" id="FacEye036__Symbol_53_0_Layer0_0_FILL"/><path fill="#190000" d="M17.2 18.95L10.15 2.6Q7.2-.35 2.6.05 0 4.75 0 11.4q0 6.65 2.65 11.4 2.7 4.75 6.5 4.75 3.85 0 6.5-4.75.6-1 1-2.1.4-.9.75-1.8-.1 0-.2.05m60-.05L70.6 2q.05-.1.15-.15-5.8-.8-10.25 3.5 0 .1-.05.2-.2.75-.3 1.5-.35 1.45-.5 2.9-.45 5.4 1.9 10.75.4 1.1 1 2.1 2.65 4.75 6.5 4.75 3.8 0 6.5-4.75 1-1.8 1.65-3.9z" id="FacEye036__Symbol_49_0_Layer0_0_FILL"/><path fill="#FFF" d="M224.5 150.35q-.25.2-.45.5-2.25 2.9-2.25 6.95 0 4.05 2.25 6.9 2.25 2.85 5.45 2.85.75 0 1.45-.15 1.6-.35 2.95-1.55.55-.5 1.05-1.15 2.25-2.85 2.25-6.9 0-4.05-2.25-6.95-1.75-2.25-4.05-2.7-3.5-.497-6.4 2.2m13.75.05q2.538 3.503 2.95 12.05.454 8.543-4.8 14.75-5.199 6.207-12.7 6.55-7.506.391-13.1-5.8-5.59-6.184-6-12-.409-5.816.6-10l-7.3 10.3q.45 9.5 7.6 16.35.102.096.2.2 6.227 6.339 12.85 6.55 1.945.098 4.55 0 5.654-.214 10.3-1.25 4.651-.99 5.6-1.4.996-.355.95-.45.002-.049.05-.1l.2-.2q3.2-2 6-5.2 3.8-4.4 5.65-9.75.3-.85.55-1.65-.35.85-.7 1.75 1.864-5.116 2.45-13.25.586-8.134-5.65-16.5L235.3 146q.464.902 2.95 4.4m-61 7.4q0-1.1-.15-2.15-6.072-4.043-13.2-4.5-2.05 2.8-2.05 6.65 0 4.05 2.25 6.9 2.25 2.85 5.45 2.85.8 0 1.6-.15 1.2-.35 2.25-1.1.85-.65 1.6-1.6 2.25-2.85 2.25-6.9m4.95-.4l-.85-.65q.605 3.25.2 8.75-.405 5.497-5.55 11.85-5.097 6.407-12.85 6.6-7.707.242-13.2-6-5.44-6.199-5.45-14.9-.013-8.645 2.75-12.35 2.807-3.7 3.45-4.3l-12.5-5.05q-6.452 8.168-6 16.4.45 8.244 2.2 13.35 1.85 5.35 5.65 9.75 2.8 3.2 6 5.2l.2.2q.05.045.15.15.15.114 1 .65.855.537 5.55 1.65 4.69 1.103 10.25.55 5.613-.498 8.25-1.05.783-.163 1.4-.3.227-.035.4-.1 4.287-1.413 8.55-6.15 6.134-6.524 6.55-15.3-2.232-4.43-6.15-8.95z" id="FacEye036__Layer5_0_FILL"/><path d="M213.05 187.7l-1.8-.3q-3.55-.45-.1.95 3.45 1.35 4.6 1.7 7.75 2.05 17.85 0 8.1-1.3 6.45-3.9-.18.09-.35.15-.14.073-.25.1-1.9.45-3.8.85-6.95 1.3-13.75 1.2-4.45-.05-8.85-.75m26.5-1.15l-.05.05v-.05h.05m-69.05 3.6q1.15-.3 4.6-1.7 3.45-1.4-.1-.95l-1.8.3q-4.4.7-8.85.75-6.8.1-13.75-1.2-1.9-.4-3.8-.85-.2-.05-.6-.25-1.65 2.6 6.45 3.9 10.1 2.05 17.85 0m-23.75-3.5v.05l-.05-.05h.05m37.45-33.45l-.1-.05-35.8-14.9-.25-.05q-.1-.1-.2-.1-.35-.15-.75-.35l-1-.4q-.2-.1-.5-.2-1-.5-2.15-1.05-2.45-1.3-5.55-3.15-.25-.1-.45-.25.7 3.3 2.55 3.95-1.3-.1-2.45-.25-4.65-1.25-7.2-2.9 1.6 3 3.4 3.4-2.45 1.15-7.75-.65 4.95 4.1 8.05 4.7.15.05.2.1.15-.05.3 0 .1 0 .2.05-8.35 9.55-.35 30-1.75-5.1-1.75-11 0-10.2 5.3-17.9l12.1 4.1v.05q-.35.3-.7.7-5.65 6.45-5.65 15.55 0 9.05 5.65 15.45 5.65 6.45 13.6 6.45 7.95 0 13.6-6.45 5.65-6.4 5.65-15.45 0-2.45-.4-4.7v-.05l10.05 13.05-7.65-17.7m-7.55 2.3l2.15.75q.9 3.05.9 6.55 0 3.7-1 6.95-1.2 3.85-3.95 7-4.85 5.75-11.8 5.75-6.9 0-11.85-5.75-2.15-2.5-3.35-5.5-1.55-3.85-1.55-8.45 0-8.2 4.9-14.05.7-.8 1.45-1.5l11.35 3.85v.05l12.75 4.3v.05m63.85-18.35q-.3.1-.5.2l-1 .4q-.4.2-.75.35-.1 0-.2.1l-.25.05-35.8 14.9-.1.05-7.65 17.7 10.2-13.2v.1q-.45 2.3-.45 4.8 0 9.05 5.65 15.45 5.65 6.45 13.6 6.45 7.95 0 13.6-6.45 5.65-6.4 5.65-15.45 0-9.1-5.65-15.55-.35-.4-.7-.75l12-4.1q5.3 7.7 5.3 17.9 0 5.9-1.75 11 .35-.9.7-1.75 6.95-19.1-1.05-28.25.1-.05.2-.05.15-.05.3 0 .05-.05.2-.1 3.1-.6 6.95-3.9-4.2 1-6.65-.15 1.8-.4 3.4-3.4-2.55 1.65-7.2 2.9-1.15.15-2.45.25 1.85-.65 2.55-3.95-.2.15-.45.25-3.1 1.85-5.55 3.15-1.15.55-2.15 1.05m-.6 25.65q0 4.6-1.55 8.45-1.2 3-3.35 5.5-4.95 5.75-11.85 5.75-6.95 0-11.8-5.75-2.75-3.15-3.95-7-1-3.25-1-6.95 0-3.5.9-6.55l2.15-.75v-.05l4.75-1.6h.05l19.3-6.6q.75.7 1.45 1.5 4.9 5.85 4.9 14.05z" id="FacEye036__Layer5_1_FILL"/></defs><use xmlns:xlink="http://www.w3.org/1999/xlink" xlink:href="#FacEye036__Symbol_79_0_Layer0_0_FILL" transform="translate(145.05 145.25)" id="FacEye036__col1n"/><use xmlns:xlink="http://www.w3.org/1999/xlink" xlink:href="#FacEye036__Symbol_53_0_Layer0_0_FILL" transform="translate(151.45 148.5)" id="FacEye036__col1l"/><use xmlns:xlink="http://www.w3.org/1999/xlink" xlink:href="#FacEye036__Symbol_49_0_Layer0_0_FILL" transform="translate(153.75 148.5)" id="FacEye036__col1d"/><use xmlns:xlink="http://www.w3.org/1999/xlink" xlink:href="#FacEye036__Layer5_0_FILL"/><use xmlns:xlink="http://www.w3.org/1999/xlink" xlink:href="#FacEye036__Layer5_1_FILL"/></g></g><g transform=""><g transform=""><defs><path fill="#3A2619" d="M31.1 208.2q-.15.25-.2.55l.3-.6-.1.05M181.25 31.6q-6.45-5.3-17.2-9.05-.85-.85-1.7-1.65 0 .047.05.1l-.1-.1q-2.55-2.4-5.5-4.65-1.1-.85-2.2-1.65l-.05-.05q-1-.75-2.05-1.4l-7.55-4.55q-.75-.4-1.5-.75-.35-.2-.7-.35-5.6-2.65-11.3-4.1-4.7-1.15-9.45-1.5-.4-.05-.8-.05l-1.9-.1H117q-.85-.15-1.7-.25h-.3q-12.35-2.95-26.4 0h-.3q-1.1.25-2.1.45-.1 0-.2.05-1.8.4-3.4.9-6.3 1.75-10.75 4.2-6.6 4.35-9.6 6.05-1.15.6-2.4 1.1-2.2.85-4.8 1.25-6.55.25-11.75 3.9-.15.05-.25.15l-.1.05q-.6.35-1.25.75-4 2.45-9.15 6.05-1.35.9-7.05 9.95-5.7 9.05-6.95 10.25-1.2 1.2-1.9 2.15-.75.9-1.7 1.8Q7.8 56.6 6.5 58.5q-4 5.6-4 18.35-.05.5.8 12.45.55 3.35 1.6 5.75-4.95 9.8-4.9 18.25v.05q0 9.5 1.15 16.5.75 4.5 1.95 8 .5 1.4 1.1 2.65.3.7.65 1.4 1.45-2.4 2.5-4.05.55-.85.95-1.5 1-1.7 1.65-2.05-.1 1.65-.1 3.25v.3q0 4.95.65 8.9.65 7.7 6.5 21.45 4.7 11.2 8.4 12.3-1.25-.9-2.2-5.35-1.2-5.45-1.2-8.25 0-1.85.45-4.55l-.1-.3q.05.1.1.25 0-.2.05-.35.15.65.15.75 1.05 2.65 1.45 3.8.6 1.75 1.3 3.35 5.5 12 16.65 12.65h2.6l-.25-.25-.05-.1q-.05-.05-2.85-2.3-15.05-12.6-23.65-31.8l-.4-.95q-1.8-4.3-2.4-6.3l-.45-2.95q12.6 12.1 28.25 10.8.8-.15 1.6-.35-5.4-1-11.65-9 2.05 3.35-.95-1.45-6.2-9.85-7.5-24.5-.1-.7-.15-1.45-.1-1.4.3-3.45h.05q4.15 13.75 16.8 22.3-3.9-9.6-5.85-17.4-1.95-7.75-1.95-13.7-.05-8.4 1.1-13.45 3.3-14.65 3.4-15.15.15 6.55 5.75 13.85t11.65 10.6q6.05 3.3 6.2 3.45.6.45 1.2.95-11.9-23.35-7.45-43.85 3.55 20.6 24.2 36.05L78.2 90q-8.35-17.8-8.5-21.85-.2-4.05.3-6.25.45-2.25 3.65-7.9.5 0 .5-.5.7 4.15 1.55 7.65.85 3.5 4 9.85 3.15 6.3 17.55 23.65-8.35-22.55-6.35-30.4h.15q7.8 17.15 25.75 27.9-9.55-15.45-9.1-30.85.05-.1.05-.3.05.1.05.85 0 .7 6.3 12.2 6.25 11.5 13.25 16.6-.65-22.55 3-26.15.35-1.2 1.5 1.2t6.3 13.75q5.6 11 10.25 12.7h1q-5.1-21.55 3.05-28.7.35 1.75.4 2.1 0 .35.2.65 4.45 17.85 3.35 27.95v9.55q1.8-2.45 5.05-6.75 2.05-3.9 2.6-5.9.35-1.55 1.05-3.3 1.15 7.3 1.65 8.95.45 1.6.95 7.7.5 6.05-.9 12.8-.25 1.1-.45 1.95-.05.15-.05.3 1.95-2.5 3.65-5.05 1.65-2.5 3.2-5.6 1.55-3.15 2.85-6.05-.05 6.7-.35 10.45-.35 3.7-.8 6.7-.5 3-2.05 8.05-1.65 5-2.55 7.35 1.75-1.65 5.15-5.1 3.35-3.45 6.6-8.55 3.3-5.1 3.25-6.05l.2.7q.95 3.1 1.15 6.2.45 5.7-.7 9.35-1.2 3.6-4.6 7.25-3 3.2-6.8 6.95 11.9-2.05 20.2-15 .05-.1.1-.15v.05q-.65 2.85-1.5 5.7l-.4 1.2q-.2.75-.45 1.5-6.8 23.3-24.4 38.7 12.9-2.2 21.6-15.45 1.05-1.65 2.2-2.95-.6 10.2-3.3 15.65-.05.1-.05.15 6.25-4.75 10.05-20.05 2.65-10.75 2.75-17.55.05-1.75-.1-3.2 3.2-4.8 5.8-8.85l.6-1.3q2.3-5.6 3.2-11.15 3.3-20.5-12.5-41.35.25-1.2.25-2.65.25-6.2-1.9-11.45.7-4.2-2.25-9.35-.6-1.1-1.25-1.9-.4-.65-.75-1.25-1.2-1.95-2.9-4.8-3.35-4.85-8.25-9z" id="HaiSho090__Symbol_211_0_Layer0_0_FILL"/><path fill="#2C1C12" d="M14.55 98.55v-2.3q-.2-8.1-1.6-10.85-1.4-2.5-5.45-4.7-2.3-1.25-5.5-2.45l-.1.2q5.8 3.2 7.65 10.6.5 1.8 1.95 14.9.05.2.05.4v2.55q-.05.55-.65.75-.15 0-.25.05-8.35 2.1-9.45-4.55-.6-1.35-.2-2.8-.55.5-.8 1.45-.2.75-.2 1.75 0 1.8 1.4 4.45 3.15 3.95 8.2 2.35 1.15-.45 2.55-1.15.85-.45 1.6-.65.1-.05.25-.1h.05q.05-.05.1-.05.4-3.5.4-9.85m10.85-52.9q-2.35-4.8-2.3-5.2l-.45.1q.75 2.35 2.45 9.4 1.1 4.95.25 8.3-12.7-6.8-14.3-6.8h-1.5q10.4 5.5 14.35 8.65 2.35 1.85 3.6 10.15.8-13.2.45-16.45-.35-3.25-2.55-8.15m72.9-3.5v-1.7q-3.5 10.5-3.75 10.95-.3.4.85 3 1.1 2.6 1.55 6.55.35-5.4.35-7.95 1-9.85 1-10.85m45.8-27.55l-.05-.05q-1-.75-2.05-1.4l-7.55-4.55q-.75-.4-1.5-.75-.35-.2-.7-.35-5.6-2.65-11.3-4.1-4.7-1.15-9.45-1.5-.4-.05-.8-.05l-1.9-.1h-2.3q-.85-.15-1.7-.25h-.3q-12.35-2.95-26.4 0h-.3q-1.1.25-2.1.45-.1 0-.2.05-1.8.4-3.4.9-6.3 1.75-10.75 4.2-6.6 4.35-9.6 6.05-1.15.6-2.4 1.1-2.2.85-4.8 1.25-6.55.25-11.75 3.9 5.55-1.7 10.8-1.65-3.3 6.3-10.15 10.8Q34 29.8 39 28.4q8.25-2.35 20.6-12.25 8.2-6.6 12.65-10.35-.45.65-.8 1.3-.1.1-.65 1.45-.6 1.3-1.95 3.5-2.6 4.3-5.5 6.2-2.95 1.9-7.95 6.1-5 4.15-5.35 4.85-.4.65-2.2 3.85-1.85 3.15-3 8.9-1.2 5.75-.05 13.3Q47 42.6 48.85 37.9q1.85-4.75 5.55-7.3 12-8.9 17.2-15.5 2.65-3.55 3.5.25.15.9.3 2.05.65 5.3.3 10.7-.15 5-.85 9.85-.15 15.7 5.4 25.5-.35-11.2-.4-15.6-.4-9.05 7.75-20.35.4-.55.8-1.15 1.75-2.05 3.4-5.1 3.95-6.3 8.95-15.35 3-4.1 8-4.05 1.6.6 3.1 4.35 0 .2.95 4.05.95 3.8.8 8.8-.15 4.95-.55 15.35.05 6.4.7 9.05-.05.1-.05.2-2.5-8.05-6.45-17.8-3.65-9.05-4.3-13.7-1.2 5.35 2.15 16.8l.45 1.55.3.9q.55 1.8 1.15 3.45 3.4 10.15 6.2 15.4.05.65 2.6 6.2l.3.6q1.85 2.8 4.65 7.55-1.7-5.05-2.6-8.8-1-7.7.1-13.7 1.55-16.55.45-26.9 5.05 7.8 5.85 15.55.85-5.35.85-7.15 0-1.25.05-9.05l.15-8.6q2.35 6.15 1.95 5.6.2.3.45.65.5 1.9 1.4 4.95 2 6.7 2.5 11.4t.8 7.55q.3 2.85 1.55 5.05 1.2 2.15 1.5 2.45 5.2 8.3 6.1 19.55 6.75-10.7 8.15-12.2 3.1-3.2 13.5-12-7.35 2.45-11.2 4.85-3.9 2.4-8.8 10.35-2.7-4.35-2.35-9.6.1-.45.5-6.8.35-6.35-.9-13.15-2.75-7-3.55-9.65 1.6 2.55 3.55 5.5 5.1 7.55 6.2 10.95v-3.8q0-2.95-2.85-13m32.5 87.3h.15v-.05l-.15.05m13.2 14.7q-.45-9.95 2.7-15.85-.95 1.6-3.25 5.05-2.65 4-2.65 6.9-.05 1.5.95 5.95t-3.25 12.25l.2-.1q5.75-4.3 5.3-14.2M168.2 98q-.25.4-.45.8-.65 1.05-1.2 1.8-.7.8-.9 1.75-.1.4-.1.85-.05 1.45 3.7 1.5 3.55-.05 9.1-5.55l.4-.4q5.6-5.7 5.35-8.1-3 2.5-5.85 5.1-2.85 2.6-7.95 6.4-5.1 3.75 1.75-8.95l1.5-2.65q.05-.1.1-.15.3-.55.65-1.1-.15 0-1 .85l-.05.05q-.7.95-2 2.85-1.35 1.85-2.55 4.1-.15.2-.25.4-.15.25-.25.45m4.5-31.3l-.15-.2Q165 68 160 73.75q-.65.75-1.2 1.55-3.35 4.7-3.75 10.45 2.4-4.95 5.95-9.05 4.85-5.75 11.7-10m6.3-26.1q-3.35-4.85-8.25-9-6.45-5.3-17.2-9.05-.85-.85-1.7-1.65 0 .05.05.1 4.05 3.4 3.6 7.9.2 2.2 4.5 3.7 2.8 1 12.85 4.35 4.711 1.767 8.9 8.2-1.156-1.878-2.75-4.55z" id="HaiSho090__Symbol_116_0_Layer0_0_FILL"/></defs><use xmlns:xlink="http://www.w3.org/1999/xlink" xlink:href="#HaiSho090__Symbol_211_0_Layer0_0_FILL" transform="translate(88.6 46.65)" id="HaiSho090__col1n"/><use xmlns:xlink="http://www.w3.org/1999/xlink" xlink:href="#HaiSho090__Symbol_116_0_Layer0_0_FILL" transform="translate(99.1 46.65)" id="HaiSho090__col1d"/></g></g></svg>