<?xml version="1.0" standalone="no"?>
<svg width="800" height="800" xmlns="http://www.w3.org/2000/svg" id="stage-svg" xmlns:xlink="http://www.w3.org/1999/xlink" preserveAspectRatio="none" viewBox="0 0 385 385"><g transform=""><g transform=""><defs><path fill="#E9AF8B" d="M191.5 95.8q0-39.7-28.05-67.75-16.2-16.2-36.3-23.05-14.7-5-31.4-5t-31.4 5q-20.1 6.85-36.3 23.05Q0 56.1 0 95.8q0 32.25 18.5 56.85l.05.05q.6.75 1.2 1.55l1 1.2L28 163.5q0 .05.05.05l.7.7q3.5 3.4 7.15 6.4v.05l-.05-.05q-5.81 7.718-10.6 17.75-.078.183-.2.35l-.3.7q-.06.17-.15.35-.117.253-.25.5l-2.6 6.15q-5.345 13.608-8.3 30.1-.05.2-.05.4-.15 2.45.15 4.85Q15.7 245.9 31 249.35q.2.05.45.1l.05-.05q.15.05.25.05.2.6.4 1.15.4.95 1.1 1.75 0 .05.05.1v19.45q-3.9.7-7.8 2.5-.6.267-1.2.55-.94.67 0 .8h143.25q1 0 0-.6-.775-.405-1.55-.75-3.9-1.8-7.8-2.5v-19.45q.05-.05.05-.1.7-.8 1.1-1.75.2-.55.4-1.15.1 0 .25-.05l.05.05q.25-.05.45-.1 15.3-3.45 17.45-17.55.3-2.4.15-4.85 0-.2-.05-.4-3.7-20.65-11.15-36.75-4.8-10.45-11.15-18.95h-.05q0-.1-.1-.2 3.65-3 7.15-6.4l.7-.7q.05 0 .05-.05l7.25-8.05 1-1.2q.6-.8 1.2-1.55l.05-.05q18.5-24.6 18.5-56.85z" id="SkiSki001__Symbol_10_0_Layer0_0_FILL"/><path fill="#D79C78" d="M-36.05 227.75h-.2l-3.9.15-1.3.1q-8.5.6-13.15 1.65-4.7 1-5.35 1.3-.15.05-.25.1 8-1.3 16.1-1.8.3-.05.65-.05l2-.1q.2-.05.35-.05h.3q15.4-.65 30.05 2l4.15.7q1.15.2 2.3.45 1.75.35 3.45.75l.3.1q.1 0 .2.05.15 0 .3.05-.4-.15-.8-.25-1.7-.6-3.45-1.05-.55-.15-1.05-.3-.15-.05-.25-.05-10.8-3-22-3.6-.4-.05-.8-.05-.55-.05-1.15-.05l-6.5-.05m3.4-52.2q3.05 1.2 6.25 0 1.6-1.65.35-3.6-.1-.15-.15-.25-3.05-1-6.9 0-.5.7-.6 1.4-.2 1.1.8 2.25.1.1.25.2M3.2 203.7q-1.25-1.15-2.25 0-.05.25 0 .55.25 1.6.15 3.25l.1.05q.7.3 1.05-.35l.1-.2q.15-.45.3-.85.25-.8.4-1.55.05-.15.05-.3l.1-.6m55.4 25.95q-4.65-1.05-13.15-1.65l-1.3-.1-3.9-.15h-.2l-6.5.05q-.6 0-1.15.05-.4 0-.8.05-11.2.6-22 3.6-.1 0-.25.05-.5.15-1.05.3-1.75.45-3.45 1.05-.4.1-.8.25.15-.05.3-.05.1-.05.2-.05l.3-.1q1.7-.4 3.45-.75 1.15-.25 2.3-.45l4.15-.7q14.65-2.65 30.05-2h.3q.15 0 .35.05l2 .1q.35 0 .65.05 8.1.5 16.1 1.8-.1-.05-.25-.1-.65-.3-5.35-1.3M29.55 173.1q-.2 1.1.8 2.25.1.1.25.2 3.05 1.2 6.25 0 1.6-1.65.35-3.6-.1-.15-.15-.25-3.05-1-6.9 0-.5.7-.6 1.4z" id="SkiSki001__hll_0_Layer0_0_FILL"/><path fill="#BB7E59" d="M-54 165.45q-.05.05-.05.1l-4.3 21.85q-.45 2.1-.85 4.05l-.1.6q-.2.8-.35 1.6-1.5 7.35-2.3 12.15-.75 4.4.45-.6.4-2.5 1.45-6.25.1-.6.25-1.25.7-3.15 1.3-5.65.65-3.05 1.15-5.1h.05l-.05-.05v-.05q.2-.9.35-1.55.2-.95.4-1.55v-.05q0-.15.05-.25.15-.75.2-.85l3.25-16.8.05-.05q0-.25-.1-.4-.1-.2-.3-.2-.2-.05-.3 0-.05 0-.05.05-.05 0-.1.05t-.1.2m81.8 53.1q5.828-.808 11.3-1.95-.15 0-.3.05-.95.05-1.9.15-.75.05-1.5.15-13.1 1.2-26.3 1.45-4.5.1-9 .1-17-.1-34.1-1.8-.65-.1-1.2-.15 5.808 1.176 11.85 2 11.28 1.525 23.45 1.85h.55v.1l1.4 12.2v-.4l.05.4 1.4-12.2v-.1h.05q.15 0 .35.05l5.2-.2q9.762-.455 18.7-1.7m30.1-53.2l-.05-.05q-.15-.05-.35 0-.2 0-.3.2-.1.15-.05.4l3.25 16.85q.1.2 1.05 4.3v.05q.45 2 1.1 4.95.55 2.4 1.2 5.4l.1.4q.25 1.2.5 2.25 1 3.35 1.35 5.75 1.05 4.3.3.1-.9-5.3-2.65-13.9-.4-2.15-.9-4.5L58.1 165.7v-.1q-.1-.2-.2-.25m2.25-34.1q-1.35 1.05-2.8 2.1l-1.55 1.15q-20.35 14.1-45.8 16l-1.1.05q-3.35.2-6.8.2h-.2q-3.45 0-6.8-.2l-1.1-.05q-25.45-1.9-45.8-16l-1.55-1.15q-1.45-1.05-2.8-2.1l-1.15-.9q10.019 8.81 21.45 14.1 17.928 7.84 37.75 7.85h.2q19.823-.01 37.75-7.85 11.45-5.3 21.45-14.05l-1.15.85z" id="SkiSki001__hdd_0_Layer0_0_FILL"/><filter id="SkiSki001__Filter_1" x="-20%" y="-20%" width="140%" height="140%" color-interpolation-filters="sRGB"><feColorMatrix in="SourceGraphic" values="1 0 0 0 0 0 1 0 0 0 0 0 1 0 0 0 0 0 0.75 0" result="result1"/></filter></defs><use xmlns:xlink="http://www.w3.org/1999/xlink" xlink:href="#SkiSki001__Symbol_10_0_Layer0_0_FILL" transform="translate(96.75 58)" id="SkiSki001__col1n"/><use xmlns:xlink="http://www.w3.org/1999/xlink" xlink:href="#SkiSki001__hll_0_Layer0_0_FILL" transform="matrix(1.00052 0 0 1 190.5 98.75)" id="SkiSki001__col1d"/><use filter="url(#SkiSki001__Filter_1)" xmlns:xlink="http://www.w3.org/1999/xlink" xlink:href="#SkiSki001__hdd_0_Layer0_0_FILL" transform="matrix(1.00052 0 0 1 190.5 98.75)" id="SkiSki001__col1s"/></g></g><g transform=""><g transform=""><defs><path fill="#434343" fill-opacity="0.2" d="M178.3 45.35q9.25-14.55 12.15-34.2.5-3.5.85-7.1.15-2 .25-4.05h-.8q-.45 1.75-5 10.6-1 1.75-2.4 4.15-5.2 8.95-9.05 9.7-.15.1-.3.25-11.25 26.4-42.65 30.55l-6.15-14q-31-5.95-62 0l-7.25 13.9q-31.2-8.6-40.35-29.5-1.1-.65-2.45-1.9H13q-.1-.15-.15-.3-.85-.75-1.75-1.7-2.7-2.95-3.5-5.1-3.25-7.1-6.05-12.2Q-.55.55.45 0H0q.05 6.75.95 13.7.4 3.1.95 6.25l.1.3q1.5 5.35 3.7 10.6.3.7.65 1.45l1.75 4.05q.45.95.95 1.9v-.05q.1.25.25.5 1.15 2.3 2.4 4.55 1.15 2.05 2.45 4 1.35 2.15 7.1 9.4 5.7 7.25 14.55 14.65l1.75 1.3q1.35 1.05 2.8 2.1l8.2 5.35q17.8 10.2 39.2 11.8l1.1.05q3.35.2 6.8.2h.2q3.45 0 6.8-.2l1.1-.05q25.45-1.9 45.85-16l1.55-1.15q1.45-1.05 2.8-2.1l1-.7.65-.65q13.75-11.35 22.7-25.9m-71.95 30.5Q94.8 69.35 84 76.1q-2.899 3.237-8.9 1.65-9.9-5.65-12-14.2.15-10.25 6-14.55 25.05-5.95 50.45.5 4.05 4.9 5.75 16.4-.05 6.35-8.4 11.85-7.7 1.7-10.55-1.9m-71.7-22.3l-.1-.1q0-.05.05-.05.05.05.05.15z" id="BeaStu003__Symbol_4_0_Layer0_0_FILL"/><path fill="#252525" fill-opacity="0.251" d="M178.4 44.1q9.25-14.55 12.15-34.2l-.05.05q-4.8 26.55-26.8 46.65-28.1 25.75-67.85 25.75-39.75 0-67.9-25.75Q1.95 32.8 0 0q.15 9.05 1.9 18.45l.1.3.5 1.7 1.45 4.3Q4.8 27.2 5.8 29.6q.3.7.65 1.45L8.2 35.1q.45.95.95 1.9v-.05q.1.25.25.5 1.15 2.3 2.4 4.55 1.15 2.05 2.45 4 1.35 2.15 7.1 9.4 5.7 7.25 14.55 14.65l1.75 1.3q1.35 1.05 2.8 2.1l8.2 5.35q17.8 10.2 39.2 11.8l1.1.05q3.35.2 6.8.2h.2q3.45 0 6.8-.2l1.1-.05q25.45-1.9 45.85-16l1.55-1.15q1.45-1.05 2.8-2.1l1-.7.65-.65q13.75-11.35 22.7-25.9z" id="BeaStu003__Symbol_8_0_Layer0_0_FILL"/></defs><use xmlns:xlink="http://www.w3.org/1999/xlink" xlink:href="#BeaStu003__Symbol_4_0_Layer0_0_FILL" transform="translate(96.75 157.4)" id="BeaStu003__col1n"/><use xmlns:xlink="http://www.w3.org/1999/xlink" xlink:href="#BeaStu003__Symbol_8_0_Layer0_0_FILL" transform="translate(96.65 158.65)" id="BeaStu003__col1d"/></g></g><g transform=""><g transform=""><defs><path fill="#252525" d="M125.7 0q-.2.05-.35.1Q62.1 12.35.85.2.6.1.35.1.2.05.1.05.05 0 0 0q0 .05.05.1v19.5q.35-.1.7-.15h.1q32.4-5.15 62 2.9 29.7-8.1 62.3-2.85.15 0 .3.05.15 0 .25.05V.05l.05-.05h-.05z" id="LegPan001__Symbol_1_0_Layer0_0_FILL"/></defs><use xmlns:xlink="http://www.w3.org/1999/xlink" xlink:href="#LegPan001__Symbol_1_0_Layer0_0_FILL" transform="translate(129.65 310.25)" id="LegPan001__col1n"/></g></g><g transform=""><g transform=""><defs><path fill="#000000" d="M146.9 7.7q-9-5.25-23.3-6.95-13.1-1.45-27.4 0-7 .8-14.2 2.45l-8.3 2.05-8.3-2.05Q58.2 1.55 51.2.75 36.9-.7 23.8.75 9.1 2.5 0 8h147.4l-.5-.3z" id="LegSho001__Symbol_2_0_Layer0_0_FILL"/></defs><use xmlns:xlink="http://www.w3.org/1999/xlink" xlink:href="#LegSho001__Symbol_2_0_Layer0_0_FILL" transform="translate(118.8 326)" id="LegSho001__col1n"/></g></g><g transform=""><g transform=""><defs><path fill="#773900" d="M147.35 21.15q-1-2.45-2.1-4.8-1.8-3.95-3.85-7.6-.95-1.75-1.95-3.4-.1-.1-.15-.2-.6-.95-1.15-1.9-.85-1.3-1.7-2.55-.15-.15-.2-.3-.05-.1-.1-.15l-24.5 11.3q-2.15 1.05-4.3 2-31.55 13.7-63.8.95-4.9-1.95-9.8-4.5L11.85 0q-.15.15-.25.3 0 .05-.05.1l-.2.3Q9.6 3.25 8 5.95q-.3.5-.6 1.05-.55.9-1.05 1.85-2 3.65-3.8 7.5-1.1 2.4-2.1 4.9-.15.25-.25.55-.1.15-.15.35-.05.05-.05.15 4.95 2.5 17.7 10.35v.05l-2.7 14q-.55 2.7-1.1 5.45l-3.45 14.3q-1 3.9-1.95 7.8l-.05.15-.9 3.45v.25l-.05.05h.2q.25.1.5.15H8.35q2.05.5 4.15.95 61.75 14 122.7 0 .35-.05.65-.15l3.5-.8H139.5q.25-.05.5-.15h.2l-.05-.2v-.1l-6-24.25q-.65-3.1-1.3-6.15L130 32.7l17.85-10.4q-.05-.05-.1-.15-.15-.35-.25-.7l-.1-.2q-.05-.05-.05-.1z" id="ShiSho022__Symbol_30_0_Layer0_0_FILL"/><path fill="#3A2619" d="M147.25 24.25q-.1-.15-.15-.35-1-2.25-2.1-4.5l-1-2q-1.9-3.8-4-7.5-1.6-2.8-2.85-4.75-.45-.75-.7-1.2.45-.4.9-.7.15.1.35.2-.15-.15-.2-.3-.2-.25-.35-.45-.05-.1-.05-.15-.95-1.3-1.9-2.55l-1.85 1.4-.6.5q-1.05.8-2.2 1.6L129 4.65q-20.4 14.1-45.85 16l-1.1.05q-3.1.2-6.3.2h-1.2q-3.2 0-6.3-.2l-1.1-.05q-25.45-1.9-45.85-16L19.75 3.5q-.25-.2-.5-.35-1.2-.9-2.3-1.75L15.1 0q-.1.05-.15.15-.75 1-1.45 2.05l-.1.1q-.05.05-.05.1-.25.3-.5.65 0 .05-.05.1.2.15.45.3.1.1.25.2-3.35 5.75-5.95 10.7-2.35 4.45-4.4 9.15-.05.05-.05.1l-.65 1.75-1.15-.45q-.1.15-.15.35-.4 1.05-.8 2.15-.2.45-.35.95l18.95 7.05v.05l-.05.4q.05-.05.1-.05l.95-4L3.9 25.9l.45-1.25q.15-.3.3-.65.15-.4.3-.75l.9-2.1q3.55-8 9.05-16.4 4.75 3.6 9.8 6.55 16.05 9.4 34.8 12.1 7.6 1.1 15.65 1.1 23.55 0 43.3-9.4 6.85-3.3 13.3-7.7.9-.6 1.8-1.25.8-.6 1.6-1.25 6.4 9.85 10.3 19.2.1.25.2.55.05.15.15.35l.3 1-15.85 5.9 1 3.55 19.1-7.1q-.2-.5-.35-.95-.45-1.1-.85-2.15-.05-.15-.15-.35l-1.3.5-.45-1.15z" id="ShiSho022__Symbol_78_0_Layer0_0_FILL"/></defs><use xmlns:xlink="http://www.w3.org/1999/xlink" xlink:href="#ShiSho022__Symbol_30_0_Layer0_0_FILL" transform="translate(118.6 231.35)" id="ShiSho022__col1n"/><use xmlns:xlink="http://www.w3.org/1999/xlink" xlink:href="#ShiSho022__Symbol_78_0_Layer0_0_FILL" transform="translate(117.35 228.6)" id="ShiSho022__col2n"/></g></g><g transform=""><g transform=""><defs><path fill="#E9AF8B" d="M34.65 11q0-3.2-2.25-5.45-1.65-1.65-3.8-2.1-.3-.05-.55-.1-.25-.05-.5-.05-.15-.05-.35 0-.15-.05-.35 0h-.4q-.7.05-1.25.15-.15.05-.35.1Q20.7-.05 15.1 0 9.35-.05 5.2 3.65q-.05.05-.1.15-.2.1-.35.25-.05 0-.05.05l-.05.05-.2.2q-.25.25-.45.5-.05 0-.05.05l-.05.05-.3.3Q0 9.4 0 15q0 6.2 4.45 10.6Q8.85 30 15.1 30q2.9 0 5.4-.95.1-.05.2-.05.05-.05.15-.1h.05q.05-.05.15-.1.4-.15.75-.35l.8-.4q.1-.05.15-.1l.1-.05q1.5-.95 2.9-2.3 3.25-3.25 4.1-7.45.05-.05.1-.05l.3-.1q1.15-.55 2.15-1.55 2.25-2.25 2.25-5.45m135.6-6.85V4.1l-.05-.05q-.2-.15-.35-.25-.05-.1-.1-.15-4.2-3.7-9.9-3.65-5.65-.05-9.7 3.55-.2-.05-.35-.1-.4-.1-.8-.1l-.8-.05q-.2-.05-.35 0-.25-.05-.4 0-.25 0-.45.05h-.05q-.25.05-.45.1-2.2.45-3.85 2.1-2.3 2.25-2.3 5.45t2.3 5.45q.95 1 2.15 1.55l.3.1q.85 4.25 4.1 7.5 1.35 1.35 2.9 2.3.05 0 .1.05t.15.1q.35.2.75.4.35.2.75.35l.2.1h.05q.05.05.15.1.1 0 .2.05 2.5.95 5.4.95 6.25 0 10.65-4.4t4.45-10.6q-.05-5.6-3.65-9.75-.15-.15-.25-.3l-.1-.1q-.25-.25-.45-.5-.15-.1-.25-.2z" id="BodHan001__Symbol_2_0_Layer0_0_FILL"/><path fill="#D79C78" d="M15.5 7.75q0-3.2-2.25-5.45Q11.6.65 9.45.2 9.15.15 8.9.1 8.65.05 8.4.05q-.15-.05-.35 0Q7.9 0 7.7.05h-.4Q6.6.1 6.05.2 5.9.25 5.7.3q-1.95.45-3.45 2Q0 4.55 0 7.75t2.25 5.45q1.7 1.7 3.95 2.1l1.5.15h.1l.75-.05q1.15-.1 2.15-.5.05-.05.1-.05l.3-.1q1.15-.55 2.15-1.55 2.25-2.25 2.25-5.45M12.45 3q1.95 1.95 1.95 4.75 0 2.75-1.95 4.7-.85.9-1.85 1.4-1 .45-2.05.55l-.75.05h-.1l-1.3-.15q-1.9-.4-3.35-1.85-2-1.95-1.95-4.7Q1.05 4.95 3.05 3q1.45-1.45 3.3-1.8.5-.1 1-.15H7.8q.4 0 .85.1 2.15.25 3.8 1.85m124.3 4.75q-.05-3.2-2.3-5.45-1.5-1.55-3.4-2H131q-.2-.05-.35-.1-.4-.1-.8-.1l-.8-.05q-.2-.05-.35 0-.25-.05-.4 0-.25 0-.45.05h-.05q-.25.05-.45.1-2.2.45-3.85 2.1-2.3 2.25-2.3 5.45t2.3 5.45q.95 1 2.15 1.55l.3.1q1 .4 2.25.55l.75.05h.1l1.5-.15q2.2-.4 3.9-2.1 2.25-2.25 2.3-5.45M133.7 3q1.95 1.95 1.95 4.75 0 2.75-1.95 4.7-1.45 1.45-3.35 1.85l-1.3.15h-.1l-.75-.05q-1.1-.1-2-.55-1.05-.5-1.95-1.4-1.95-1.95-1.9-4.7-.05-2.8 1.9-4.75 1.65-1.6 3.8-1.85h.05q.4-.1.85-.1H129.4q.5.05 1 .15 1.85.35 3.3 1.8z" id="BodHan001__Symbol_1_0_Layer0_0_FILL"/></defs><use xmlns:xlink="http://www.w3.org/1999/xlink" xlink:href="#BodHan001__Symbol_2_0_Layer0_0_FILL" transform="translate(105.05 280.6)" id="BodHan001__col1n"/><use xmlns:xlink="http://www.w3.org/1999/xlink" xlink:href="#BodHan001__Symbol_1_0_Layer0_0_FILL" transform="translate(124.2 283.85)" id="BodHan001__col1d"/></g></g><g transform="translate(0 -10)"><g transform=""><defs><path fill="#000000" d="M27.95.55q-.15-.35-.5-.5-.4-.15-.75.05Q14.55 5.7 1.35.1.95-.1.6.1.25.2.1.6q-.2.35 0 .7.1.35.5.55Q14.65 7.8 27.5 1.8q.35-.15.5-.5.15-.4-.05-.75z" id="FacMou001__Symbol_1_0_Layer0_0_FILL"/></defs><g id="FacMou001__col1n" transform="translate(178.5 224.8)"><use xmlns:xlink="http://www.w3.org/1999/xlink" xlink:href="#FacMou001__Symbol_1_0_Layer0_0_FILL" id="FacMou001__col1n_FL"/></g></g></g><g transform=""><g transform=""><defs><path fill="#FFFFFF" d="M105.35 24.4q-1.2-4.7-3.8-8.85-1.7-2.75-4.05-5.3-.15-.2-.3-.35Q88.85.9 77.85.1 66.8-.75 59.55 7q-5.35 5.75-6.3 13.7-1-7.95-6.35-13.7Q39.65-.75 28.65.1 17.6.9 9.25 9.9q-.3.3-.55.65l-.3.3q-5 5.65-7 12.4Q.35 26.8.1 30.65q-.2 2.7.05 5.15.25 3.15 1.25 6 1.65 4.65 5.15 8.4 7.25 7.75 18.25 6.9 11.05-.8 19.4-9.75 7.8-8.4 9.05-19.25 1.2 10.85 9 19.25 8.35 8.95 19.4 9.75 11 .85 18.25-6.9 3.75-4 5.35-9.15.75-2.4 1-5.05.3-2.6.1-5.4-.2-3.2-1-6.2z" id="FacEye009__Symbol_1_0_Layer0_0_FILL"/><path d="M209.95 163.75q-.07-.043-.15-.1-.618-.226-1.35-.2-1.45-.05-2.45.9-.222.222-.4.45-.508.72-.6 1.55v.35q0 .401.05.75.049.107.05.2.034-.027.05-.05.016-.047 0-.1l3.85 1.65 2.7-2.8q.048.067.1.1-.004-.038 0-.1-.13-1.13-1-2-.388-.388-.85-.6m-30.15 2.95v-.15q-.06-1.26-1-2.2-1-.95-2.4-.9-1.45-.05-2.4.9-.954.954-1 2.2V167l3.65 2.05 3-1.45q.15-.422.15-.9z" id="FacEye009__Layer6_0_FILL"/><path fill="#F90" d="M208.2 164.45h-.05q-.35.05-.35.35t.25.5q.2.25.2.5 0 .246-.2.55-.192.383-.65.85v.05h-.05l.05-.05.05-.5q0-.178-.05-.35-.024-.34-.2-.55-.2-.25-.8-.4h-.4q.05.1.2.2.1.1.1.35 0 .225-.2.4-.057.143-.2.25-.53.337-.75 1-.016.023-.05.05.258.78.85 1.35l.05.05q1 1 2.45 1.05 1.4-.05 2.35-1.05.213-.202.35-.45.65-.798.65-1.9v-.25q-.052-.033-.1-.1-.55-.75-.75-.95h-.4v.05q.25 0 .25.6 0 .161-.05.3-.04.475-.4.55h-.1q-.09 0-.2-.1-.068-.08-.15-.3l-.05-.15q-.138-.329-.3-.45-.8-.65-.8-.7 0-.267.4-.85-.46-.169-.95.1m-30.3.2q.212.424.3.65.05.171.05.25 0 .35-.15.6l-.35.4q-.115.178-.25.35-.021.057-.05.1v-.05q.048-.193 0-.4.005-.425-.3-.9-.7-1-.8-1.45l-.6 1.05q-.292.633-.3 1.3v.05q0 .434.05.65.059.095.1.15l-.05-.05q-.468-.356-.75-.8-.481-.674-.45-1.55-.05.041-.1.05-.763.702-1.1 1.5-.07.246-.15.45.037.18.05.3.11.553.35 1 .24.407.6.75.279.293.6.5.775.515 1.8.55 1.251-.045 2.15-.85.144-.094.25-.2.659-.626.85-1.45-.124-.347-.45-1.05-.033-.142-.1-.3-.5-1.25-1.2-1.65v.05z" id="FacEye009__Layer6_1_FILL"/><path fill="#FF0" d="M206.35 167.9l-.05.05q-.25.501-.35 1.05l.05.05q1 1 2.45 1.05 1.4-.05 2.35-1.05.213-.202.35-.45-.128-.44-.25-1.2h-.15q-.45 1.1-.85 1.6-.5-1.15-1.3-1.05.2.2.2.45 0 .8-.9.8-.75 0-1.15-.4-.2-.25-.4-.9m-32.15-.6q-.13 1.113.4 2.25.775.515 1.8.55 1.251-.045 2.15-.85-.026-.316-.05-.75-.05-.5-.05-1l-.05.05q-.65 1.5-1.15 1.75v-.05q0-.6-.8-2.15-.05.15-.05 1.15-.05.95-.5.95-.4 0-1.7-1.9z" id="FacEye009__Layer6_2_FILL"/><path fill="red" d="M206.3 165.95q0 .225-.2.4-.057.143-.2.25-.53.337-.75 1 .4-.15 1.15-.4.5-.25.5-.7v-.15q-.059-.344-.4-.6-.234-.164-.4-.35.05.1.2.2.1.1.1.35m4.4-.5q-.033-.025-.1-.05h-.05v.05q.25 0 .25.6 0 .161-.05.3-.04.475-.4.55l.35.1q.483 0 .5-.65v-.05q0-.55-.5-.85m-2.5-.6q0-.234.5-.6-.177.125-.55.2-.35.05-.35.35t.25.5q.2.25.2.5 0 .246-.2.55-.192.383-.65.85v.05l.5.05q.567 0 .8-.95.036-.043.05-.1 0-.25-.25-.7-.3-.45-.3-.7m-33.95.2q-.763.702-1.1 1.5-.07.246-.15.45.037.18.05.3.11.553.35 1 .118-1.012.3-1.75.032-.039.05-.1.369-.902.5-1.4m2-.65l-.5.85q-.292.633-.3 1.3v.05q0 .434.05.65.113.054.25.1.074-.407.15-.8.22-1.275.35-2.15m1.85 1.75l-.35.4q-.115.178-.25.35.15.251.15.3h.3q.25 0 .45-.3.107-.178.15-.35v-.15q0-.295-.35-1.1.05.171.05.25 0 .35-.15.6z" id="FacEye009__Layer6_3_FILL"/></defs><g id="FacEye009__col1n" transform="translate(139.3 136.2)"><use xmlns:xlink="http://www.w3.org/1999/xlink" xlink:href="#FacEye009__Symbol_1_0_Layer0_0_FILL" id="FacEye009__col1n_FL"/></g><use xmlns:xlink="http://www.w3.org/1999/xlink" xlink:href="#FacEye009__Layer6_0_FILL"/><use xmlns:xlink="http://www.w3.org/1999/xlink" xlink:href="#FacEye009__Layer6_1_FILL"/><use xmlns:xlink="http://www.w3.org/1999/xlink" xlink:href="#FacEye009__Layer6_2_FILL"/><use xmlns:xlink="http://www.w3.org/1999/xlink" xlink:href="#FacEye009__Layer6_3_FILL"/></g></g><g transform=""><g transform=""><defs><path fill="#3A2619" d="M.25 78.2q.2.25.55.25.35 0 .6-.25.2-.2.2-.55 0-.35-.2-.6-.25-.2-.6-.2t-.55.2q-.25.25-.25.6t.25.55m1.8-17.6q-.35 0-.55.2-.25.25-.25.6t.25.55q.2.25.55.25.35 0 .6-.25.2-.2.2-.55 0-.35-.2-.6-.25-.2-.6-.2m19.1-7.05q.2-.2.2-.55 0-.35-.2-.6-.25-.2-.6-.2t-.55.2q-.25.25-.25.6t.25.55q.2.25.55.25.35 0 .6-.25M30 39.4q-.25-.2-.6-.2t-.55.2q-.25.25-.25.6t.25.55q.2.25.55.25.35 0 .6-.25.2-.2.2-.55 0-.35-.2-.6m-3.15-7.95q0 .35.25.55.2.25.55.25.35 0 .6-.25.2-.2.2-.55 0-.35-.2-.6-.25-.2-.6-.2t-.55.2q-.25.25-.25.6M14.3 46.2q.2-.2.2-.55 0-.35-.2-.6-.25-.2-.6-.2t-.55.2q-.25.25-.25.6t.25.55q.2.25.55.25.35 0 .6-.25m1.95-9.8q.2-.2.2-.55 0-.35-.2-.6-.25-.2-.6-.2t-.55.2q-.25.25-.25.6t.25.55q.2.25.55.25.35 0 .6-.25M159 46.2q0 .35.25.55.2.25.55.25.35 0 .6-.25.2-.2.2-.55 0-.35-.2-.6-.25-.2-.6-.2t-.55.2q-.25.25-.25.6m1.5-7.75q-.35 0-.55.2-.25.25-.25.6t.25.55q.2.25.55.25.35 0 .6-.25.15-.15.2-.35v-.2q0-.35-.2-.6-.25-.2-.6-.2m-8.7 10.75q-.35 0-.55.2-.25.25-.25.6t.25.55q.2.25.55.25.35 0 .6-.25.2-.2.2-.55 0-.35-.2-.6-.25-.2-.6-.2m-6.4-7.85q-.35 0-.55.2-.25.25-.25.6t.25.55q.2.25.55.25.35 0 .6-.25.2-.2.2-.55 0-.35-.2-.6-.25-.2-.6-.2m8-7.7q.35 0 .6-.25.2-.2.2-.55 0-.35-.2-.6-.25-.2-.6-.2t-.55.2q-.25.25-.25.6t.25.55q.2.25.55.25m-4.05-11.3q0-.2-.05-.35v-3.85q-.05-1.45-1.15-2Q117.15.05 87.45 0 58.2.3 27.65 16.15q-1.1.55-1.15 2v3.35q-.05.25 0 .55v.1q.1 1.65 2.25 4.2Q30.2 28 32.8 30.6q1.75 1.65 2.9 2.85.25.2.45.45.25.2.55.45.2.1.35.25 1.8 1.3 4.9 1.45h91.9q3.1-.15 4.9-1.45.15-.15.35-.25.3-.25.55-.45.2-.25.45-.45 1.15-1.2 2.9-2.85 2.6-2.6 4.05-4.25 2-2.4 2.3-4m27.05 48.6q.2-.2.2-.55 0-.35-.2-.6-.25-.2-.6-.2t-.55.2q-.25.25-.25.6t.25.55q.2.25.55.25.35 0 .6-.25m-7.7-14.7q0-.35-.2-.6-.25-.2-.6-.2t-.55.2q-.25.25-.25.6t.25.55q.2.25.55.25.35 0 .6-.25.2-.2.2-.55z" id="HaiSpe008__Symbol_140_0_Layer0_0_FILL"/><path fill="#5B3F2D" d="M91.9 11V1q-.2.1-.35.25-.4 1.7-1.95 2.55-.65-1.85-2.15-3-.5 2.2-2.55 3.45-.5-2-1.85-3.45-.65 2.15-1.9 3.35Q80 2.2 78.3 1.25q-.4 2-1.5 3.15-.4-1.7-1.85-3.2-.3 1.6-1.75 3.05-.35-1.9-1.8-3.5-.75 2.15-1.9 2.95-.3-1.8-1.8-3.1-.45 2.35-2.2 3.5Q65 2.2 63.6.8q-.55 2.1-2.05 2.6-.5-1.65-2.5-2.3-.25 1.65-1.65 2.7.1-1.6-.95-3.2-.55 1.95-1.85 3-.4-1.65-1.9-2.6-1.1 2-2.4 2.75L48.45 0Q47.2 1.75 45.8 3.7q-.5-.65-.85-1.4-.4-.8-1.5-2.3L41.6 3.75Q40.3 3 39.2 1q-1.5.95-1.9 2.6-1.3-1.05-1.85-3-1.05 1.6-.95 3.2-1.4-1.05-1.65-2.7-2 .65-2.5 2.3-1.5-.5-2.05-2.6-1.4 1.4-1.9 3.3-1.75-1.15-2.2-3.5-1.5 1.3-1.8 3.1-1.15-.8-1.9-2.95-1.45 1.6-1.8 3.5-1.45-1.45-1.75-3.05-1.45 1.5-1.85 3.2-1.1-1.15-1.5-3.15-1.7.95-2.85 2.9Q9.5 2.95 8.85.8 7.5 2.25 7 4.25 4.95 3 4.45.8q-1.5 1.15-2.15 3Q.75 2.95.35 1.25.2 1.1 0 1v10h91.9z" id="HaiSpe008__Symbol_55_0_Layer0_0_FILL"/><g id="HaiSpe008__Symbol_79_0_Layer0_0_FILL" fill="#2C1C12"><path fill-opacity="0.251" d="M43.65 17.5q-1.15-1.2-2.9-2.85-2.6-2.6-4.05-4.25-2.15-2.55-2.25-4.2-3.3 2.75-6.4 5.85Q0 40.1 0 79.8q0 4.5.35 8.85Q3.45 81.4 6.4 73.4q1.55-4.25 3.1-8.7 4.5-13 9.8-14.45.7-.2 1.3-.4 3.55-1.15 7.75-7.1 10.9-14.6 21.55-22.65-3.1-.15-4.9-1.45-.15-.15-.35-.25-.3-.25-.55-.45-.2-.25-.45-.45M23.6 20.2q-.35 0-.55-.25-.25-.2-.25-.55 0-.35.25-.6.2-.2.55-.2.35 0 .6.2.2.25.2.6t-.2.55q-.25.25-.6.25M36.4 15q0 .35-.2.55-.25.25-.6.25t-.55-.25q-.25-.2-.25-.55 0-.35.25-.6.2-.2.55-.2.35 0 .6.2.2.25.2.6m1.75 8.55q0 .35-.2.55-.25.25-.6.25t-.55-.25q-.25-.2-.25-.55 0-.35.25-.6.2-.2.55-.2.35 0 .6.2.2.25.2.6M10.6 44.35q.2.25.2.6t-.2.55q-.25.25-.6.25t-.55-.25q-.25-.2-.25-.55 0-.35.25-.6.2-.2.55-.2.35 0 .6.2M22.25 28.6q.2.25.2.6t-.2.55q-.25.25-.6.25t-.55-.25q-.25-.2-.25-.55 0-.35.25-.6.2-.2.55-.2.35 0 .6.2m5.45 7.95q0-.35.25-.6.2-.2.55-.2.35 0 .6.2.2.25.2.6t-.2.55q-.25.25-.6.25t-.55-.25q-.25-.2-.25-.55M8.75 60.4q.35 0 .6.2.2.25.2.6t-.2.55q-.25.25-.6.25t-.55-.25q-.25-.2-.25-.55 0-.35.25-.6.2-.2.55-.2M171.1 49.85q.6.2 1.3.4 5.3 1.45 9.8 14.45 1.55 4.45 3.1 8.7 2.9 7.9 5.95 15.05.35-4.25.35-8.65 0-39.7-28.05-67.75-3.05-3.05-6.25-5.8-.2 1.65-2.3 4.15-1.45 1.65-4.05 4.25-1.75 1.65-2.9 2.85-.25.2-.45.45-.25.2-.55.45-.2.1-.35.25-1.8 1.3-4.9 1.45 10.65 8.05 21.55 22.65 4.2 5.95 7.75 7.1M168.45 22q.35 0 .6.2.2.25.2.6v.2q-.05.2-.2.35-.25.25-.6.25t-.55-.25q-.25-.2-.25-.55 0-.35.25-.6.2-.2.55-.2m-.1 7.15q.2.25.2.6t-.2.55q-.25.25-.6.25t-.55-.25q-.25-.2-.25-.55 0-.35.25-.6.2-.2.55-.2.35 0 .6.2m6.7 10.65q0-.35.25-.6.2-.2.55-.2.35 0 .6.2.2.25.2.6t-.2.55q-.25.25-.6.25t-.55-.25q-.25-.2-.25-.55m9.3 14.7q-.25.25-.6.25t-.55-.25q-.25-.2-.25-.55 0-.35.25-.6.2-.2.55-.2.35 0 .6.2.2.25.2.6t-.2.55m-23.8-38.1q0-.35.25-.6.2-.2.55-.2.35 0 .6.2.2.25.2.6t-.2.55q-.25.25-.6.25t-.55-.25q-.25-.2-.25-.55m-6.4 9.3q0 .35-.2.55-.25.25-.6.25t-.55-.25q-.25-.2-.25-.55 0-.35.25-.6.2-.2.55-.2.35 0 .6.2.2.25.2.6m5.6 7.05q.35 0 .6.2.2.25.2.6t-.2.55q-.25.25-.6.25t-.55-.25q-.25-.2-.25-.55 0-.35.25-.6.2-.2.55-.2z"/><path d="M42.65 6.25L41.5 7.4l-1.15-3.5q-.45.95-.85 2-.8-1.75-1.25-2.8-.45-1.2-.55-1.55-.05.2-.55.8-.55.6-.7.65l-.8-3-1.2 2.15v3.4q-.05.3 0 .65.1 1.65 2.25 4.2 1.45 1.65 4.05 4.25 1.75 1.65 2.9 2.85.25.2.45.45.25.2.55.45.2.1.35.25 1.8 1.3 4.9 1.45V10.05q-.1-.1-.25-.2l-.1.1q.05 0 .05.05-.05.05-.2.15l.15-.2-2.05 2.1-1.6-4.15q-.1-.1-.15-.2-.2.4-1.1 1.75h-.15q-.15-.2-1.85-3.2m114.6-.7v-3.4L156.05 0l-.8 3q-.15-.05-.7-.65-.5-.6-.55-.8-.1.35-.55 1.6-.5 1.05-1.25 2.75-.4-1.05-.85-2l-1.15 3.5-1.15-1.15q-1.7 3-1.85 3.2h-.15q-.9-1.35-1.1-1.75-.05.1-.15.2l-1.6 4.15-2.05-2.1.15.2q-.15-.1-.2-.15 0-.05.05-.05l-.1-.1q-.15.1-.25.2V20.1q3.1-.15 4.9-1.45.15-.15.35-.25.3-.25.55-.45.2-.25.45-.45 1.15-1.2 2.9-2.85 2.6-2.6 4.05-4.25 2.1-2.5 2.3-4.15 0-.4-.05-.7z"/></g></defs><use xmlns:xlink="http://www.w3.org/1999/xlink" xlink:href="#HaiSpe008__Symbol_140_0_Layer0_0_FILL" transform="translate(104.6 57.55)" id="HaiSpe008__col1n"/><use xmlns:xlink="http://www.w3.org/1999/xlink" xlink:href="#HaiSpe008__Symbol_79_0_Layer0_0_FILL" transform="translate(96.65 74)" id="HaiSpe008__col1d"/><use xmlns:xlink="http://www.w3.org/1999/xlink" xlink:href="#HaiSpe008__Symbol_55_0_Layer0_0_FILL" transform="translate(146.55 83.05)" id="HaiSpe008__col1l"/></g></g><g transform=""><g transform=""><defs><path fill="#000000" d="M40.9 11.3l1.5-.2q-2.6-7.6-7.65-9.8l.45 3.05q-.05-.05-.1-.05Q30.4 2 27.15.9l-.5.05.45 3.15q-.75-.4-1.8-.8-1.95-.8-3.4-1.4Q18.4.45 17.4 0l.35 2.5-5.6.8.3 1.9Q8.25 4.1 6.2 3.65 4.6 8.15 2.6 9.6-.45 11.65.05 14.95q.1.8.15 1.35.45-2.15 3.3-.4 1.05-1 4.65-3.15 4.95-3 10.05-3.45l2.65-.4q8.3-1.2 10.85.2.35.15.65.55.05.05.2.15 3.75-1.9 8.35 1.5m1.5-.2h.05q.05-.5-.3-1 .15.45.25 1m50.95-1.5q-2.05-1.45-3.6-5.95-2.1.45-6.25 1.55l.25-1.9-5.55-.8.35-2.5q-1.05.45-4.5 1.9-1.5.6-3.45 1.4-1.05.4-1.8.8l.45-3.15-.5-.05Q65.5 2 60.8 4.3q-.05 0-.1.05l.45-3.05q-5.05 2.2-7.65 9.8l1.5.2q4.6-3.4 8.4-1.5.1-.1.2-.15.25-.4.6-.55 2.55-1.4 10.9-.2l2.65.4q5.05.45 10.05 3.45 3.55 2.15 4.65 3.15 2.8-1.75 3.25.4.1-.55.2-1.35.45-3.3-2.55-5.35z" id="FacBro027__Symbol_27_0_Layer0_0_FILL"/></defs><use xmlns:xlink="http://www.w3.org/1999/xlink" xlink:href="#FacBro027__Symbol_27_0_Layer0_0_FILL" transform="translate(144.55 122.25)" id="FacBro027__col1n"/></g></g></svg>